G04 EAGLE Gerber RS-274X export*
G75*
%MOMM*%
%FSLAX34Y34*%
%LPD*%
%INBottom Copper*%
%IPPOS*%
%AMOC8*
5,1,8,0,0,1.08239X$1,22.5*%
G01*
%ADD10R,1.200000X1.400000*%
%ADD11C,1.879600*%
%ADD12C,1.676400*%
%ADD13C,0.414000*%
%ADD14R,0.488000X0.575000*%
%ADD15R,2.500000X2.500000*%
%ADD16C,1.308000*%
%ADD17C,0.152400*%
%ADD18C,0.756400*%

G36*
X1161843Y429276D02*
X1161843Y429276D01*
X1161940Y429286D01*
X1161964Y429296D01*
X1161990Y429300D01*
X1162076Y429346D01*
X1162165Y429386D01*
X1162184Y429403D01*
X1162207Y429416D01*
X1162274Y429486D01*
X1162346Y429552D01*
X1162358Y429575D01*
X1162376Y429594D01*
X1162417Y429682D01*
X1162464Y429768D01*
X1162469Y429793D01*
X1162480Y429817D01*
X1162491Y429914D01*
X1162508Y430010D01*
X1162504Y430036D01*
X1162507Y430061D01*
X1162487Y430157D01*
X1162472Y430253D01*
X1162460Y430276D01*
X1162455Y430302D01*
X1162405Y430385D01*
X1162361Y430472D01*
X1162342Y430491D01*
X1162329Y430513D01*
X1162255Y430576D01*
X1162185Y430644D01*
X1162157Y430660D01*
X1162142Y430673D01*
X1162111Y430685D01*
X1162038Y430725D01*
X1159812Y431647D01*
X1155547Y435912D01*
X1153239Y441484D01*
X1153239Y447516D01*
X1155547Y453088D01*
X1159812Y457353D01*
X1165384Y459661D01*
X1171416Y459661D01*
X1176988Y457353D01*
X1181253Y453088D01*
X1181975Y451345D01*
X1182026Y451262D01*
X1182072Y451176D01*
X1182091Y451158D01*
X1182104Y451136D01*
X1182179Y451073D01*
X1182250Y451006D01*
X1182274Y450995D01*
X1182294Y450979D01*
X1182385Y450944D01*
X1182473Y450903D01*
X1182499Y450900D01*
X1182523Y450891D01*
X1182621Y450886D01*
X1182717Y450876D01*
X1182743Y450881D01*
X1182769Y450880D01*
X1182863Y450907D01*
X1182958Y450928D01*
X1182980Y450941D01*
X1183005Y450949D01*
X1183085Y451004D01*
X1183169Y451054D01*
X1183186Y451074D01*
X1183207Y451089D01*
X1183266Y451167D01*
X1183329Y451241D01*
X1183339Y451265D01*
X1183354Y451286D01*
X1183384Y451379D01*
X1183421Y451469D01*
X1183424Y451502D01*
X1183430Y451520D01*
X1183430Y451553D01*
X1183439Y451636D01*
X1183439Y945364D01*
X1183424Y945460D01*
X1183414Y945557D01*
X1183404Y945581D01*
X1183400Y945607D01*
X1183354Y945693D01*
X1183314Y945782D01*
X1183297Y945801D01*
X1183284Y945824D01*
X1183214Y945891D01*
X1183148Y945963D01*
X1183125Y945976D01*
X1183106Y945994D01*
X1183018Y946035D01*
X1182932Y946082D01*
X1182907Y946086D01*
X1182883Y946097D01*
X1182786Y946108D01*
X1182690Y946125D01*
X1182664Y946121D01*
X1182639Y946124D01*
X1182543Y946104D01*
X1182447Y946089D01*
X1182424Y946078D01*
X1182398Y946072D01*
X1182315Y946022D01*
X1182228Y945978D01*
X1182209Y945959D01*
X1182187Y945946D01*
X1182124Y945872D01*
X1182056Y945802D01*
X1182040Y945774D01*
X1182027Y945759D01*
X1182015Y945728D01*
X1181975Y945655D01*
X1181253Y943912D01*
X1176988Y939647D01*
X1171416Y937339D01*
X1165384Y937339D01*
X1159812Y939647D01*
X1155547Y943912D01*
X1153239Y949484D01*
X1153239Y955516D01*
X1155547Y961088D01*
X1159812Y965353D01*
X1165384Y967661D01*
X1171416Y967661D01*
X1176988Y965353D01*
X1181253Y961088D01*
X1181975Y959345D01*
X1182026Y959262D01*
X1182072Y959176D01*
X1182091Y959158D01*
X1182104Y959136D01*
X1182179Y959073D01*
X1182250Y959006D01*
X1182274Y958995D01*
X1182294Y958979D01*
X1182385Y958944D01*
X1182473Y958903D01*
X1182499Y958900D01*
X1182523Y958891D01*
X1182621Y958886D01*
X1182717Y958876D01*
X1182743Y958881D01*
X1182769Y958880D01*
X1182863Y958907D01*
X1182958Y958928D01*
X1182980Y958941D01*
X1183005Y958949D01*
X1183085Y959004D01*
X1183169Y959054D01*
X1183186Y959074D01*
X1183207Y959089D01*
X1183266Y959167D01*
X1183329Y959241D01*
X1183339Y959265D01*
X1183354Y959286D01*
X1183384Y959379D01*
X1183421Y959469D01*
X1183424Y959502D01*
X1183430Y959520D01*
X1183430Y959553D01*
X1183439Y959636D01*
X1183439Y989078D01*
X1183436Y989098D01*
X1183438Y989117D01*
X1183416Y989219D01*
X1183400Y989321D01*
X1183390Y989338D01*
X1183386Y989358D01*
X1183333Y989447D01*
X1183284Y989538D01*
X1183270Y989552D01*
X1183260Y989569D01*
X1183181Y989636D01*
X1183106Y989708D01*
X1183088Y989716D01*
X1183073Y989729D01*
X1182977Y989768D01*
X1182883Y989811D01*
X1182863Y989813D01*
X1182845Y989821D01*
X1182678Y989839D01*
X1159246Y989839D01*
X1159149Y989824D01*
X1159053Y989814D01*
X1159029Y989804D01*
X1159003Y989800D01*
X1158917Y989754D01*
X1158828Y989714D01*
X1158809Y989697D01*
X1158785Y989684D01*
X1158718Y989614D01*
X1158647Y989548D01*
X1158634Y989525D01*
X1158616Y989506D01*
X1158575Y989418D01*
X1158528Y989332D01*
X1158523Y989307D01*
X1158512Y989283D01*
X1158502Y989186D01*
X1158484Y989090D01*
X1158488Y989064D01*
X1158485Y989039D01*
X1158506Y988943D01*
X1158520Y988847D01*
X1158532Y988824D01*
X1158538Y988798D01*
X1158588Y988715D01*
X1158632Y988628D01*
X1158650Y988609D01*
X1158664Y988587D01*
X1158738Y988524D01*
X1158807Y988456D01*
X1158836Y988440D01*
X1158851Y988427D01*
X1158881Y988415D01*
X1158954Y988375D01*
X1161887Y987160D01*
X1164960Y984087D01*
X1166623Y980073D01*
X1166623Y975727D01*
X1164960Y971713D01*
X1161887Y968640D01*
X1157873Y966977D01*
X1153527Y966977D01*
X1149513Y968640D01*
X1146440Y971713D01*
X1144777Y975727D01*
X1144777Y980073D01*
X1146440Y984087D01*
X1149513Y987160D01*
X1152446Y988375D01*
X1152529Y988426D01*
X1152615Y988472D01*
X1152633Y988490D01*
X1152655Y988504D01*
X1152717Y988580D01*
X1152784Y988650D01*
X1152795Y988674D01*
X1152812Y988694D01*
X1152847Y988785D01*
X1152888Y988873D01*
X1152890Y988899D01*
X1152900Y988923D01*
X1152904Y989021D01*
X1152915Y989117D01*
X1152909Y989143D01*
X1152910Y989169D01*
X1152883Y989263D01*
X1152862Y989358D01*
X1152849Y989380D01*
X1152842Y989405D01*
X1152786Y989485D01*
X1152736Y989569D01*
X1152716Y989586D01*
X1152701Y989607D01*
X1152623Y989666D01*
X1152549Y989729D01*
X1152525Y989739D01*
X1152504Y989754D01*
X1152412Y989784D01*
X1152321Y989821D01*
X1152289Y989824D01*
X1152270Y989830D01*
X1152237Y989830D01*
X1152154Y989839D01*
X1136336Y989839D01*
X1136269Y989828D01*
X1136201Y989827D01*
X1136148Y989809D01*
X1136093Y989800D01*
X1136033Y989768D01*
X1135969Y989745D01*
X1135925Y989711D01*
X1135876Y989684D01*
X1135829Y989635D01*
X1135776Y989593D01*
X1135745Y989547D01*
X1135707Y989506D01*
X1135678Y989444D01*
X1135641Y989388D01*
X1135627Y989334D01*
X1135603Y989283D01*
X1135595Y989216D01*
X1135578Y989150D01*
X1135582Y989094D01*
X1135576Y989039D01*
X1135590Y988972D01*
X1135595Y988905D01*
X1135616Y988853D01*
X1135628Y988798D01*
X1135663Y988740D01*
X1135689Y988677D01*
X1135726Y988635D01*
X1135754Y988587D01*
X1135806Y988543D01*
X1135850Y988492D01*
X1135916Y988449D01*
X1135941Y988427D01*
X1135961Y988419D01*
X1135990Y988400D01*
X1136557Y988111D01*
X1138078Y987006D01*
X1139406Y985678D01*
X1140511Y984157D01*
X1141364Y982483D01*
X1141945Y980696D01*
X1142146Y979423D01*
X1131062Y979423D01*
X1131042Y979420D01*
X1131023Y979422D01*
X1130921Y979400D01*
X1130819Y979383D01*
X1130802Y979374D01*
X1130782Y979370D01*
X1130693Y979317D01*
X1130602Y979268D01*
X1130588Y979254D01*
X1130571Y979244D01*
X1130504Y979165D01*
X1130433Y979090D01*
X1130424Y979072D01*
X1130411Y979057D01*
X1130373Y978961D01*
X1130329Y978867D01*
X1130327Y978847D01*
X1130319Y978829D01*
X1130301Y978662D01*
X1130301Y977899D01*
X1130299Y977899D01*
X1130299Y978662D01*
X1130296Y978682D01*
X1130298Y978701D01*
X1130276Y978803D01*
X1130259Y978905D01*
X1130250Y978922D01*
X1130246Y978942D01*
X1130193Y979031D01*
X1130144Y979122D01*
X1130130Y979136D01*
X1130120Y979153D01*
X1130041Y979220D01*
X1129966Y979291D01*
X1129948Y979300D01*
X1129933Y979313D01*
X1129837Y979352D01*
X1129743Y979395D01*
X1129723Y979397D01*
X1129705Y979405D01*
X1129538Y979423D01*
X1118454Y979423D01*
X1118655Y980696D01*
X1119236Y982483D01*
X1120089Y984157D01*
X1121194Y985678D01*
X1122522Y987006D01*
X1124043Y988111D01*
X1124610Y988400D01*
X1124664Y988440D01*
X1124724Y988472D01*
X1124763Y988512D01*
X1124808Y988545D01*
X1124847Y988601D01*
X1124893Y988650D01*
X1124917Y988701D01*
X1124949Y988747D01*
X1124969Y988812D01*
X1124997Y988873D01*
X1125003Y988929D01*
X1125019Y988982D01*
X1125017Y989050D01*
X1125024Y989117D01*
X1125012Y989172D01*
X1125010Y989228D01*
X1124986Y989292D01*
X1124972Y989358D01*
X1124943Y989406D01*
X1124923Y989458D01*
X1124881Y989511D01*
X1124846Y989569D01*
X1124803Y989605D01*
X1124768Y989649D01*
X1124710Y989685D01*
X1124659Y989729D01*
X1124607Y989750D01*
X1124559Y989780D01*
X1124494Y989795D01*
X1124431Y989821D01*
X1124352Y989829D01*
X1124320Y989837D01*
X1124300Y989835D01*
X1124264Y989839D01*
X1108446Y989839D01*
X1108349Y989824D01*
X1108253Y989814D01*
X1108229Y989804D01*
X1108203Y989800D01*
X1108117Y989754D01*
X1108028Y989714D01*
X1108009Y989697D01*
X1107985Y989684D01*
X1107918Y989614D01*
X1107847Y989548D01*
X1107834Y989525D01*
X1107816Y989506D01*
X1107775Y989418D01*
X1107728Y989332D01*
X1107723Y989307D01*
X1107712Y989283D01*
X1107702Y989186D01*
X1107684Y989090D01*
X1107688Y989064D01*
X1107685Y989039D01*
X1107706Y988943D01*
X1107720Y988847D01*
X1107732Y988824D01*
X1107738Y988798D01*
X1107788Y988715D01*
X1107832Y988628D01*
X1107850Y988609D01*
X1107864Y988587D01*
X1107938Y988524D01*
X1108007Y988456D01*
X1108036Y988440D01*
X1108051Y988427D01*
X1108081Y988415D01*
X1108154Y988375D01*
X1111087Y987160D01*
X1114160Y984087D01*
X1115823Y980073D01*
X1115823Y975727D01*
X1114160Y971713D01*
X1111087Y968640D01*
X1107073Y966977D01*
X1102727Y966977D01*
X1098713Y968640D01*
X1095640Y971713D01*
X1093977Y975727D01*
X1093977Y980073D01*
X1095640Y984087D01*
X1098713Y987160D01*
X1101646Y988375D01*
X1101729Y988426D01*
X1101815Y988472D01*
X1101833Y988490D01*
X1101855Y988504D01*
X1101917Y988580D01*
X1101984Y988650D01*
X1101995Y988674D01*
X1102012Y988694D01*
X1102047Y988785D01*
X1102088Y988873D01*
X1102090Y988899D01*
X1102100Y988923D01*
X1102104Y989021D01*
X1102115Y989117D01*
X1102109Y989143D01*
X1102110Y989169D01*
X1102083Y989263D01*
X1102062Y989358D01*
X1102049Y989380D01*
X1102042Y989405D01*
X1101986Y989485D01*
X1101936Y989569D01*
X1101916Y989586D01*
X1101901Y989607D01*
X1101823Y989666D01*
X1101749Y989729D01*
X1101725Y989739D01*
X1101704Y989754D01*
X1101612Y989784D01*
X1101521Y989821D01*
X1101489Y989824D01*
X1101470Y989830D01*
X1101437Y989830D01*
X1101354Y989839D01*
X1083046Y989839D01*
X1082949Y989824D01*
X1082853Y989814D01*
X1082829Y989804D01*
X1082803Y989800D01*
X1082717Y989754D01*
X1082628Y989714D01*
X1082609Y989697D01*
X1082585Y989684D01*
X1082518Y989614D01*
X1082447Y989548D01*
X1082434Y989525D01*
X1082416Y989506D01*
X1082375Y989418D01*
X1082328Y989332D01*
X1082323Y989307D01*
X1082312Y989283D01*
X1082302Y989186D01*
X1082284Y989090D01*
X1082288Y989064D01*
X1082285Y989039D01*
X1082306Y988943D01*
X1082320Y988847D01*
X1082332Y988824D01*
X1082338Y988798D01*
X1082388Y988715D01*
X1082432Y988628D01*
X1082450Y988609D01*
X1082464Y988587D01*
X1082538Y988524D01*
X1082607Y988456D01*
X1082636Y988440D01*
X1082651Y988427D01*
X1082681Y988415D01*
X1082754Y988375D01*
X1085687Y987160D01*
X1088760Y984087D01*
X1090423Y980073D01*
X1090423Y975727D01*
X1088760Y971713D01*
X1085687Y968640D01*
X1081673Y966977D01*
X1077327Y966977D01*
X1076142Y967468D01*
X1076028Y967495D01*
X1075915Y967524D01*
X1075908Y967523D01*
X1075902Y967524D01*
X1075786Y967513D01*
X1075670Y967504D01*
X1075664Y967502D01*
X1075657Y967501D01*
X1075550Y967454D01*
X1075443Y967408D01*
X1075437Y967403D01*
X1075433Y967401D01*
X1075419Y967389D01*
X1075312Y967303D01*
X980410Y872401D01*
X980357Y872327D01*
X980297Y872257D01*
X980285Y872227D01*
X980266Y872201D01*
X980239Y872114D01*
X980205Y872029D01*
X980201Y871988D01*
X980194Y871966D01*
X980195Y871934D01*
X980187Y871862D01*
X980187Y767279D01*
X980198Y767209D01*
X980200Y767137D01*
X980218Y767088D01*
X980226Y767037D01*
X980260Y766973D01*
X980285Y766906D01*
X980317Y766865D01*
X980342Y766819D01*
X980394Y766770D01*
X980438Y766714D01*
X980482Y766686D01*
X980520Y766650D01*
X980585Y766620D01*
X980645Y766581D01*
X980696Y766568D01*
X980743Y766546D01*
X980814Y766538D01*
X980884Y766521D01*
X980936Y766525D01*
X980987Y766519D01*
X981058Y766534D01*
X981129Y766540D01*
X981177Y766560D01*
X981228Y766571D01*
X981289Y766608D01*
X981355Y766636D01*
X981411Y766681D01*
X981439Y766698D01*
X981454Y766715D01*
X981486Y766741D01*
X982052Y767307D01*
X986448Y767307D01*
X989557Y764198D01*
X989557Y760243D01*
X989571Y760152D01*
X989579Y760062D01*
X989591Y760032D01*
X989596Y760000D01*
X989639Y759919D01*
X989675Y759835D01*
X989701Y759803D01*
X989712Y759782D01*
X989735Y759760D01*
X989780Y759704D01*
X1011937Y737547D01*
X1011937Y735783D01*
X1011951Y735693D01*
X1011959Y735602D01*
X1011971Y735573D01*
X1011976Y735541D01*
X1012019Y735460D01*
X1012055Y735376D01*
X1012081Y735344D01*
X1012092Y735323D01*
X1012115Y735301D01*
X1012160Y735245D01*
X1014957Y732448D01*
X1014957Y728052D01*
X1011848Y724943D01*
X1009523Y724943D01*
X1009503Y724940D01*
X1009484Y724942D01*
X1009382Y724920D01*
X1009280Y724904D01*
X1009263Y724894D01*
X1009243Y724890D01*
X1009154Y724837D01*
X1009063Y724788D01*
X1009049Y724774D01*
X1009032Y724764D01*
X1008965Y724685D01*
X1008893Y724610D01*
X1008885Y724592D01*
X1008872Y724577D01*
X1008833Y724481D01*
X1008790Y724387D01*
X1008788Y724367D01*
X1008780Y724349D01*
X1008762Y724182D01*
X1008762Y713304D01*
X1008773Y713234D01*
X1008775Y713162D01*
X1008793Y713113D01*
X1008801Y713062D01*
X1008835Y712998D01*
X1008860Y712931D01*
X1008892Y712890D01*
X1008917Y712844D01*
X1008969Y712795D01*
X1009013Y712739D01*
X1009057Y712711D01*
X1009095Y712675D01*
X1009160Y712645D01*
X1009220Y712606D01*
X1009271Y712593D01*
X1009318Y712571D01*
X1009389Y712563D01*
X1009459Y712546D01*
X1009511Y712550D01*
X1009562Y712544D01*
X1009633Y712559D01*
X1009704Y712565D01*
X1009752Y712585D01*
X1009803Y712596D01*
X1009864Y712633D01*
X1009930Y712661D01*
X1009986Y712706D01*
X1010014Y712723D01*
X1010029Y712740D01*
X1010061Y712766D01*
X1010627Y713332D01*
X1015023Y713332D01*
X1018132Y710223D01*
X1018132Y705827D01*
X1015335Y703030D01*
X1015282Y702956D01*
X1015222Y702886D01*
X1015210Y702856D01*
X1015191Y702830D01*
X1015164Y702743D01*
X1015130Y702658D01*
X1015126Y702617D01*
X1015119Y702595D01*
X1015120Y702563D01*
X1015112Y702492D01*
X1015112Y557983D01*
X1015126Y557893D01*
X1015134Y557802D01*
X1015146Y557773D01*
X1015151Y557741D01*
X1015194Y557660D01*
X1015230Y557576D01*
X1015256Y557544D01*
X1015267Y557523D01*
X1015290Y557501D01*
X1015335Y557445D01*
X1018132Y554648D01*
X1018132Y550252D01*
X1015023Y547143D01*
X1010627Y547143D01*
X1010061Y547709D01*
X1010003Y547751D01*
X1009951Y547800D01*
X1009904Y547822D01*
X1009862Y547852D01*
X1009793Y547874D01*
X1009728Y547904D01*
X1009676Y547909D01*
X1009626Y547925D01*
X1009555Y547923D01*
X1009484Y547931D01*
X1009433Y547920D01*
X1009381Y547918D01*
X1009313Y547894D01*
X1009243Y547879D01*
X1009198Y547852D01*
X1009150Y547834D01*
X1009094Y547789D01*
X1009032Y547752D01*
X1008998Y547713D01*
X1008958Y547680D01*
X1008919Y547620D01*
X1008872Y547565D01*
X1008853Y547517D01*
X1008825Y547473D01*
X1008807Y547404D01*
X1008780Y547337D01*
X1008772Y547266D01*
X1008764Y547235D01*
X1008766Y547212D01*
X1008762Y547171D01*
X1008762Y541954D01*
X1008717Y541902D01*
X1008705Y541872D01*
X1008686Y541846D01*
X1008659Y541759D01*
X1008625Y541674D01*
X1008621Y541633D01*
X1008614Y541611D01*
X1008615Y541579D01*
X1008607Y541507D01*
X1008607Y537552D01*
X1005498Y534443D01*
X1001102Y534443D01*
X997993Y537552D01*
X997993Y541948D01*
X1001102Y545057D01*
X1003427Y545057D01*
X1003447Y545060D01*
X1003466Y545058D01*
X1003568Y545080D01*
X1003670Y545096D01*
X1003687Y545106D01*
X1003707Y545110D01*
X1003796Y545163D01*
X1003887Y545212D01*
X1003901Y545226D01*
X1003918Y545236D01*
X1003985Y545315D01*
X1004057Y545390D01*
X1004065Y545408D01*
X1004078Y545423D01*
X1004117Y545519D01*
X1004160Y545613D01*
X1004162Y545633D01*
X1004170Y545651D01*
X1004188Y545818D01*
X1004188Y607242D01*
X1004174Y607332D01*
X1004166Y607423D01*
X1004154Y607452D01*
X1004149Y607484D01*
X1004106Y607565D01*
X1004070Y607649D01*
X1004044Y607681D01*
X1004033Y607702D01*
X1004010Y607724D01*
X1003965Y607780D01*
X1001168Y610577D01*
X1001168Y614973D01*
X1003965Y617770D01*
X1004018Y617844D01*
X1004078Y617914D01*
X1004090Y617944D01*
X1004109Y617970D01*
X1004136Y618057D01*
X1004170Y618142D01*
X1004174Y618183D01*
X1004181Y618205D01*
X1004180Y618237D01*
X1004188Y618308D01*
X1004188Y728046D01*
X1004233Y728098D01*
X1004245Y728128D01*
X1004264Y728154D01*
X1004291Y728241D01*
X1004325Y728326D01*
X1004329Y728367D01*
X1004336Y728389D01*
X1004335Y728421D01*
X1004343Y728493D01*
X1004343Y732448D01*
X1006917Y735022D01*
X1006929Y735038D01*
X1006945Y735051D01*
X1007001Y735138D01*
X1007061Y735222D01*
X1007067Y735241D01*
X1007078Y735258D01*
X1007103Y735358D01*
X1007133Y735457D01*
X1007133Y735477D01*
X1007138Y735496D01*
X1007130Y735599D01*
X1007127Y735703D01*
X1007120Y735722D01*
X1007118Y735741D01*
X1007078Y735836D01*
X1007042Y735934D01*
X1007030Y735950D01*
X1007022Y735968D01*
X1006917Y736099D01*
X986546Y756470D01*
X986472Y756523D01*
X986402Y756583D01*
X986372Y756595D01*
X986346Y756614D01*
X986259Y756641D01*
X986174Y756675D01*
X986133Y756679D01*
X986111Y756686D01*
X986079Y756685D01*
X986007Y756693D01*
X985103Y756693D01*
X985033Y756682D01*
X984961Y756680D01*
X984912Y756662D01*
X984861Y756654D01*
X984797Y756620D01*
X984730Y756595D01*
X984689Y756563D01*
X984643Y756538D01*
X984594Y756486D01*
X984538Y756442D01*
X984510Y756398D01*
X984474Y756360D01*
X984444Y756295D01*
X984405Y756235D01*
X984392Y756184D01*
X984370Y756137D01*
X984362Y756066D01*
X984345Y755996D01*
X984349Y755944D01*
X984343Y755893D01*
X984358Y755822D01*
X984364Y755751D01*
X984384Y755703D01*
X984395Y755652D01*
X984432Y755591D01*
X984460Y755525D01*
X984505Y755469D01*
X984522Y755441D01*
X984539Y755426D01*
X984565Y755394D01*
X986537Y753422D01*
X986537Y602179D01*
X986548Y602109D01*
X986550Y602037D01*
X986568Y601988D01*
X986576Y601937D01*
X986610Y601873D01*
X986635Y601806D01*
X986667Y601765D01*
X986692Y601719D01*
X986744Y601670D01*
X986788Y601614D01*
X986832Y601586D01*
X986870Y601550D01*
X986935Y601520D01*
X986995Y601481D01*
X987046Y601468D01*
X987093Y601446D01*
X987164Y601438D01*
X987234Y601421D01*
X987286Y601425D01*
X987337Y601419D01*
X987408Y601434D01*
X987479Y601440D01*
X987527Y601460D01*
X987578Y601471D01*
X987639Y601508D01*
X987705Y601536D01*
X987761Y601581D01*
X987789Y601598D01*
X987804Y601615D01*
X987836Y601641D01*
X988402Y602207D01*
X992798Y602207D01*
X995907Y599098D01*
X995907Y594702D01*
X993110Y591905D01*
X993062Y591838D01*
X993059Y591835D01*
X993058Y591833D01*
X993057Y591831D01*
X992997Y591761D01*
X992985Y591731D01*
X992966Y591705D01*
X992939Y591618D01*
X992905Y591533D01*
X992901Y591492D01*
X992894Y591470D01*
X992895Y591438D01*
X992887Y591367D01*
X992887Y577033D01*
X992901Y576943D01*
X992909Y576852D01*
X992921Y576823D01*
X992926Y576791D01*
X992969Y576710D01*
X993005Y576626D01*
X993031Y576594D01*
X993042Y576573D01*
X993065Y576551D01*
X993110Y576495D01*
X995907Y573698D01*
X995907Y569302D01*
X992798Y566193D01*
X988402Y566193D01*
X987836Y566759D01*
X987778Y566801D01*
X987726Y566850D01*
X987679Y566872D01*
X987637Y566902D01*
X987568Y566924D01*
X987503Y566954D01*
X987451Y566959D01*
X987401Y566975D01*
X987330Y566973D01*
X987259Y566981D01*
X987208Y566970D01*
X987156Y566968D01*
X987088Y566944D01*
X987018Y566929D01*
X986973Y566902D01*
X986925Y566884D01*
X986869Y566839D01*
X986807Y566802D01*
X986773Y566763D01*
X986733Y566730D01*
X986694Y566670D01*
X986647Y566615D01*
X986628Y566567D01*
X986600Y566523D01*
X986582Y566454D01*
X986555Y566387D01*
X986547Y566316D01*
X986539Y566285D01*
X986541Y566262D01*
X986537Y566221D01*
X986537Y484828D01*
X985197Y483488D01*
X726258Y483488D01*
X726168Y483474D01*
X726077Y483466D01*
X726048Y483454D01*
X726016Y483449D01*
X725935Y483406D01*
X725851Y483370D01*
X725819Y483344D01*
X725798Y483333D01*
X725776Y483310D01*
X725720Y483265D01*
X722923Y480468D01*
X718527Y480468D01*
X715418Y483577D01*
X715418Y487973D01*
X718527Y491082D01*
X722923Y491082D01*
X725720Y488285D01*
X725794Y488232D01*
X725864Y488172D01*
X725894Y488160D01*
X725920Y488141D01*
X726007Y488114D01*
X726092Y488080D01*
X726133Y488076D01*
X726155Y488069D01*
X726187Y488070D01*
X726258Y488062D01*
X728146Y488062D01*
X728216Y488073D01*
X728288Y488075D01*
X728337Y488093D01*
X728388Y488101D01*
X728452Y488135D01*
X728519Y488160D01*
X728560Y488192D01*
X728606Y488217D01*
X728655Y488269D01*
X728711Y488313D01*
X728739Y488357D01*
X728775Y488395D01*
X728805Y488460D01*
X728844Y488520D01*
X728857Y488571D01*
X728879Y488618D01*
X728887Y488689D01*
X728904Y488759D01*
X728900Y488811D01*
X728906Y488862D01*
X728891Y488933D01*
X728885Y489004D01*
X728865Y489052D01*
X728854Y489103D01*
X728817Y489164D01*
X728789Y489230D01*
X728744Y489286D01*
X728727Y489314D01*
X728710Y489329D01*
X728684Y489361D01*
X728118Y489927D01*
X728118Y494323D01*
X730915Y497120D01*
X730968Y497194D01*
X731028Y497264D01*
X731040Y497294D01*
X731059Y497320D01*
X731086Y497407D01*
X731120Y497492D01*
X731124Y497533D01*
X731131Y497555D01*
X731130Y497587D01*
X731138Y497658D01*
X731138Y528962D01*
X731124Y529053D01*
X731116Y529143D01*
X731104Y529173D01*
X731099Y529205D01*
X731056Y529286D01*
X731020Y529370D01*
X730994Y529402D01*
X730983Y529423D01*
X730960Y529445D01*
X730940Y529469D01*
X730937Y529475D01*
X730933Y529479D01*
X730915Y529501D01*
X713496Y546920D01*
X713422Y546973D01*
X713352Y547033D01*
X713322Y547045D01*
X713296Y547064D01*
X713209Y547091D01*
X713124Y547125D01*
X713083Y547129D01*
X713061Y547136D01*
X713029Y547135D01*
X712957Y547143D01*
X709002Y547143D01*
X706976Y549169D01*
X706960Y549181D01*
X706947Y549197D01*
X706860Y549253D01*
X706776Y549313D01*
X706757Y549319D01*
X706740Y549330D01*
X706640Y549355D01*
X706541Y549385D01*
X706521Y549385D01*
X706502Y549390D01*
X706399Y549382D01*
X706295Y549379D01*
X706276Y549372D01*
X706256Y549370D01*
X706162Y549330D01*
X706064Y549294D01*
X706048Y549282D01*
X706030Y549274D01*
X705899Y549169D01*
X703873Y547143D01*
X699918Y547143D01*
X699827Y547129D01*
X699737Y547121D01*
X699707Y547109D01*
X699675Y547104D01*
X699594Y547061D01*
X699510Y547025D01*
X699478Y546999D01*
X699457Y546988D01*
X699435Y546965D01*
X699379Y546920D01*
X690120Y537661D01*
X690109Y537645D01*
X690093Y537633D01*
X690037Y537545D01*
X689977Y537462D01*
X689971Y537443D01*
X689960Y537426D01*
X689935Y537325D01*
X689904Y537226D01*
X689905Y537207D01*
X689900Y537187D01*
X689908Y537084D01*
X689911Y536981D01*
X689918Y536962D01*
X689919Y536942D01*
X689959Y536847D01*
X689995Y536750D01*
X690008Y536734D01*
X690015Y536716D01*
X690120Y536585D01*
X691107Y535598D01*
X691107Y531202D01*
X688310Y528405D01*
X688257Y528331D01*
X688197Y528261D01*
X688185Y528231D01*
X688166Y528205D01*
X688139Y528118D01*
X688105Y528033D01*
X688101Y527992D01*
X688094Y527970D01*
X688095Y527938D01*
X688087Y527867D01*
X688087Y484828D01*
X678630Y475371D01*
X678577Y475297D01*
X678517Y475227D01*
X678505Y475197D01*
X678486Y475171D01*
X678459Y475084D01*
X678425Y474999D01*
X678421Y474958D01*
X678414Y474936D01*
X678415Y474904D01*
X678407Y474832D01*
X678407Y470877D01*
X675298Y467768D01*
X670902Y467768D01*
X670336Y468334D01*
X670278Y468376D01*
X670226Y468425D01*
X670179Y468447D01*
X670137Y468477D01*
X670068Y468499D01*
X670003Y468529D01*
X669951Y468534D01*
X669901Y468550D01*
X669830Y468548D01*
X669759Y468556D01*
X669708Y468545D01*
X669656Y468543D01*
X669588Y468519D01*
X669518Y468504D01*
X669473Y468477D01*
X669425Y468459D01*
X669369Y468414D01*
X669307Y468377D01*
X669273Y468338D01*
X669233Y468305D01*
X669194Y468245D01*
X669147Y468190D01*
X669128Y468142D01*
X669100Y468098D01*
X669082Y468029D01*
X669055Y467962D01*
X669047Y467891D01*
X669039Y467860D01*
X669041Y467837D01*
X669037Y467796D01*
X669037Y463268D01*
X669040Y463248D01*
X669038Y463229D01*
X669060Y463127D01*
X669076Y463025D01*
X669086Y463008D01*
X669090Y462988D01*
X669143Y462899D01*
X669192Y462808D01*
X669206Y462794D01*
X669216Y462777D01*
X669295Y462710D01*
X669370Y462638D01*
X669388Y462630D01*
X669403Y462617D01*
X669499Y462578D01*
X669593Y462535D01*
X669613Y462533D01*
X669631Y462525D01*
X669798Y462507D01*
X672123Y462507D01*
X675232Y459398D01*
X675232Y455002D01*
X672123Y451893D01*
X667727Y451893D01*
X664618Y455002D01*
X664618Y458957D01*
X664616Y458974D01*
X664617Y458989D01*
X664603Y459055D01*
X664596Y459138D01*
X664584Y459168D01*
X664579Y459200D01*
X664566Y459223D01*
X664565Y459229D01*
X664549Y459256D01*
X664536Y459281D01*
X664500Y459365D01*
X664474Y459397D01*
X664463Y459418D01*
X664463Y531042D01*
X664449Y531132D01*
X664441Y531223D01*
X664429Y531252D01*
X664424Y531284D01*
X664381Y531365D01*
X664345Y531449D01*
X664319Y531481D01*
X664308Y531502D01*
X664285Y531524D01*
X664240Y531580D01*
X661443Y534377D01*
X661443Y538773D01*
X664552Y541882D01*
X668507Y541882D01*
X668598Y541896D01*
X668688Y541904D01*
X668718Y541916D01*
X668750Y541921D01*
X668831Y541964D01*
X668915Y542000D01*
X668947Y542026D01*
X668968Y542037D01*
X668990Y542060D01*
X669046Y542105D01*
X689795Y562854D01*
X689848Y562928D01*
X689908Y562998D01*
X689920Y563028D01*
X689939Y563054D01*
X689966Y563141D01*
X690000Y563226D01*
X690004Y563267D01*
X690011Y563289D01*
X690010Y563321D01*
X690018Y563393D01*
X690018Y567348D01*
X693127Y570457D01*
X697523Y570457D01*
X700632Y567348D01*
X700632Y562952D01*
X697523Y559843D01*
X693568Y559843D01*
X693477Y559829D01*
X693387Y559821D01*
X693357Y559809D01*
X693325Y559804D01*
X693244Y559761D01*
X693160Y559725D01*
X693128Y559699D01*
X693107Y559688D01*
X693085Y559665D01*
X693029Y559620D01*
X672280Y538871D01*
X672227Y538797D01*
X672167Y538727D01*
X672155Y538697D01*
X672136Y538671D01*
X672109Y538584D01*
X672075Y538499D01*
X672071Y538458D01*
X672064Y538436D01*
X672065Y538404D01*
X672057Y538332D01*
X672057Y534377D01*
X669260Y531580D01*
X669207Y531506D01*
X669147Y531436D01*
X669135Y531406D01*
X669116Y531380D01*
X669089Y531293D01*
X669055Y531208D01*
X669051Y531167D01*
X669044Y531145D01*
X669045Y531113D01*
X669037Y531042D01*
X669037Y478354D01*
X669048Y478284D01*
X669050Y478212D01*
X669068Y478163D01*
X669076Y478112D01*
X669110Y478048D01*
X669135Y477981D01*
X669167Y477940D01*
X669192Y477894D01*
X669244Y477845D01*
X669288Y477789D01*
X669332Y477761D01*
X669370Y477725D01*
X669435Y477695D01*
X669495Y477656D01*
X669546Y477643D01*
X669593Y477621D01*
X669664Y477613D01*
X669734Y477596D01*
X669786Y477600D01*
X669837Y477594D01*
X669908Y477609D01*
X669979Y477615D01*
X670027Y477635D01*
X670078Y477646D01*
X670139Y477683D01*
X670205Y477711D01*
X670261Y477756D01*
X670289Y477773D01*
X670304Y477790D01*
X670336Y477816D01*
X670902Y478382D01*
X674857Y478382D01*
X674948Y478396D01*
X675038Y478404D01*
X675068Y478416D01*
X675100Y478421D01*
X675181Y478464D01*
X675265Y478500D01*
X675297Y478526D01*
X675318Y478537D01*
X675340Y478560D01*
X675396Y478605D01*
X683290Y486499D01*
X683343Y486573D01*
X683403Y486643D01*
X683415Y486673D01*
X683434Y486699D01*
X683461Y486786D01*
X683495Y486871D01*
X683499Y486912D01*
X683506Y486934D01*
X683505Y486966D01*
X683513Y487038D01*
X683513Y527867D01*
X683499Y527957D01*
X683491Y528048D01*
X683479Y528077D01*
X683474Y528109D01*
X683431Y528190D01*
X683395Y528274D01*
X683369Y528306D01*
X683358Y528327D01*
X683335Y528349D01*
X683290Y528405D01*
X680493Y531202D01*
X680493Y535598D01*
X683602Y538707D01*
X684382Y538707D01*
X684473Y538721D01*
X684563Y538729D01*
X684593Y538741D01*
X684625Y538746D01*
X684706Y538789D01*
X684790Y538825D01*
X684822Y538851D01*
X684843Y538862D01*
X684865Y538885D01*
X684921Y538930D01*
X696145Y550154D01*
X696198Y550228D01*
X696258Y550298D01*
X696270Y550328D01*
X696289Y550354D01*
X696316Y550441D01*
X696350Y550526D01*
X696354Y550567D01*
X696361Y550589D01*
X696360Y550621D01*
X696368Y550693D01*
X696368Y554648D01*
X699477Y557757D01*
X703873Y557757D01*
X705899Y555731D01*
X705915Y555719D01*
X705928Y555703D01*
X706015Y555647D01*
X706099Y555587D01*
X706118Y555581D01*
X706135Y555570D01*
X706235Y555545D01*
X706334Y555515D01*
X706354Y555515D01*
X706373Y555510D01*
X706476Y555518D01*
X706580Y555521D01*
X706599Y555528D01*
X706618Y555530D01*
X706713Y555570D01*
X706811Y555606D01*
X706827Y555618D01*
X706845Y555626D01*
X706976Y555731D01*
X709002Y557757D01*
X713398Y557757D01*
X716507Y554648D01*
X716507Y550693D01*
X716521Y550602D01*
X716529Y550512D01*
X716541Y550482D01*
X716546Y550450D01*
X716589Y550369D01*
X716625Y550285D01*
X716651Y550253D01*
X716662Y550232D01*
X716685Y550210D01*
X716730Y550154D01*
X735712Y531172D01*
X735712Y497658D01*
X735726Y497568D01*
X735734Y497477D01*
X735746Y497448D01*
X735751Y497416D01*
X735794Y497335D01*
X735830Y497251D01*
X735856Y497219D01*
X735867Y497198D01*
X735890Y497176D01*
X735935Y497120D01*
X738732Y494323D01*
X738732Y489927D01*
X738166Y489361D01*
X738124Y489303D01*
X738075Y489251D01*
X738053Y489204D01*
X738023Y489162D01*
X738001Y489093D01*
X737971Y489028D01*
X737966Y488976D01*
X737950Y488926D01*
X737952Y488855D01*
X737944Y488784D01*
X737955Y488733D01*
X737957Y488681D01*
X737981Y488613D01*
X737996Y488543D01*
X738023Y488498D01*
X738041Y488450D01*
X738086Y488394D01*
X738123Y488332D01*
X738162Y488298D01*
X738195Y488258D01*
X738255Y488219D01*
X738310Y488172D01*
X738358Y488153D01*
X738402Y488125D01*
X738471Y488107D01*
X738538Y488080D01*
X738609Y488072D01*
X738640Y488064D01*
X738663Y488066D01*
X738704Y488062D01*
X981202Y488062D01*
X981222Y488065D01*
X981241Y488063D01*
X981343Y488085D01*
X981445Y488101D01*
X981462Y488111D01*
X981482Y488115D01*
X981571Y488168D01*
X981662Y488217D01*
X981676Y488231D01*
X981693Y488241D01*
X981760Y488320D01*
X981832Y488395D01*
X981840Y488413D01*
X981853Y488428D01*
X981892Y488524D01*
X981935Y488618D01*
X981937Y488638D01*
X981945Y488656D01*
X981963Y488823D01*
X981963Y502721D01*
X981952Y502791D01*
X981950Y502863D01*
X981932Y502912D01*
X981924Y502963D01*
X981890Y503027D01*
X981865Y503094D01*
X981833Y503135D01*
X981808Y503181D01*
X981756Y503230D01*
X981712Y503286D01*
X981668Y503314D01*
X981630Y503350D01*
X981565Y503380D01*
X981505Y503419D01*
X981454Y503432D01*
X981407Y503454D01*
X981336Y503462D01*
X981266Y503479D01*
X981214Y503475D01*
X981163Y503481D01*
X981092Y503466D01*
X981021Y503460D01*
X980973Y503440D01*
X980922Y503429D01*
X980861Y503392D01*
X980795Y503364D01*
X980739Y503319D01*
X980711Y503302D01*
X980696Y503285D01*
X980664Y503259D01*
X980098Y502693D01*
X975702Y502693D01*
X972905Y505490D01*
X972831Y505543D01*
X972761Y505603D01*
X972731Y505615D01*
X972705Y505634D01*
X972618Y505661D01*
X972533Y505695D01*
X972492Y505699D01*
X972470Y505706D01*
X972438Y505705D01*
X972367Y505713D01*
X970733Y505713D01*
X970643Y505699D01*
X970552Y505691D01*
X970523Y505679D01*
X970491Y505674D01*
X970410Y505631D01*
X970326Y505595D01*
X970294Y505569D01*
X970273Y505558D01*
X970251Y505535D01*
X970195Y505490D01*
X967398Y502693D01*
X963002Y502693D01*
X959893Y505802D01*
X959893Y510198D01*
X963002Y513307D01*
X967398Y513307D01*
X970195Y510510D01*
X970269Y510457D01*
X970339Y510397D01*
X970369Y510385D01*
X970395Y510366D01*
X970482Y510339D01*
X970567Y510305D01*
X970608Y510301D01*
X970630Y510294D01*
X970662Y510295D01*
X970733Y510287D01*
X972367Y510287D01*
X972457Y510301D01*
X972548Y510309D01*
X972577Y510321D01*
X972609Y510326D01*
X972690Y510369D01*
X972774Y510405D01*
X972806Y510431D01*
X972827Y510442D01*
X972849Y510465D01*
X972905Y510510D01*
X975702Y513307D01*
X980098Y513307D01*
X980664Y512741D01*
X980722Y512699D01*
X980774Y512650D01*
X980821Y512628D01*
X980863Y512598D01*
X980932Y512576D01*
X980997Y512546D01*
X981049Y512541D01*
X981099Y512525D01*
X981170Y512527D01*
X981241Y512519D01*
X981292Y512530D01*
X981344Y512532D01*
X981412Y512556D01*
X981482Y512571D01*
X981527Y512598D01*
X981575Y512616D01*
X981631Y512661D01*
X981693Y512698D01*
X981727Y512737D01*
X981767Y512770D01*
X981806Y512830D01*
X981853Y512885D01*
X981872Y512933D01*
X981900Y512977D01*
X981918Y513046D01*
X981945Y513113D01*
X981953Y513184D01*
X981961Y513215D01*
X981959Y513238D01*
X981963Y513279D01*
X981963Y540821D01*
X981952Y540891D01*
X981950Y540963D01*
X981932Y541012D01*
X981924Y541063D01*
X981890Y541127D01*
X981865Y541194D01*
X981833Y541235D01*
X981808Y541281D01*
X981756Y541330D01*
X981712Y541386D01*
X981668Y541414D01*
X981630Y541450D01*
X981565Y541480D01*
X981505Y541519D01*
X981454Y541532D01*
X981407Y541554D01*
X981336Y541562D01*
X981266Y541579D01*
X981214Y541575D01*
X981163Y541581D01*
X981092Y541566D01*
X981021Y541560D01*
X980973Y541540D01*
X980922Y541529D01*
X980861Y541492D01*
X980795Y541464D01*
X980739Y541419D01*
X980711Y541402D01*
X980696Y541385D01*
X980664Y541359D01*
X980098Y540793D01*
X975702Y540793D01*
X972593Y543902D01*
X972593Y547857D01*
X972579Y547948D01*
X972571Y548038D01*
X972559Y548068D01*
X972554Y548100D01*
X972511Y548181D01*
X972475Y548265D01*
X972449Y548297D01*
X972438Y548318D01*
X972438Y629467D01*
X972433Y629498D01*
X972434Y629509D01*
X972423Y629560D01*
X972416Y629647D01*
X972404Y629677D01*
X972399Y629709D01*
X972385Y629734D01*
X972382Y629749D01*
X972351Y629801D01*
X972320Y629874D01*
X972294Y629906D01*
X972283Y629927D01*
X972266Y629943D01*
X972256Y629960D01*
X972240Y629974D01*
X972215Y630005D01*
X971961Y630259D01*
X971903Y630301D01*
X971851Y630350D01*
X971804Y630372D01*
X971762Y630402D01*
X971693Y630424D01*
X971628Y630454D01*
X971576Y630459D01*
X971526Y630475D01*
X971455Y630473D01*
X971384Y630481D01*
X971333Y630470D01*
X971281Y630468D01*
X971213Y630444D01*
X971143Y630429D01*
X971098Y630402D01*
X971050Y630384D01*
X970994Y630339D01*
X970932Y630302D01*
X970898Y630263D01*
X970858Y630230D01*
X970819Y630170D01*
X970772Y630115D01*
X970753Y630067D01*
X970725Y630023D01*
X970707Y629954D01*
X970680Y629887D01*
X970672Y629816D01*
X970664Y629785D01*
X970666Y629762D01*
X970662Y629721D01*
X970662Y624528D01*
X969099Y622965D01*
X946465Y600331D01*
X946423Y600273D01*
X946374Y600221D01*
X946352Y600174D01*
X946322Y600132D01*
X946301Y600063D01*
X946270Y599998D01*
X946265Y599946D01*
X946249Y599896D01*
X946251Y599825D01*
X946243Y599754D01*
X946254Y599703D01*
X946256Y599651D01*
X946280Y599583D01*
X946295Y599513D01*
X946322Y599468D01*
X946340Y599420D01*
X946385Y599364D01*
X946422Y599302D01*
X946461Y599268D01*
X946494Y599228D01*
X946554Y599189D01*
X946609Y599142D01*
X946657Y599123D01*
X946701Y599095D01*
X946770Y599077D01*
X946837Y599050D01*
X946908Y599042D01*
X946939Y599034D01*
X946963Y599036D01*
X947003Y599032D01*
X948348Y599032D01*
X951457Y595923D01*
X951457Y591527D01*
X948660Y588730D01*
X948607Y588656D01*
X948547Y588586D01*
X948535Y588556D01*
X948516Y588530D01*
X948489Y588443D01*
X948455Y588358D01*
X948451Y588317D01*
X948444Y588295D01*
X948445Y588263D01*
X948437Y588192D01*
X948437Y534663D01*
X948451Y534572D01*
X948459Y534482D01*
X948471Y534452D01*
X948476Y534420D01*
X948519Y534339D01*
X948555Y534255D01*
X948581Y534223D01*
X948592Y534202D01*
X948615Y534180D01*
X948660Y534124D01*
X953379Y529405D01*
X953453Y529352D01*
X953523Y529292D01*
X953553Y529280D01*
X953579Y529261D01*
X953666Y529234D01*
X953751Y529200D01*
X953792Y529196D01*
X953814Y529189D01*
X953846Y529190D01*
X953918Y529182D01*
X957873Y529182D01*
X960982Y526073D01*
X960982Y521677D01*
X957873Y518568D01*
X953477Y518568D01*
X950368Y521677D01*
X950368Y525632D01*
X950354Y525723D01*
X950346Y525813D01*
X950334Y525843D01*
X950329Y525875D01*
X950286Y525956D01*
X950250Y526040D01*
X950224Y526072D01*
X950213Y526093D01*
X950190Y526115D01*
X950145Y526171D01*
X943863Y532453D01*
X943863Y588192D01*
X943849Y588282D01*
X943841Y588373D01*
X943829Y588402D01*
X943824Y588434D01*
X943781Y588515D01*
X943745Y588599D01*
X943719Y588631D01*
X943708Y588652D01*
X943685Y588674D01*
X943640Y588730D01*
X940843Y591527D01*
X940843Y592872D01*
X940832Y592942D01*
X940830Y593014D01*
X940812Y593063D01*
X940804Y593114D01*
X940770Y593178D01*
X940745Y593245D01*
X940713Y593286D01*
X940688Y593332D01*
X940637Y593381D01*
X940592Y593437D01*
X940548Y593465D01*
X940510Y593501D01*
X940445Y593531D01*
X940385Y593570D01*
X940334Y593583D01*
X940287Y593605D01*
X940216Y593613D01*
X940146Y593630D01*
X940094Y593626D01*
X940043Y593632D01*
X939972Y593617D01*
X939901Y593611D01*
X939853Y593591D01*
X939802Y593580D01*
X939741Y593543D01*
X939675Y593515D01*
X939619Y593470D01*
X939591Y593453D01*
X939576Y593436D01*
X939544Y593410D01*
X916755Y570621D01*
X916711Y570561D01*
X916673Y570520D01*
X916666Y570506D01*
X916642Y570477D01*
X916630Y570447D01*
X916611Y570421D01*
X916584Y570334D01*
X916570Y570299D01*
X916569Y570297D01*
X916550Y570249D01*
X916546Y570208D01*
X916539Y570186D01*
X916540Y570154D01*
X916532Y570083D01*
X916532Y566127D01*
X913423Y563018D01*
X912078Y563018D01*
X912008Y563007D01*
X911936Y563005D01*
X911887Y562987D01*
X911836Y562979D01*
X911772Y562945D01*
X911705Y562920D01*
X911664Y562888D01*
X911618Y562863D01*
X911569Y562811D01*
X911513Y562767D01*
X911485Y562723D01*
X911449Y562685D01*
X911419Y562620D01*
X911380Y562560D01*
X911367Y562509D01*
X911345Y562462D01*
X911337Y562391D01*
X911320Y562321D01*
X911324Y562269D01*
X911318Y562218D01*
X911333Y562147D01*
X911339Y562076D01*
X911359Y562028D01*
X911370Y561977D01*
X911407Y561916D01*
X911435Y561850D01*
X911480Y561794D01*
X911497Y561766D01*
X911514Y561751D01*
X911540Y561719D01*
X921629Y551630D01*
X921703Y551577D01*
X921773Y551517D01*
X921803Y551505D01*
X921829Y551486D01*
X921916Y551459D01*
X922001Y551425D01*
X922042Y551421D01*
X922064Y551414D01*
X922096Y551415D01*
X922168Y551407D01*
X926123Y551407D01*
X929232Y548298D01*
X929232Y543902D01*
X927206Y541876D01*
X927194Y541860D01*
X927178Y541847D01*
X927122Y541760D01*
X927062Y541676D01*
X927056Y541657D01*
X927045Y541640D01*
X927020Y541540D01*
X926990Y541441D01*
X926990Y541421D01*
X926985Y541402D01*
X926993Y541299D01*
X926996Y541195D01*
X927003Y541176D01*
X927005Y541156D01*
X927045Y541062D01*
X927081Y540964D01*
X927093Y540948D01*
X927101Y540930D01*
X927206Y540799D01*
X929232Y538773D01*
X929232Y534377D01*
X926123Y531268D01*
X921727Y531268D01*
X918618Y534377D01*
X918618Y538333D01*
X918604Y538423D01*
X918596Y538514D01*
X918584Y538543D01*
X918579Y538575D01*
X918536Y538656D01*
X918500Y538740D01*
X918474Y538772D01*
X918463Y538793D01*
X918440Y538815D01*
X918395Y538871D01*
X803813Y653453D01*
X803797Y653464D01*
X803785Y653480D01*
X803697Y653536D01*
X803614Y653596D01*
X803595Y653602D01*
X803578Y653613D01*
X803477Y653638D01*
X803378Y653669D01*
X803359Y653668D01*
X803339Y653673D01*
X803236Y653665D01*
X803133Y653662D01*
X803114Y653655D01*
X803094Y653654D01*
X802999Y653613D01*
X802902Y653578D01*
X802886Y653565D01*
X802868Y653558D01*
X802737Y653453D01*
X773880Y624596D01*
X773827Y624522D01*
X773767Y624452D01*
X773755Y624422D01*
X773736Y624396D01*
X773709Y624309D01*
X773675Y624224D01*
X773671Y624183D01*
X773664Y624161D01*
X773665Y624129D01*
X773657Y624058D01*
X773657Y620102D01*
X770548Y616993D01*
X766152Y616993D01*
X763355Y619790D01*
X763281Y619843D01*
X763211Y619903D01*
X763181Y619915D01*
X763155Y619934D01*
X763068Y619961D01*
X762983Y619995D01*
X762942Y619999D01*
X762920Y620006D01*
X762888Y620005D01*
X762817Y620013D01*
X750308Y620013D01*
X750238Y620002D01*
X750166Y620000D01*
X750117Y619982D01*
X750066Y619974D01*
X750002Y619940D01*
X749935Y619915D01*
X749894Y619883D01*
X749848Y619858D01*
X749799Y619806D01*
X749743Y619762D01*
X749715Y619718D01*
X749679Y619680D01*
X749649Y619615D01*
X749610Y619555D01*
X749597Y619504D01*
X749575Y619457D01*
X749567Y619386D01*
X749550Y619316D01*
X749554Y619264D01*
X749548Y619213D01*
X749563Y619142D01*
X749569Y619071D01*
X749589Y619023D01*
X749600Y618972D01*
X749637Y618911D01*
X749665Y618845D01*
X749710Y618789D01*
X749727Y618761D01*
X749744Y618746D01*
X749770Y618714D01*
X753199Y615285D01*
X753273Y615232D01*
X753343Y615172D01*
X753373Y615160D01*
X753399Y615141D01*
X753486Y615114D01*
X753571Y615080D01*
X753612Y615076D01*
X753634Y615069D01*
X753666Y615070D01*
X753738Y615062D01*
X776612Y615062D01*
X776703Y615076D01*
X776793Y615084D01*
X776823Y615096D01*
X776855Y615101D01*
X776936Y615144D01*
X777020Y615180D01*
X777052Y615206D01*
X777073Y615217D01*
X777095Y615240D01*
X777151Y615285D01*
X781870Y620004D01*
X781923Y620078D01*
X781983Y620148D01*
X781995Y620178D01*
X782014Y620204D01*
X782041Y620291D01*
X782075Y620376D01*
X782079Y620417D01*
X782086Y620439D01*
X782085Y620471D01*
X782093Y620543D01*
X782093Y624498D01*
X785202Y627607D01*
X789598Y627607D01*
X792707Y624498D01*
X792707Y620102D01*
X789598Y616993D01*
X785643Y616993D01*
X785552Y616979D01*
X785462Y616971D01*
X785432Y616959D01*
X785400Y616954D01*
X785319Y616911D01*
X785235Y616875D01*
X785203Y616849D01*
X785182Y616838D01*
X785160Y616815D01*
X785104Y616770D01*
X778822Y610488D01*
X751528Y610488D01*
X726351Y635665D01*
X726277Y635718D01*
X726207Y635778D01*
X726177Y635790D01*
X726151Y635809D01*
X726064Y635836D01*
X725979Y635870D01*
X725938Y635874D01*
X725916Y635881D01*
X725884Y635880D01*
X725812Y635888D01*
X719778Y635888D01*
X680536Y675130D01*
X680520Y675141D01*
X680508Y675157D01*
X680420Y675213D01*
X680336Y675273D01*
X680318Y675279D01*
X680301Y675290D01*
X680200Y675315D01*
X680101Y675346D01*
X680081Y675345D01*
X680062Y675350D01*
X679959Y675342D01*
X679856Y675339D01*
X679837Y675332D01*
X679817Y675331D01*
X679722Y675291D01*
X679625Y675255D01*
X679609Y675242D01*
X679591Y675235D01*
X679460Y675130D01*
X678473Y674143D01*
X677128Y674143D01*
X677058Y674132D01*
X676986Y674130D01*
X676937Y674112D01*
X676886Y674104D01*
X676822Y674070D01*
X676755Y674045D01*
X676714Y674013D01*
X676668Y673988D01*
X676619Y673936D01*
X676563Y673892D01*
X676535Y673848D01*
X676499Y673810D01*
X676469Y673745D01*
X676430Y673685D01*
X676417Y673634D01*
X676395Y673587D01*
X676387Y673516D01*
X676370Y673446D01*
X676374Y673394D01*
X676368Y673343D01*
X676383Y673272D01*
X676389Y673201D01*
X676409Y673153D01*
X676420Y673102D01*
X676457Y673041D01*
X676485Y672975D01*
X676530Y672919D01*
X676547Y672891D01*
X676564Y672876D01*
X676590Y672844D01*
X755112Y594322D01*
X755128Y594311D01*
X755140Y594295D01*
X755228Y594239D01*
X755311Y594179D01*
X755330Y594173D01*
X755347Y594162D01*
X755448Y594137D01*
X755547Y594106D01*
X755566Y594107D01*
X755586Y594102D01*
X755689Y594110D01*
X755792Y594113D01*
X755811Y594120D01*
X755831Y594121D01*
X755926Y594162D01*
X756023Y594197D01*
X756039Y594210D01*
X756057Y594217D01*
X756188Y594322D01*
X762820Y600954D01*
X762873Y601028D01*
X762933Y601098D01*
X762945Y601128D01*
X762964Y601154D01*
X762991Y601241D01*
X763025Y601326D01*
X763029Y601367D01*
X763036Y601389D01*
X763035Y601421D01*
X763043Y601492D01*
X763043Y605448D01*
X766152Y608557D01*
X770548Y608557D01*
X773657Y605448D01*
X773657Y601052D01*
X770548Y597943D01*
X766592Y597943D01*
X766502Y597929D01*
X766411Y597921D01*
X766382Y597909D01*
X766350Y597904D01*
X766269Y597861D01*
X766185Y597825D01*
X766153Y597799D01*
X766132Y597788D01*
X766110Y597765D01*
X766054Y597720D01*
X758160Y589826D01*
X756374Y588040D01*
X735780Y567446D01*
X735727Y567372D01*
X735667Y567302D01*
X735655Y567272D01*
X735636Y567246D01*
X735609Y567159D01*
X735575Y567074D01*
X735571Y567033D01*
X735564Y567011D01*
X735565Y566979D01*
X735557Y566908D01*
X735557Y562952D01*
X732448Y559843D01*
X728052Y559843D01*
X724943Y562952D01*
X724943Y567348D01*
X728052Y570457D01*
X732008Y570457D01*
X732098Y570471D01*
X732189Y570479D01*
X732218Y570491D01*
X732250Y570496D01*
X732331Y570539D01*
X732415Y570575D01*
X732447Y570601D01*
X732468Y570612D01*
X732490Y570635D01*
X732546Y570680D01*
X751878Y590012D01*
X751889Y590028D01*
X751905Y590040D01*
X751961Y590128D01*
X752021Y590211D01*
X752027Y590230D01*
X752038Y590247D01*
X752063Y590348D01*
X752094Y590447D01*
X752093Y590466D01*
X752098Y590486D01*
X752090Y590589D01*
X752087Y590692D01*
X752080Y590711D01*
X752079Y590731D01*
X752039Y590826D01*
X752003Y590923D01*
X751990Y590939D01*
X751983Y590957D01*
X751878Y591088D01*
X654306Y688660D01*
X654248Y688702D01*
X654196Y688751D01*
X654149Y688773D01*
X654107Y688803D01*
X654038Y688824D01*
X653973Y688855D01*
X653921Y688860D01*
X653871Y688876D01*
X653800Y688874D01*
X653729Y688882D01*
X653678Y688871D01*
X653626Y688869D01*
X653558Y688845D01*
X653488Y688830D01*
X653444Y688803D01*
X653395Y688785D01*
X653339Y688740D01*
X653277Y688703D01*
X653243Y688664D01*
X653203Y688631D01*
X653164Y688571D01*
X653117Y688516D01*
X653098Y688468D01*
X653070Y688424D01*
X653052Y688355D01*
X653025Y688288D01*
X653017Y688217D01*
X653009Y688186D01*
X653011Y688162D01*
X653007Y688122D01*
X653007Y683602D01*
X649898Y680493D01*
X645502Y680493D01*
X642393Y683602D01*
X642393Y687998D01*
X645190Y690795D01*
X645243Y690869D01*
X645303Y690939D01*
X645315Y690969D01*
X645334Y690995D01*
X645361Y691082D01*
X645395Y691167D01*
X645399Y691208D01*
X645406Y691230D01*
X645405Y691262D01*
X645413Y691333D01*
X645413Y692927D01*
X645399Y693017D01*
X645391Y693108D01*
X645379Y693138D01*
X645374Y693170D01*
X645331Y693250D01*
X645295Y693334D01*
X645269Y693366D01*
X645258Y693387D01*
X645235Y693409D01*
X645190Y693465D01*
X628053Y710603D01*
X626490Y712165D01*
X626490Y716160D01*
X626476Y716251D01*
X626468Y716341D01*
X626456Y716371D01*
X626451Y716403D01*
X626408Y716484D01*
X626372Y716568D01*
X626346Y716600D01*
X626335Y716621D01*
X626312Y716643D01*
X626267Y716699D01*
X624596Y718370D01*
X624522Y718423D01*
X624452Y718483D01*
X624422Y718495D01*
X624396Y718514D01*
X624309Y718541D01*
X624224Y718575D01*
X624183Y718579D01*
X624161Y718586D01*
X624129Y718585D01*
X624057Y718593D01*
X620102Y718593D01*
X616993Y721702D01*
X616993Y726098D01*
X620102Y729207D01*
X624498Y729207D01*
X627607Y726098D01*
X627607Y722143D01*
X627621Y722053D01*
X627629Y721962D01*
X627641Y721932D01*
X627646Y721900D01*
X627689Y721819D01*
X627725Y721735D01*
X627751Y721703D01*
X627762Y721682D01*
X627785Y721660D01*
X627830Y721604D01*
X628239Y721195D01*
X628297Y721153D01*
X628349Y721104D01*
X628396Y721082D01*
X628438Y721052D01*
X628507Y721031D01*
X628572Y721000D01*
X628624Y720995D01*
X628674Y720979D01*
X628745Y720981D01*
X628816Y720973D01*
X628867Y720984D01*
X628919Y720986D01*
X628987Y721010D01*
X629057Y721025D01*
X629102Y721052D01*
X629150Y721070D01*
X629206Y721115D01*
X629268Y721152D01*
X629302Y721191D01*
X629342Y721224D01*
X629381Y721284D01*
X629428Y721339D01*
X629447Y721387D01*
X629475Y721431D01*
X629493Y721500D01*
X629520Y721567D01*
X629528Y721638D01*
X629536Y721669D01*
X629534Y721693D01*
X629538Y721733D01*
X629538Y802012D01*
X629524Y802103D01*
X629516Y802193D01*
X629504Y802223D01*
X629499Y802255D01*
X629456Y802336D01*
X629420Y802420D01*
X629394Y802452D01*
X629383Y802473D01*
X629360Y802495D01*
X629315Y802551D01*
X618246Y813620D01*
X618172Y813673D01*
X618102Y813733D01*
X618072Y813745D01*
X618046Y813764D01*
X617959Y813791D01*
X617874Y813825D01*
X617833Y813829D01*
X617811Y813836D01*
X617779Y813835D01*
X617708Y813843D01*
X613752Y813843D01*
X610643Y816952D01*
X610643Y821348D01*
X613752Y824457D01*
X618148Y824457D01*
X621257Y821348D01*
X621257Y817392D01*
X621271Y817302D01*
X621279Y817211D01*
X621291Y817182D01*
X621296Y817150D01*
X621339Y817069D01*
X621375Y816985D01*
X621401Y816953D01*
X621412Y816932D01*
X621435Y816910D01*
X621480Y816854D01*
X631414Y806920D01*
X631472Y806878D01*
X631524Y806829D01*
X631571Y806807D01*
X631613Y806777D01*
X631682Y806756D01*
X631747Y806725D01*
X631799Y806720D01*
X631849Y806704D01*
X631920Y806706D01*
X631991Y806698D01*
X632042Y806709D01*
X632094Y806711D01*
X632162Y806735D01*
X632232Y806750D01*
X632276Y806777D01*
X632325Y806795D01*
X632381Y806840D01*
X632443Y806877D01*
X632477Y806916D01*
X632517Y806949D01*
X632556Y807009D01*
X632603Y807064D01*
X632622Y807112D01*
X632650Y807156D01*
X632668Y807225D01*
X632695Y807292D01*
X632703Y807363D01*
X632711Y807394D01*
X632709Y807418D01*
X632713Y807458D01*
X632713Y835842D01*
X632699Y835932D01*
X632691Y836023D01*
X632679Y836052D01*
X632674Y836084D01*
X632631Y836165D01*
X632595Y836249D01*
X632569Y836281D01*
X632558Y836302D01*
X632535Y836324D01*
X632490Y836380D01*
X629693Y839177D01*
X629693Y843573D01*
X632802Y846682D01*
X637198Y846682D01*
X639224Y844656D01*
X639240Y844644D01*
X639253Y844628D01*
X639340Y844572D01*
X639424Y844512D01*
X639443Y844506D01*
X639460Y844495D01*
X639560Y844470D01*
X639659Y844440D01*
X639679Y844440D01*
X639698Y844435D01*
X639801Y844443D01*
X639905Y844446D01*
X639924Y844453D01*
X639943Y844455D01*
X640038Y844495D01*
X640136Y844531D01*
X640152Y844543D01*
X640170Y844551D01*
X640301Y844656D01*
X642327Y846682D01*
X646723Y846682D01*
X649832Y843573D01*
X649832Y839617D01*
X649846Y839527D01*
X649854Y839436D01*
X649866Y839407D01*
X649871Y839375D01*
X649914Y839294D01*
X649950Y839210D01*
X649976Y839178D01*
X649987Y839157D01*
X649987Y738704D01*
X649998Y738634D01*
X650000Y738562D01*
X650018Y738513D01*
X650026Y738462D01*
X650060Y738398D01*
X650085Y738331D01*
X650117Y738290D01*
X650142Y738244D01*
X650193Y738195D01*
X650238Y738139D01*
X650282Y738111D01*
X650320Y738075D01*
X650385Y738045D01*
X650445Y738006D01*
X650496Y737993D01*
X650543Y737971D01*
X650614Y737963D01*
X650684Y737946D01*
X650736Y737950D01*
X650787Y737944D01*
X650858Y737959D01*
X650929Y737965D01*
X650977Y737985D01*
X651028Y737996D01*
X651089Y738033D01*
X651155Y738061D01*
X651211Y738106D01*
X651239Y738123D01*
X651254Y738140D01*
X651286Y738166D01*
X651540Y738420D01*
X651593Y738494D01*
X651653Y738564D01*
X651665Y738594D01*
X651684Y738620D01*
X651711Y738707D01*
X651745Y738792D01*
X651749Y738833D01*
X651756Y738855D01*
X651755Y738887D01*
X651763Y738958D01*
X651763Y858067D01*
X651749Y858157D01*
X651741Y858248D01*
X651729Y858277D01*
X651724Y858309D01*
X651681Y858390D01*
X651645Y858474D01*
X651619Y858506D01*
X651608Y858527D01*
X651585Y858549D01*
X651540Y858605D01*
X648743Y861402D01*
X648743Y865798D01*
X651852Y868907D01*
X656248Y868907D01*
X659357Y865798D01*
X659357Y861402D01*
X658636Y860681D01*
X658594Y860623D01*
X658545Y860571D01*
X658523Y860524D01*
X658493Y860482D01*
X658471Y860413D01*
X658441Y860348D01*
X658436Y860296D01*
X658420Y860246D01*
X658422Y860175D01*
X658414Y860104D01*
X658425Y860053D01*
X658427Y860001D01*
X658451Y859933D01*
X658466Y859863D01*
X658493Y859818D01*
X658511Y859770D01*
X658556Y859714D01*
X658593Y859652D01*
X658632Y859618D01*
X658665Y859578D01*
X658725Y859539D01*
X658780Y859492D01*
X658828Y859473D01*
X658872Y859445D01*
X658941Y859427D01*
X659008Y859400D01*
X659079Y859392D01*
X659110Y859384D01*
X659133Y859386D01*
X659174Y859382D01*
X662598Y859382D01*
X664624Y857356D01*
X664640Y857344D01*
X664653Y857328D01*
X664740Y857272D01*
X664824Y857212D01*
X664843Y857206D01*
X664860Y857195D01*
X664960Y857170D01*
X665059Y857140D01*
X665079Y857140D01*
X665098Y857135D01*
X665201Y857143D01*
X665305Y857146D01*
X665324Y857153D01*
X665343Y857155D01*
X665438Y857195D01*
X665536Y857231D01*
X665552Y857243D01*
X665570Y857251D01*
X665701Y857356D01*
X667727Y859382D01*
X669072Y859382D01*
X669142Y859393D01*
X669214Y859395D01*
X669263Y859413D01*
X669314Y859421D01*
X669378Y859455D01*
X669445Y859480D01*
X669486Y859512D01*
X669532Y859537D01*
X669581Y859589D01*
X669637Y859633D01*
X669665Y859677D01*
X669701Y859715D01*
X669731Y859780D01*
X669770Y859840D01*
X669783Y859891D01*
X669805Y859938D01*
X669813Y860009D01*
X669830Y860079D01*
X669826Y860131D01*
X669832Y860182D01*
X669817Y860253D01*
X669811Y860324D01*
X669791Y860372D01*
X669780Y860423D01*
X669743Y860484D01*
X669715Y860550D01*
X669670Y860606D01*
X669653Y860634D01*
X669636Y860649D01*
X669610Y860681D01*
X646976Y883315D01*
X646902Y883368D01*
X646832Y883428D01*
X646802Y883440D01*
X646776Y883459D01*
X646689Y883486D01*
X646604Y883520D01*
X646563Y883524D01*
X646541Y883531D01*
X646509Y883530D01*
X646437Y883538D01*
X383228Y883538D01*
X381888Y884878D01*
X381888Y886642D01*
X381874Y886732D01*
X381866Y886823D01*
X381854Y886852D01*
X381849Y886884D01*
X381806Y886965D01*
X381770Y887049D01*
X381744Y887081D01*
X381733Y887102D01*
X381710Y887124D01*
X381665Y887180D01*
X378868Y889977D01*
X378868Y894373D01*
X381977Y897482D01*
X386373Y897482D01*
X389482Y894373D01*
X389482Y889977D01*
X388916Y889411D01*
X388874Y889353D01*
X388825Y889301D01*
X388803Y889254D01*
X388773Y889212D01*
X388751Y889143D01*
X388721Y889078D01*
X388716Y889026D01*
X388700Y888976D01*
X388702Y888905D01*
X388694Y888834D01*
X388705Y888783D01*
X388707Y888731D01*
X388731Y888663D01*
X388746Y888593D01*
X388773Y888548D01*
X388791Y888500D01*
X388836Y888444D01*
X388873Y888382D01*
X388912Y888348D01*
X388945Y888308D01*
X389005Y888269D01*
X389060Y888222D01*
X389108Y888203D01*
X389152Y888175D01*
X389221Y888157D01*
X389288Y888130D01*
X389359Y888122D01*
X389390Y888114D01*
X389413Y888116D01*
X389454Y888112D01*
X391596Y888112D01*
X391666Y888123D01*
X391738Y888125D01*
X391787Y888143D01*
X391838Y888151D01*
X391902Y888185D01*
X391969Y888210D01*
X392010Y888242D01*
X392056Y888267D01*
X392105Y888319D01*
X392161Y888363D01*
X392189Y888407D01*
X392225Y888445D01*
X392255Y888510D01*
X392294Y888570D01*
X392307Y888621D01*
X392329Y888668D01*
X392337Y888739D01*
X392354Y888809D01*
X392350Y888861D01*
X392356Y888912D01*
X392341Y888983D01*
X392335Y889054D01*
X392315Y889102D01*
X392304Y889153D01*
X392267Y889214D01*
X392239Y889280D01*
X392194Y889336D01*
X392177Y889364D01*
X392160Y889379D01*
X392134Y889411D01*
X391568Y889977D01*
X391568Y894373D01*
X394677Y897482D01*
X399073Y897482D01*
X401870Y894685D01*
X401944Y894632D01*
X402014Y894572D01*
X402044Y894560D01*
X402070Y894541D01*
X402157Y894514D01*
X402242Y894480D01*
X402283Y894476D01*
X402305Y894469D01*
X402337Y894470D01*
X402408Y894462D01*
X677222Y894462D01*
X697612Y874072D01*
X697612Y753738D01*
X697626Y753647D01*
X697634Y753557D01*
X697646Y753527D01*
X697651Y753495D01*
X697694Y753414D01*
X697730Y753330D01*
X697756Y753298D01*
X697767Y753277D01*
X697790Y753255D01*
X697835Y753199D01*
X712079Y738955D01*
X712153Y738902D01*
X712223Y738842D01*
X712253Y738830D01*
X712279Y738811D01*
X712366Y738784D01*
X712451Y738750D01*
X712492Y738746D01*
X712514Y738739D01*
X712546Y738740D01*
X712618Y738732D01*
X716573Y738732D01*
X717139Y738166D01*
X717197Y738124D01*
X717249Y738075D01*
X717296Y738053D01*
X717338Y738023D01*
X717407Y738001D01*
X717472Y737971D01*
X717524Y737966D01*
X717574Y737950D01*
X717645Y737952D01*
X717716Y737944D01*
X717767Y737955D01*
X717819Y737957D01*
X717887Y737981D01*
X717957Y737996D01*
X718002Y738023D01*
X718050Y738041D01*
X718106Y738086D01*
X718168Y738123D01*
X718202Y738162D01*
X718242Y738195D01*
X718281Y738255D01*
X718328Y738310D01*
X718347Y738358D01*
X718375Y738402D01*
X718393Y738471D01*
X718420Y738538D01*
X718428Y738609D01*
X718436Y738640D01*
X718434Y738663D01*
X718438Y738704D01*
X718438Y893122D01*
X719778Y894462D01*
X826317Y894462D01*
X826407Y894476D01*
X826498Y894484D01*
X826527Y894496D01*
X826559Y894501D01*
X826640Y894544D01*
X826724Y894580D01*
X826756Y894606D01*
X826777Y894617D01*
X826799Y894640D01*
X826855Y894685D01*
X829652Y897482D01*
X834048Y897482D01*
X837157Y894373D01*
X837157Y889977D01*
X834048Y886868D01*
X829652Y886868D01*
X826855Y889665D01*
X826781Y889718D01*
X826711Y889778D01*
X826681Y889790D01*
X826655Y889809D01*
X826568Y889836D01*
X826483Y889870D01*
X826442Y889874D01*
X826420Y889881D01*
X826388Y889880D01*
X826317Y889888D01*
X723773Y889888D01*
X723753Y889885D01*
X723734Y889887D01*
X723632Y889865D01*
X723530Y889849D01*
X723513Y889839D01*
X723493Y889835D01*
X723404Y889782D01*
X723313Y889733D01*
X723299Y889719D01*
X723282Y889709D01*
X723215Y889630D01*
X723143Y889555D01*
X723135Y889537D01*
X723122Y889522D01*
X723083Y889426D01*
X723040Y889332D01*
X723038Y889312D01*
X723030Y889294D01*
X723012Y889127D01*
X723012Y729303D01*
X718497Y724788D01*
X707078Y724788D01*
X705936Y725930D01*
X705920Y725941D01*
X705908Y725957D01*
X705844Y725998D01*
X705797Y726038D01*
X705771Y726048D01*
X705737Y726073D01*
X705718Y726079D01*
X705701Y726090D01*
X705613Y726112D01*
X705569Y726130D01*
X705544Y726133D01*
X705501Y726146D01*
X705482Y726145D01*
X705462Y726150D01*
X705417Y726147D01*
X705403Y726148D01*
X705393Y726148D01*
X705355Y726142D01*
X705256Y726139D01*
X705237Y726132D01*
X705217Y726131D01*
X705173Y726112D01*
X705151Y726108D01*
X705105Y726084D01*
X705025Y726055D01*
X705009Y726042D01*
X704991Y726035D01*
X704951Y726003D01*
X704933Y725993D01*
X704915Y725974D01*
X704860Y725930D01*
X703873Y724943D01*
X701548Y724943D01*
X701528Y724940D01*
X701509Y724942D01*
X701407Y724920D01*
X701305Y724904D01*
X701288Y724894D01*
X701268Y724890D01*
X701179Y724837D01*
X701088Y724788D01*
X701074Y724774D01*
X701057Y724764D01*
X700990Y724685D01*
X700918Y724610D01*
X700910Y724592D01*
X700897Y724577D01*
X700858Y724481D01*
X700815Y724387D01*
X700813Y724367D01*
X700805Y724349D01*
X700787Y724182D01*
X700787Y707208D01*
X700801Y707118D01*
X700809Y707027D01*
X700821Y706998D01*
X700826Y706966D01*
X700869Y706885D01*
X700905Y706801D01*
X700931Y706769D01*
X700942Y706748D01*
X700965Y706726D01*
X701010Y706670D01*
X703807Y703873D01*
X703807Y701548D01*
X703810Y701528D01*
X703808Y701509D01*
X703830Y701407D01*
X703846Y701305D01*
X703856Y701288D01*
X703860Y701268D01*
X703913Y701179D01*
X703962Y701088D01*
X703976Y701074D01*
X703986Y701057D01*
X704065Y700990D01*
X704140Y700918D01*
X704158Y700910D01*
X704173Y700897D01*
X704269Y700858D01*
X704363Y700815D01*
X704383Y700813D01*
X704401Y700805D01*
X704568Y700787D01*
X712147Y700787D01*
X713487Y699447D01*
X713487Y674363D01*
X713489Y674351D01*
X713488Y674344D01*
X713496Y674306D01*
X713501Y674273D01*
X713509Y674182D01*
X713521Y674152D01*
X713526Y674120D01*
X713569Y674039D01*
X713605Y673955D01*
X713631Y673923D01*
X713642Y673902D01*
X713665Y673880D01*
X713710Y673824D01*
X714119Y673415D01*
X714177Y673373D01*
X714229Y673324D01*
X714276Y673302D01*
X714318Y673272D01*
X714387Y673251D01*
X714452Y673220D01*
X714504Y673215D01*
X714554Y673199D01*
X714625Y673201D01*
X714696Y673193D01*
X714747Y673204D01*
X714799Y673206D01*
X714867Y673230D01*
X714937Y673245D01*
X714982Y673272D01*
X715030Y673290D01*
X715086Y673335D01*
X715148Y673372D01*
X715182Y673411D01*
X715222Y673444D01*
X715261Y673504D01*
X715308Y673559D01*
X715327Y673607D01*
X715355Y673651D01*
X715373Y673720D01*
X715400Y673787D01*
X715408Y673858D01*
X715416Y673889D01*
X715414Y673913D01*
X715418Y673953D01*
X715418Y675298D01*
X718527Y678407D01*
X722923Y678407D01*
X725720Y675610D01*
X725794Y675557D01*
X725864Y675497D01*
X725894Y675485D01*
X725920Y675466D01*
X726007Y675439D01*
X726092Y675405D01*
X726133Y675401D01*
X726155Y675394D01*
X726187Y675395D01*
X726258Y675387D01*
X728987Y675387D01*
X729078Y675401D01*
X729168Y675409D01*
X729198Y675421D01*
X729230Y675426D01*
X729311Y675469D01*
X729395Y675505D01*
X729427Y675531D01*
X729448Y675542D01*
X729470Y675565D01*
X729526Y675610D01*
X803940Y750024D01*
X803993Y750098D01*
X804053Y750168D01*
X804065Y750198D01*
X804084Y750224D01*
X804111Y750311D01*
X804145Y750396D01*
X804149Y750437D01*
X804156Y750459D01*
X804155Y750491D01*
X804163Y750563D01*
X804163Y770517D01*
X804152Y770587D01*
X804150Y770659D01*
X804132Y770708D01*
X804124Y770759D01*
X804090Y770823D01*
X804065Y770890D01*
X804033Y770931D01*
X804008Y770977D01*
X803956Y771026D01*
X803912Y771082D01*
X803868Y771110D01*
X803830Y771146D01*
X803765Y771176D01*
X803705Y771215D01*
X803654Y771228D01*
X803607Y771250D01*
X803536Y771258D01*
X803466Y771275D01*
X803414Y771271D01*
X803363Y771277D01*
X803292Y771262D01*
X803221Y771256D01*
X803173Y771236D01*
X803122Y771225D01*
X803061Y771188D01*
X802995Y771160D01*
X802939Y771115D01*
X802911Y771098D01*
X802896Y771081D01*
X802864Y771055D01*
X751655Y719846D01*
X751602Y719772D01*
X751542Y719702D01*
X751530Y719672D01*
X751511Y719646D01*
X751484Y719559D01*
X751471Y719527D01*
X751460Y719502D01*
X751459Y719497D01*
X751450Y719474D01*
X751446Y719433D01*
X751439Y719411D01*
X751440Y719379D01*
X751432Y719307D01*
X751432Y715352D01*
X748323Y712243D01*
X743927Y712243D01*
X740818Y715352D01*
X740818Y719748D01*
X743927Y722857D01*
X747882Y722857D01*
X747973Y722871D01*
X748063Y722879D01*
X748093Y722891D01*
X748125Y722896D01*
X748206Y722939D01*
X748290Y722975D01*
X748322Y723001D01*
X748343Y723012D01*
X748365Y723035D01*
X748421Y723080D01*
X800765Y775424D01*
X800818Y775498D01*
X800878Y775568D01*
X800890Y775598D01*
X800909Y775624D01*
X800936Y775711D01*
X800970Y775796D01*
X800974Y775837D01*
X800981Y775859D01*
X800980Y775891D01*
X800988Y775963D01*
X800988Y873942D01*
X800974Y874032D01*
X800966Y874123D01*
X800954Y874152D01*
X800949Y874184D01*
X800906Y874265D01*
X800870Y874349D01*
X800844Y874381D01*
X800833Y874402D01*
X800810Y874424D01*
X800765Y874480D01*
X797968Y877277D01*
X797968Y881673D01*
X801077Y884782D01*
X805473Y884782D01*
X808582Y881673D01*
X808582Y877277D01*
X805785Y874480D01*
X805732Y874406D01*
X805672Y874336D01*
X805660Y874306D01*
X805641Y874280D01*
X805614Y874193D01*
X805580Y874108D01*
X805576Y874067D01*
X805569Y874045D01*
X805570Y874013D01*
X805562Y873942D01*
X805562Y872054D01*
X805573Y871984D01*
X805575Y871912D01*
X805593Y871863D01*
X805601Y871812D01*
X805635Y871748D01*
X805660Y871681D01*
X805692Y871640D01*
X805717Y871594D01*
X805769Y871545D01*
X805813Y871489D01*
X805857Y871461D01*
X805895Y871425D01*
X805960Y871395D01*
X806020Y871356D01*
X806071Y871343D01*
X806118Y871321D01*
X806189Y871313D01*
X806259Y871296D01*
X806311Y871300D01*
X806362Y871294D01*
X806433Y871309D01*
X806504Y871315D01*
X806552Y871335D01*
X806603Y871346D01*
X806664Y871383D01*
X806730Y871411D01*
X806786Y871456D01*
X806814Y871473D01*
X806829Y871490D01*
X806861Y871516D01*
X807427Y872082D01*
X811823Y872082D01*
X814932Y868973D01*
X814932Y864577D01*
X812135Y861780D01*
X812082Y861706D01*
X812022Y861636D01*
X812010Y861606D01*
X811991Y861580D01*
X811964Y861493D01*
X811930Y861408D01*
X811926Y861367D01*
X811919Y861345D01*
X811920Y861313D01*
X811912Y861242D01*
X811912Y796108D01*
X811926Y796018D01*
X811934Y795927D01*
X811946Y795898D01*
X811951Y795866D01*
X811994Y795785D01*
X812030Y795701D01*
X812056Y795669D01*
X812067Y795648D01*
X812090Y795626D01*
X812135Y795570D01*
X814932Y792773D01*
X814932Y788377D01*
X814366Y787811D01*
X814324Y787753D01*
X814275Y787701D01*
X814253Y787654D01*
X814223Y787612D01*
X814201Y787543D01*
X814171Y787478D01*
X814166Y787426D01*
X814150Y787376D01*
X814152Y787305D01*
X814144Y787234D01*
X814155Y787183D01*
X814157Y787131D01*
X814181Y787063D01*
X814196Y786993D01*
X814223Y786948D01*
X814241Y786900D01*
X814286Y786844D01*
X814323Y786782D01*
X814362Y786748D01*
X814395Y786708D01*
X814455Y786669D01*
X814510Y786622D01*
X814558Y786603D01*
X814602Y786575D01*
X814671Y786557D01*
X814738Y786530D01*
X814809Y786522D01*
X814840Y786514D01*
X814863Y786516D01*
X814904Y786512D01*
X827412Y786512D01*
X827503Y786526D01*
X827593Y786534D01*
X827623Y786546D01*
X827655Y786551D01*
X827736Y786594D01*
X827820Y786630D01*
X827852Y786656D01*
X827873Y786667D01*
X827895Y786690D01*
X827951Y786735D01*
X997770Y956554D01*
X997823Y956628D01*
X997883Y956698D01*
X997895Y956728D01*
X997914Y956754D01*
X997941Y956841D01*
X997975Y956926D01*
X997979Y956967D01*
X997986Y956989D01*
X997985Y957021D01*
X997993Y957093D01*
X997993Y961048D01*
X1001102Y964157D01*
X1005498Y964157D01*
X1008607Y961048D01*
X1008607Y956652D01*
X1005498Y953543D01*
X1001543Y953543D01*
X1001452Y953529D01*
X1001362Y953521D01*
X1001332Y953509D01*
X1001300Y953504D01*
X1001219Y953461D01*
X1001135Y953425D01*
X1001103Y953399D01*
X1001082Y953388D01*
X1001060Y953365D01*
X1001004Y953320D01*
X829622Y781938D01*
X821254Y781938D01*
X821184Y781927D01*
X821112Y781925D01*
X821063Y781907D01*
X821012Y781899D01*
X820948Y781865D01*
X820881Y781840D01*
X820840Y781808D01*
X820794Y781783D01*
X820745Y781731D01*
X820689Y781687D01*
X820661Y781643D01*
X820625Y781605D01*
X820595Y781540D01*
X820556Y781480D01*
X820543Y781429D01*
X820521Y781382D01*
X820513Y781311D01*
X820496Y781241D01*
X820500Y781189D01*
X820494Y781138D01*
X820509Y781067D01*
X820515Y780996D01*
X820535Y780948D01*
X820546Y780897D01*
X820583Y780836D01*
X820611Y780770D01*
X820656Y780714D01*
X820673Y780686D01*
X820690Y780671D01*
X820716Y780639D01*
X821282Y780073D01*
X821282Y779824D01*
X821293Y779754D01*
X821295Y779682D01*
X821313Y779633D01*
X821321Y779582D01*
X821355Y779518D01*
X821380Y779451D01*
X821412Y779410D01*
X821437Y779364D01*
X821489Y779315D01*
X821533Y779259D01*
X821577Y779231D01*
X821615Y779195D01*
X821680Y779165D01*
X821740Y779126D01*
X821791Y779113D01*
X821838Y779091D01*
X821909Y779083D01*
X821979Y779066D01*
X822031Y779070D01*
X822082Y779064D01*
X822153Y779079D01*
X822224Y779085D01*
X822272Y779105D01*
X822323Y779116D01*
X822384Y779153D01*
X822450Y779181D01*
X822506Y779226D01*
X822534Y779243D01*
X822549Y779260D01*
X822581Y779286D01*
X823302Y780007D01*
X827698Y780007D01*
X830807Y776898D01*
X830807Y772502D01*
X828010Y769705D01*
X827957Y769631D01*
X827897Y769561D01*
X827885Y769531D01*
X827866Y769505D01*
X827839Y769418D01*
X827805Y769333D01*
X827801Y769292D01*
X827794Y769270D01*
X827795Y769238D01*
X827787Y769167D01*
X827787Y678503D01*
X826224Y676940D01*
X807047Y657763D01*
X807036Y657747D01*
X807020Y657735D01*
X806964Y657647D01*
X806904Y657564D01*
X806898Y657545D01*
X806887Y657528D01*
X806862Y657427D01*
X806831Y657328D01*
X806832Y657309D01*
X806827Y657289D01*
X806835Y657186D01*
X806838Y657083D01*
X806845Y657064D01*
X806846Y657044D01*
X806886Y656949D01*
X806922Y656852D01*
X806935Y656836D01*
X806942Y656818D01*
X807047Y656687D01*
X831594Y632140D01*
X831652Y632098D01*
X831704Y632049D01*
X831751Y632027D01*
X831793Y631997D01*
X831862Y631976D01*
X831927Y631945D01*
X831979Y631940D01*
X832029Y631924D01*
X832100Y631926D01*
X832171Y631918D01*
X832222Y631929D01*
X832274Y631931D01*
X832342Y631955D01*
X832412Y631970D01*
X832457Y631997D01*
X832505Y632015D01*
X832561Y632060D01*
X832623Y632097D01*
X832657Y632136D01*
X832697Y632169D01*
X832736Y632229D01*
X832783Y632284D01*
X832802Y632332D01*
X832830Y632376D01*
X832848Y632445D01*
X832875Y632512D01*
X832883Y632583D01*
X832891Y632614D01*
X832889Y632638D01*
X832893Y632678D01*
X832893Y634023D01*
X836002Y637132D01*
X840398Y637132D01*
X843507Y634023D01*
X843507Y630068D01*
X843521Y629977D01*
X843529Y629887D01*
X843541Y629857D01*
X843546Y629825D01*
X843589Y629744D01*
X843625Y629660D01*
X843651Y629628D01*
X843662Y629607D01*
X843685Y629585D01*
X843730Y629529D01*
X891919Y581340D01*
X891977Y581298D01*
X892029Y581249D01*
X892076Y581227D01*
X892118Y581197D01*
X892187Y581176D01*
X892252Y581145D01*
X892304Y581140D01*
X892354Y581124D01*
X892425Y581126D01*
X892496Y581118D01*
X892547Y581129D01*
X892599Y581131D01*
X892667Y581155D01*
X892737Y581170D01*
X892782Y581197D01*
X892830Y581215D01*
X892886Y581260D01*
X892948Y581297D01*
X892982Y581336D01*
X893022Y581369D01*
X893061Y581429D01*
X893108Y581484D01*
X893127Y581532D01*
X893155Y581576D01*
X893173Y581645D01*
X893200Y581712D01*
X893208Y581783D01*
X893216Y581814D01*
X893214Y581838D01*
X893218Y581878D01*
X893218Y583223D01*
X896327Y586332D01*
X900282Y586332D01*
X900373Y586346D01*
X900463Y586354D01*
X900493Y586366D01*
X900525Y586371D01*
X900606Y586414D01*
X900690Y586450D01*
X900722Y586476D01*
X900743Y586487D01*
X900765Y586510D01*
X900821Y586555D01*
X946815Y632549D01*
X946868Y632623D01*
X946928Y632693D01*
X946940Y632723D01*
X946959Y632749D01*
X946986Y632836D01*
X947020Y632921D01*
X947024Y632962D01*
X947031Y632984D01*
X947030Y633016D01*
X947038Y633088D01*
X947038Y654997D01*
X956495Y664454D01*
X956548Y664528D01*
X956608Y664598D01*
X956620Y664628D01*
X956639Y664654D01*
X956666Y664741D01*
X956700Y664826D01*
X956704Y664867D01*
X956711Y664889D01*
X956710Y664921D01*
X956718Y664993D01*
X956718Y668948D01*
X959827Y672057D01*
X964223Y672057D01*
X964789Y671491D01*
X964847Y671449D01*
X964899Y671400D01*
X964946Y671378D01*
X964988Y671348D01*
X965057Y671326D01*
X965122Y671296D01*
X965174Y671291D01*
X965224Y671275D01*
X965295Y671277D01*
X965366Y671269D01*
X965417Y671280D01*
X965469Y671282D01*
X965537Y671306D01*
X965607Y671321D01*
X965652Y671348D01*
X965700Y671366D01*
X965756Y671411D01*
X965818Y671448D01*
X965852Y671487D01*
X965892Y671520D01*
X965931Y671580D01*
X965978Y671635D01*
X965997Y671683D01*
X966025Y671727D01*
X966043Y671796D01*
X966070Y671863D01*
X966078Y671934D01*
X966086Y671965D01*
X966084Y671988D01*
X966088Y672029D01*
X966088Y683442D01*
X966074Y683532D01*
X966066Y683623D01*
X966054Y683652D01*
X966049Y683684D01*
X966006Y683765D01*
X965970Y683849D01*
X965944Y683881D01*
X965933Y683902D01*
X965910Y683924D01*
X965865Y683980D01*
X963068Y686777D01*
X963068Y691297D01*
X963057Y691367D01*
X963055Y691439D01*
X963037Y691488D01*
X963029Y691539D01*
X962995Y691603D01*
X962970Y691670D01*
X962938Y691711D01*
X962913Y691757D01*
X962861Y691806D01*
X962817Y691862D01*
X962773Y691890D01*
X962735Y691926D01*
X962670Y691956D01*
X962610Y691995D01*
X962559Y692008D01*
X962512Y692030D01*
X962441Y692038D01*
X962371Y692055D01*
X962319Y692051D01*
X962268Y692057D01*
X962197Y692042D01*
X962126Y692036D01*
X962078Y692016D01*
X962027Y692005D01*
X961966Y691968D01*
X961900Y691940D01*
X961844Y691895D01*
X961816Y691878D01*
X961801Y691861D01*
X961769Y691835D01*
X945330Y675396D01*
X945277Y675322D01*
X945217Y675252D01*
X945205Y675222D01*
X945186Y675196D01*
X945159Y675109D01*
X945125Y675024D01*
X945121Y674983D01*
X945114Y674961D01*
X945115Y674929D01*
X945107Y674857D01*
X945107Y670902D01*
X941998Y667793D01*
X937602Y667793D01*
X934493Y670902D01*
X934493Y675298D01*
X937602Y678407D01*
X941557Y678407D01*
X941648Y678421D01*
X941738Y678429D01*
X941768Y678441D01*
X941800Y678446D01*
X941881Y678489D01*
X941965Y678525D01*
X941997Y678551D01*
X942018Y678562D01*
X942040Y678585D01*
X942096Y678630D01*
X964253Y700787D01*
X981202Y700787D01*
X981222Y700790D01*
X981241Y700788D01*
X981343Y700810D01*
X981445Y700826D01*
X981462Y700836D01*
X981482Y700840D01*
X981571Y700893D01*
X981662Y700942D01*
X981676Y700956D01*
X981693Y700966D01*
X981760Y701045D01*
X981832Y701120D01*
X981840Y701138D01*
X981853Y701153D01*
X981892Y701249D01*
X981935Y701343D01*
X981937Y701363D01*
X981945Y701381D01*
X981963Y701548D01*
X981963Y751212D01*
X981949Y751303D01*
X981941Y751393D01*
X981929Y751423D01*
X981924Y751455D01*
X981881Y751536D01*
X981845Y751620D01*
X981819Y751652D01*
X981808Y751673D01*
X981785Y751695D01*
X981740Y751751D01*
X975613Y757878D01*
X975613Y874072D01*
X987110Y885569D01*
X987152Y885627D01*
X987201Y885679D01*
X987223Y885726D01*
X987253Y885768D01*
X987274Y885837D01*
X987305Y885902D01*
X987310Y885954D01*
X987326Y886004D01*
X987324Y886075D01*
X987332Y886146D01*
X987321Y886197D01*
X987319Y886249D01*
X987295Y886317D01*
X987280Y886387D01*
X987253Y886432D01*
X987235Y886480D01*
X987190Y886536D01*
X987153Y886598D01*
X987114Y886632D01*
X987081Y886672D01*
X987021Y886711D01*
X986966Y886758D01*
X986918Y886777D01*
X986874Y886805D01*
X986805Y886823D01*
X986738Y886850D01*
X986667Y886858D01*
X986636Y886866D01*
X986612Y886864D01*
X986572Y886868D01*
X985668Y886868D01*
X985577Y886854D01*
X985487Y886846D01*
X985457Y886834D01*
X985425Y886829D01*
X985344Y886786D01*
X985260Y886750D01*
X985228Y886724D01*
X985207Y886713D01*
X985185Y886690D01*
X985129Y886645D01*
X954855Y856371D01*
X954802Y856297D01*
X954742Y856227D01*
X954730Y856197D01*
X954711Y856171D01*
X954684Y856084D01*
X954650Y855999D01*
X954646Y855958D01*
X954639Y855936D01*
X954640Y855904D01*
X954632Y855832D01*
X954632Y851877D01*
X951523Y848768D01*
X947127Y848768D01*
X944018Y851877D01*
X944018Y856397D01*
X944007Y856467D01*
X944005Y856539D01*
X943987Y856588D01*
X943979Y856639D01*
X943945Y856703D01*
X943920Y856770D01*
X943888Y856811D01*
X943863Y856857D01*
X943811Y856906D01*
X943767Y856962D01*
X943723Y856990D01*
X943685Y857026D01*
X943620Y857056D01*
X943560Y857095D01*
X943509Y857108D01*
X943462Y857130D01*
X943391Y857138D01*
X943321Y857155D01*
X943269Y857151D01*
X943218Y857157D01*
X943147Y857142D01*
X943076Y857136D01*
X943028Y857116D01*
X942977Y857105D01*
X942916Y857068D01*
X942850Y857040D01*
X942794Y856995D01*
X942766Y856978D01*
X942751Y856961D01*
X942719Y856935D01*
X932630Y846846D01*
X932577Y846772D01*
X932517Y846702D01*
X932505Y846672D01*
X932486Y846646D01*
X932459Y846559D01*
X932425Y846474D01*
X932421Y846433D01*
X932414Y846411D01*
X932415Y846379D01*
X932407Y846307D01*
X932407Y842352D01*
X929298Y839243D01*
X924902Y839243D01*
X921793Y842352D01*
X921793Y846748D01*
X924902Y849857D01*
X928857Y849857D01*
X928948Y849871D01*
X929038Y849879D01*
X929068Y849891D01*
X929100Y849896D01*
X929181Y849939D01*
X929265Y849975D01*
X929297Y850001D01*
X929318Y850012D01*
X929340Y850035D01*
X929396Y850080D01*
X969195Y889879D01*
X969248Y889953D01*
X969308Y890023D01*
X969320Y890053D01*
X969339Y890079D01*
X969366Y890166D01*
X969400Y890251D01*
X969404Y890292D01*
X969411Y890314D01*
X969410Y890346D01*
X969418Y890418D01*
X969418Y894373D01*
X972527Y897482D01*
X976923Y897482D01*
X980032Y894373D01*
X980032Y889853D01*
X980043Y889783D01*
X980045Y889711D01*
X980063Y889662D01*
X980071Y889611D01*
X980105Y889547D01*
X980130Y889480D01*
X980162Y889439D01*
X980187Y889393D01*
X980239Y889344D01*
X980283Y889288D01*
X980327Y889260D01*
X980365Y889224D01*
X980430Y889194D01*
X980490Y889155D01*
X980541Y889142D01*
X980588Y889120D01*
X980659Y889112D01*
X980729Y889095D01*
X980781Y889099D01*
X980832Y889093D01*
X980903Y889108D01*
X980974Y889114D01*
X981022Y889134D01*
X981073Y889145D01*
X981134Y889182D01*
X981200Y889210D01*
X981256Y889255D01*
X981284Y889272D01*
X981299Y889289D01*
X981331Y889315D01*
X981895Y889879D01*
X981949Y889953D01*
X982008Y890023D01*
X982020Y890053D01*
X982039Y890079D01*
X982066Y890166D01*
X982100Y890251D01*
X982104Y890292D01*
X982111Y890314D01*
X982110Y890346D01*
X982118Y890418D01*
X982118Y894373D01*
X985227Y897482D01*
X989623Y897482D01*
X992732Y894373D01*
X992732Y893028D01*
X992743Y892958D01*
X992745Y892886D01*
X992763Y892837D01*
X992771Y892786D01*
X992805Y892722D01*
X992830Y892655D01*
X992862Y892614D01*
X992887Y892568D01*
X992938Y892519D01*
X992983Y892463D01*
X993027Y892435D01*
X993065Y892399D01*
X993130Y892369D01*
X993190Y892330D01*
X993241Y892317D01*
X993288Y892295D01*
X993359Y892287D01*
X993429Y892270D01*
X993481Y892274D01*
X993532Y892268D01*
X993603Y892283D01*
X993674Y892289D01*
X993722Y892309D01*
X993773Y892320D01*
X993834Y892357D01*
X993900Y892385D01*
X993956Y892430D01*
X993984Y892447D01*
X993999Y892464D01*
X994031Y892490D01*
X1071209Y969668D01*
X1071220Y969684D01*
X1071236Y969696D01*
X1071292Y969784D01*
X1071352Y969867D01*
X1071358Y969886D01*
X1071369Y969903D01*
X1071394Y970004D01*
X1071425Y970102D01*
X1071424Y970122D01*
X1071429Y970142D01*
X1071421Y970245D01*
X1071418Y970348D01*
X1071411Y970367D01*
X1071410Y970387D01*
X1071369Y970482D01*
X1071334Y970579D01*
X1071321Y970595D01*
X1071314Y970613D01*
X1071209Y970744D01*
X1070240Y971713D01*
X1068577Y975727D01*
X1068577Y980073D01*
X1070240Y984087D01*
X1073313Y987160D01*
X1076246Y988375D01*
X1076329Y988426D01*
X1076415Y988472D01*
X1076433Y988490D01*
X1076455Y988504D01*
X1076517Y988580D01*
X1076584Y988650D01*
X1076595Y988674D01*
X1076612Y988694D01*
X1076647Y988785D01*
X1076688Y988873D01*
X1076690Y988899D01*
X1076700Y988923D01*
X1076704Y989021D01*
X1076715Y989117D01*
X1076709Y989143D01*
X1076710Y989169D01*
X1076683Y989263D01*
X1076662Y989358D01*
X1076649Y989380D01*
X1076642Y989405D01*
X1076586Y989485D01*
X1076536Y989569D01*
X1076516Y989586D01*
X1076501Y989607D01*
X1076423Y989666D01*
X1076349Y989729D01*
X1076325Y989739D01*
X1076304Y989754D01*
X1076212Y989784D01*
X1076121Y989821D01*
X1076089Y989824D01*
X1076070Y989830D01*
X1076037Y989830D01*
X1075954Y989839D01*
X1032246Y989839D01*
X1032149Y989824D01*
X1032053Y989814D01*
X1032029Y989804D01*
X1032003Y989800D01*
X1031917Y989754D01*
X1031828Y989714D01*
X1031809Y989697D01*
X1031785Y989684D01*
X1031718Y989614D01*
X1031647Y989548D01*
X1031634Y989525D01*
X1031616Y989506D01*
X1031575Y989418D01*
X1031528Y989332D01*
X1031523Y989307D01*
X1031512Y989283D01*
X1031502Y989186D01*
X1031484Y989090D01*
X1031488Y989064D01*
X1031485Y989039D01*
X1031506Y988943D01*
X1031520Y988847D01*
X1031532Y988824D01*
X1031538Y988798D01*
X1031588Y988715D01*
X1031632Y988628D01*
X1031650Y988609D01*
X1031664Y988587D01*
X1031738Y988524D01*
X1031807Y988456D01*
X1031836Y988440D01*
X1031851Y988427D01*
X1031881Y988415D01*
X1031954Y988375D01*
X1034887Y987160D01*
X1037960Y984087D01*
X1039623Y980073D01*
X1039623Y975727D01*
X1037960Y971713D01*
X1034887Y968640D01*
X1030873Y966977D01*
X1026527Y966977D01*
X1022513Y968640D01*
X1019440Y971713D01*
X1017777Y975727D01*
X1017777Y980073D01*
X1019440Y984087D01*
X1022513Y987160D01*
X1025446Y988375D01*
X1025529Y988426D01*
X1025615Y988472D01*
X1025633Y988490D01*
X1025655Y988504D01*
X1025717Y988580D01*
X1025784Y988650D01*
X1025795Y988674D01*
X1025812Y988694D01*
X1025847Y988785D01*
X1025888Y988873D01*
X1025890Y988899D01*
X1025900Y988923D01*
X1025904Y989021D01*
X1025915Y989117D01*
X1025909Y989143D01*
X1025910Y989169D01*
X1025883Y989263D01*
X1025862Y989358D01*
X1025849Y989380D01*
X1025842Y989405D01*
X1025786Y989485D01*
X1025736Y989569D01*
X1025716Y989586D01*
X1025701Y989607D01*
X1025623Y989666D01*
X1025549Y989729D01*
X1025525Y989739D01*
X1025504Y989754D01*
X1025412Y989784D01*
X1025321Y989821D01*
X1025289Y989824D01*
X1025270Y989830D01*
X1025237Y989830D01*
X1025154Y989839D01*
X1006846Y989839D01*
X1006750Y989824D01*
X1006653Y989814D01*
X1006629Y989804D01*
X1006603Y989800D01*
X1006517Y989754D01*
X1006428Y989714D01*
X1006409Y989697D01*
X1006385Y989684D01*
X1006319Y989614D01*
X1006247Y989548D01*
X1006234Y989525D01*
X1006216Y989506D01*
X1006175Y989418D01*
X1006128Y989332D01*
X1006123Y989307D01*
X1006112Y989283D01*
X1006102Y989186D01*
X1006084Y989090D01*
X1006088Y989064D01*
X1006085Y989039D01*
X1006106Y988943D01*
X1006120Y988847D01*
X1006132Y988824D01*
X1006138Y988798D01*
X1006188Y988715D01*
X1006232Y988628D01*
X1006250Y988609D01*
X1006264Y988587D01*
X1006338Y988524D01*
X1006407Y988456D01*
X1006436Y988440D01*
X1006451Y988427D01*
X1006481Y988415D01*
X1006554Y988375D01*
X1009487Y987160D01*
X1012560Y984087D01*
X1014223Y980073D01*
X1014223Y975727D01*
X1012560Y971713D01*
X1009487Y968640D01*
X1005473Y966977D01*
X1001127Y966977D01*
X997113Y968640D01*
X994040Y971713D01*
X992377Y975727D01*
X992377Y980073D01*
X994040Y984087D01*
X997113Y987160D01*
X1000046Y988375D01*
X1000129Y988426D01*
X1000215Y988472D01*
X1000233Y988491D01*
X1000255Y988504D01*
X1000317Y988579D01*
X1000384Y988650D01*
X1000395Y988674D01*
X1000412Y988694D01*
X1000447Y988785D01*
X1000488Y988873D01*
X1000490Y988899D01*
X1000500Y988923D01*
X1000504Y989021D01*
X1000515Y989117D01*
X1000509Y989143D01*
X1000510Y989169D01*
X1000483Y989263D01*
X1000462Y989358D01*
X1000449Y989380D01*
X1000442Y989405D01*
X1000386Y989485D01*
X1000336Y989569D01*
X1000316Y989586D01*
X1000301Y989607D01*
X1000223Y989666D01*
X1000149Y989729D01*
X1000125Y989739D01*
X1000104Y989754D01*
X1000012Y989784D01*
X999921Y989821D01*
X999889Y989824D01*
X999870Y989830D01*
X999837Y989830D01*
X999754Y989839D01*
X981446Y989839D01*
X981350Y989824D01*
X981253Y989814D01*
X981229Y989804D01*
X981203Y989800D01*
X981117Y989754D01*
X981028Y989714D01*
X981009Y989697D01*
X980985Y989684D01*
X980919Y989614D01*
X980847Y989548D01*
X980834Y989525D01*
X980816Y989506D01*
X980775Y989418D01*
X980728Y989332D01*
X980723Y989307D01*
X980712Y989283D01*
X980702Y989186D01*
X980684Y989090D01*
X980688Y989064D01*
X980685Y989039D01*
X980706Y988943D01*
X980720Y988847D01*
X980732Y988824D01*
X980738Y988798D01*
X980788Y988715D01*
X980832Y988628D01*
X980850Y988609D01*
X980864Y988587D01*
X980938Y988524D01*
X981007Y988456D01*
X981036Y988440D01*
X981051Y988427D01*
X981081Y988415D01*
X981154Y988375D01*
X984087Y987160D01*
X987160Y984087D01*
X988823Y980073D01*
X988823Y975727D01*
X987160Y971713D01*
X984087Y968640D01*
X980073Y966977D01*
X975727Y966977D01*
X971713Y968640D01*
X968640Y971713D01*
X966977Y975727D01*
X966977Y980073D01*
X968640Y984087D01*
X971713Y987160D01*
X974646Y988375D01*
X974729Y988426D01*
X974815Y988472D01*
X974833Y988491D01*
X974855Y988504D01*
X974917Y988579D01*
X974984Y988650D01*
X974995Y988674D01*
X975012Y988694D01*
X975047Y988785D01*
X975088Y988873D01*
X975090Y988899D01*
X975100Y988923D01*
X975104Y989021D01*
X975115Y989117D01*
X975109Y989143D01*
X975110Y989169D01*
X975083Y989263D01*
X975062Y989358D01*
X975049Y989380D01*
X975042Y989405D01*
X974986Y989485D01*
X974936Y989569D01*
X974916Y989586D01*
X974901Y989607D01*
X974823Y989666D01*
X974749Y989729D01*
X974725Y989739D01*
X974704Y989754D01*
X974612Y989784D01*
X974521Y989821D01*
X974489Y989824D01*
X974470Y989830D01*
X974437Y989830D01*
X974354Y989839D01*
X956046Y989839D01*
X955950Y989824D01*
X955853Y989814D01*
X955829Y989804D01*
X955803Y989800D01*
X955717Y989754D01*
X955628Y989714D01*
X955609Y989697D01*
X955585Y989684D01*
X955519Y989614D01*
X955447Y989548D01*
X955434Y989525D01*
X955416Y989506D01*
X955375Y989418D01*
X955328Y989332D01*
X955323Y989307D01*
X955312Y989283D01*
X955302Y989186D01*
X955284Y989090D01*
X955288Y989064D01*
X955285Y989039D01*
X955306Y988943D01*
X955320Y988847D01*
X955332Y988824D01*
X955338Y988798D01*
X955388Y988715D01*
X955432Y988628D01*
X955450Y988609D01*
X955464Y988587D01*
X955538Y988524D01*
X955607Y988456D01*
X955636Y988440D01*
X955651Y988427D01*
X955681Y988415D01*
X955754Y988375D01*
X958687Y987160D01*
X961760Y984087D01*
X963423Y980073D01*
X963423Y975727D01*
X961760Y971713D01*
X958687Y968640D01*
X954673Y966977D01*
X950327Y966977D01*
X946313Y968640D01*
X943240Y971713D01*
X941577Y975727D01*
X941577Y980073D01*
X943240Y984087D01*
X946313Y987160D01*
X949246Y988375D01*
X949329Y988426D01*
X949415Y988472D01*
X949433Y988491D01*
X949455Y988504D01*
X949517Y988579D01*
X949584Y988650D01*
X949595Y988674D01*
X949612Y988694D01*
X949647Y988785D01*
X949688Y988873D01*
X949690Y988899D01*
X949700Y988923D01*
X949704Y989021D01*
X949715Y989117D01*
X949709Y989143D01*
X949710Y989169D01*
X949683Y989263D01*
X949662Y989358D01*
X949649Y989380D01*
X949642Y989405D01*
X949586Y989485D01*
X949536Y989569D01*
X949516Y989586D01*
X949501Y989607D01*
X949423Y989666D01*
X949349Y989729D01*
X949325Y989739D01*
X949304Y989754D01*
X949212Y989784D01*
X949121Y989821D01*
X949089Y989824D01*
X949070Y989830D01*
X949037Y989830D01*
X948954Y989839D01*
X892546Y989839D01*
X892449Y989824D01*
X892353Y989814D01*
X892329Y989804D01*
X892303Y989800D01*
X892217Y989754D01*
X892128Y989714D01*
X892109Y989697D01*
X892085Y989684D01*
X892018Y989614D01*
X891947Y989548D01*
X891934Y989525D01*
X891916Y989506D01*
X891875Y989418D01*
X891828Y989332D01*
X891823Y989307D01*
X891812Y989283D01*
X891802Y989186D01*
X891784Y989090D01*
X891788Y989064D01*
X891785Y989039D01*
X891806Y988943D01*
X891820Y988847D01*
X891832Y988824D01*
X891838Y988798D01*
X891888Y988715D01*
X891932Y988628D01*
X891950Y988609D01*
X891964Y988587D01*
X892038Y988524D01*
X892107Y988456D01*
X892136Y988440D01*
X892151Y988427D01*
X892181Y988415D01*
X892254Y988375D01*
X895187Y987160D01*
X898260Y984087D01*
X899923Y980073D01*
X899923Y975727D01*
X898260Y971713D01*
X895187Y968640D01*
X891173Y966977D01*
X886827Y966977D01*
X882813Y968640D01*
X879740Y971713D01*
X878077Y975727D01*
X878077Y980073D01*
X879740Y984087D01*
X882813Y987160D01*
X885746Y988375D01*
X885829Y988426D01*
X885915Y988472D01*
X885933Y988490D01*
X885955Y988504D01*
X886017Y988580D01*
X886084Y988650D01*
X886095Y988674D01*
X886112Y988694D01*
X886147Y988785D01*
X886188Y988873D01*
X886190Y988899D01*
X886200Y988923D01*
X886204Y989021D01*
X886215Y989117D01*
X886209Y989143D01*
X886210Y989169D01*
X886183Y989263D01*
X886162Y989358D01*
X886149Y989380D01*
X886142Y989405D01*
X886086Y989485D01*
X886036Y989569D01*
X886016Y989586D01*
X886001Y989607D01*
X885923Y989666D01*
X885849Y989729D01*
X885825Y989739D01*
X885804Y989754D01*
X885712Y989784D01*
X885621Y989821D01*
X885589Y989824D01*
X885570Y989830D01*
X885537Y989830D01*
X885454Y989839D01*
X867146Y989839D01*
X867049Y989824D01*
X866953Y989814D01*
X866929Y989804D01*
X866903Y989800D01*
X866817Y989754D01*
X866728Y989714D01*
X866709Y989697D01*
X866685Y989684D01*
X866618Y989614D01*
X866547Y989548D01*
X866534Y989525D01*
X866516Y989506D01*
X866475Y989418D01*
X866428Y989332D01*
X866423Y989307D01*
X866412Y989283D01*
X866402Y989186D01*
X866384Y989090D01*
X866388Y989064D01*
X866385Y989039D01*
X866406Y988943D01*
X866420Y988847D01*
X866432Y988824D01*
X866438Y988798D01*
X866488Y988715D01*
X866532Y988628D01*
X866550Y988609D01*
X866564Y988587D01*
X866638Y988524D01*
X866707Y988456D01*
X866736Y988440D01*
X866751Y988427D01*
X866781Y988415D01*
X866854Y988375D01*
X869787Y987160D01*
X872860Y984087D01*
X874523Y980073D01*
X874523Y975727D01*
X872860Y971713D01*
X869787Y968640D01*
X865773Y966977D01*
X861427Y966977D01*
X857413Y968640D01*
X854340Y971713D01*
X852677Y975727D01*
X852677Y980073D01*
X854340Y984087D01*
X857413Y987160D01*
X860346Y988375D01*
X860429Y988426D01*
X860515Y988472D01*
X860533Y988490D01*
X860555Y988504D01*
X860617Y988580D01*
X860684Y988650D01*
X860695Y988674D01*
X860712Y988694D01*
X860747Y988785D01*
X860788Y988873D01*
X860790Y988899D01*
X860800Y988923D01*
X860804Y989021D01*
X860815Y989117D01*
X860809Y989143D01*
X860810Y989169D01*
X860783Y989263D01*
X860762Y989358D01*
X860749Y989380D01*
X860742Y989405D01*
X860686Y989485D01*
X860636Y989569D01*
X860616Y989586D01*
X860601Y989607D01*
X860523Y989666D01*
X860449Y989729D01*
X860425Y989739D01*
X860404Y989754D01*
X860312Y989784D01*
X860221Y989821D01*
X860189Y989824D01*
X860170Y989830D01*
X860137Y989830D01*
X860054Y989839D01*
X841746Y989839D01*
X841649Y989824D01*
X841553Y989814D01*
X841529Y989804D01*
X841503Y989800D01*
X841417Y989754D01*
X841328Y989714D01*
X841309Y989697D01*
X841285Y989684D01*
X841218Y989614D01*
X841147Y989548D01*
X841134Y989525D01*
X841116Y989506D01*
X841075Y989418D01*
X841028Y989332D01*
X841023Y989307D01*
X841012Y989283D01*
X841002Y989186D01*
X840984Y989090D01*
X840988Y989064D01*
X840985Y989039D01*
X841006Y988943D01*
X841020Y988847D01*
X841032Y988824D01*
X841038Y988798D01*
X841088Y988715D01*
X841132Y988628D01*
X841150Y988609D01*
X841164Y988587D01*
X841238Y988524D01*
X841307Y988456D01*
X841336Y988440D01*
X841351Y988427D01*
X841381Y988415D01*
X841454Y988375D01*
X844387Y987160D01*
X847460Y984087D01*
X849123Y980073D01*
X849123Y975727D01*
X847460Y971713D01*
X844387Y968640D01*
X840373Y966977D01*
X836027Y966977D01*
X832013Y968640D01*
X828940Y971713D01*
X827277Y975727D01*
X827277Y980073D01*
X828940Y984087D01*
X832013Y987160D01*
X834946Y988375D01*
X835029Y988426D01*
X835115Y988472D01*
X835133Y988490D01*
X835155Y988504D01*
X835217Y988580D01*
X835284Y988650D01*
X835295Y988674D01*
X835312Y988694D01*
X835347Y988785D01*
X835388Y988873D01*
X835390Y988899D01*
X835400Y988923D01*
X835404Y989021D01*
X835415Y989117D01*
X835409Y989143D01*
X835410Y989169D01*
X835383Y989263D01*
X835362Y989358D01*
X835349Y989380D01*
X835342Y989405D01*
X835286Y989485D01*
X835236Y989569D01*
X835216Y989586D01*
X835201Y989607D01*
X835123Y989666D01*
X835049Y989729D01*
X835025Y989739D01*
X835004Y989754D01*
X834912Y989784D01*
X834821Y989821D01*
X834789Y989824D01*
X834770Y989830D01*
X834737Y989830D01*
X834654Y989839D01*
X816346Y989839D01*
X816249Y989824D01*
X816153Y989814D01*
X816129Y989804D01*
X816103Y989800D01*
X816017Y989754D01*
X815928Y989714D01*
X815909Y989697D01*
X815885Y989684D01*
X815818Y989614D01*
X815747Y989548D01*
X815734Y989525D01*
X815716Y989506D01*
X815675Y989418D01*
X815628Y989332D01*
X815623Y989307D01*
X815612Y989283D01*
X815602Y989186D01*
X815584Y989090D01*
X815588Y989064D01*
X815585Y989039D01*
X815606Y988943D01*
X815620Y988847D01*
X815632Y988824D01*
X815638Y988798D01*
X815688Y988715D01*
X815732Y988628D01*
X815750Y988609D01*
X815764Y988587D01*
X815838Y988524D01*
X815907Y988456D01*
X815936Y988440D01*
X815951Y988427D01*
X815981Y988415D01*
X816054Y988375D01*
X818987Y987160D01*
X822060Y984087D01*
X823723Y980073D01*
X823723Y975727D01*
X822060Y971713D01*
X818987Y968640D01*
X814973Y966977D01*
X810627Y966977D01*
X806613Y968640D01*
X803540Y971713D01*
X801877Y975727D01*
X801877Y980073D01*
X803540Y984087D01*
X806613Y987160D01*
X809546Y988375D01*
X809629Y988426D01*
X809715Y988472D01*
X809733Y988490D01*
X809755Y988504D01*
X809817Y988580D01*
X809884Y988650D01*
X809895Y988674D01*
X809912Y988694D01*
X809947Y988785D01*
X809988Y988873D01*
X809990Y988899D01*
X810000Y988923D01*
X810004Y989021D01*
X810015Y989117D01*
X810009Y989143D01*
X810010Y989169D01*
X809983Y989263D01*
X809962Y989358D01*
X809949Y989380D01*
X809942Y989405D01*
X809886Y989485D01*
X809836Y989569D01*
X809816Y989586D01*
X809801Y989607D01*
X809723Y989666D01*
X809649Y989729D01*
X809625Y989739D01*
X809604Y989754D01*
X809512Y989784D01*
X809421Y989821D01*
X809389Y989824D01*
X809370Y989830D01*
X809337Y989830D01*
X809254Y989839D01*
X752846Y989839D01*
X752749Y989824D01*
X752653Y989814D01*
X752629Y989804D01*
X752603Y989800D01*
X752517Y989754D01*
X752428Y989714D01*
X752409Y989697D01*
X752385Y989684D01*
X752318Y989614D01*
X752247Y989548D01*
X752234Y989525D01*
X752216Y989506D01*
X752175Y989418D01*
X752128Y989332D01*
X752123Y989307D01*
X752112Y989283D01*
X752102Y989186D01*
X752084Y989090D01*
X752088Y989064D01*
X752085Y989039D01*
X752106Y988943D01*
X752120Y988847D01*
X752132Y988824D01*
X752138Y988798D01*
X752188Y988715D01*
X752232Y988628D01*
X752250Y988609D01*
X752264Y988587D01*
X752338Y988524D01*
X752407Y988456D01*
X752436Y988440D01*
X752451Y988427D01*
X752481Y988415D01*
X752554Y988375D01*
X755487Y987160D01*
X758560Y984087D01*
X760223Y980073D01*
X760223Y975727D01*
X758560Y971713D01*
X755487Y968640D01*
X751473Y966977D01*
X747127Y966977D01*
X743113Y968640D01*
X740040Y971713D01*
X738377Y975727D01*
X738377Y980073D01*
X740040Y984087D01*
X743113Y987160D01*
X746046Y988375D01*
X746129Y988426D01*
X746215Y988472D01*
X746233Y988490D01*
X746255Y988504D01*
X746317Y988580D01*
X746384Y988650D01*
X746395Y988674D01*
X746412Y988694D01*
X746447Y988785D01*
X746488Y988873D01*
X746490Y988899D01*
X746500Y988923D01*
X746504Y989021D01*
X746515Y989117D01*
X746509Y989143D01*
X746510Y989169D01*
X746483Y989263D01*
X746462Y989358D01*
X746449Y989380D01*
X746442Y989405D01*
X746386Y989485D01*
X746336Y989569D01*
X746316Y989586D01*
X746301Y989607D01*
X746223Y989666D01*
X746149Y989729D01*
X746125Y989739D01*
X746104Y989754D01*
X746012Y989784D01*
X745921Y989821D01*
X745889Y989824D01*
X745870Y989830D01*
X745837Y989830D01*
X745754Y989839D01*
X727446Y989839D01*
X727349Y989824D01*
X727253Y989814D01*
X727229Y989804D01*
X727203Y989800D01*
X727117Y989754D01*
X727028Y989714D01*
X727009Y989697D01*
X726985Y989684D01*
X726918Y989614D01*
X726847Y989548D01*
X726834Y989525D01*
X726816Y989506D01*
X726775Y989418D01*
X726728Y989332D01*
X726723Y989307D01*
X726712Y989283D01*
X726702Y989186D01*
X726684Y989090D01*
X726688Y989064D01*
X726685Y989039D01*
X726706Y988943D01*
X726720Y988847D01*
X726732Y988824D01*
X726738Y988798D01*
X726788Y988715D01*
X726832Y988628D01*
X726850Y988609D01*
X726864Y988587D01*
X726938Y988524D01*
X727007Y988456D01*
X727036Y988440D01*
X727051Y988427D01*
X727081Y988415D01*
X727154Y988375D01*
X730087Y987160D01*
X733160Y984087D01*
X734823Y980073D01*
X734823Y975727D01*
X733160Y971713D01*
X730087Y968640D01*
X726073Y966977D01*
X721727Y966977D01*
X717713Y968640D01*
X714640Y971713D01*
X712977Y975727D01*
X712977Y980073D01*
X714640Y984087D01*
X717713Y987160D01*
X720646Y988375D01*
X720729Y988426D01*
X720815Y988472D01*
X720833Y988490D01*
X720855Y988504D01*
X720917Y988580D01*
X720984Y988650D01*
X720995Y988674D01*
X721012Y988694D01*
X721047Y988785D01*
X721088Y988873D01*
X721090Y988899D01*
X721100Y988923D01*
X721104Y989021D01*
X721115Y989117D01*
X721109Y989143D01*
X721110Y989169D01*
X721083Y989263D01*
X721062Y989358D01*
X721049Y989380D01*
X721042Y989405D01*
X720986Y989485D01*
X720936Y989569D01*
X720916Y989586D01*
X720901Y989607D01*
X720823Y989666D01*
X720749Y989729D01*
X720725Y989739D01*
X720704Y989754D01*
X720612Y989784D01*
X720521Y989821D01*
X720489Y989824D01*
X720470Y989830D01*
X720437Y989830D01*
X720354Y989839D01*
X702046Y989839D01*
X701949Y989824D01*
X701853Y989814D01*
X701829Y989804D01*
X701803Y989800D01*
X701717Y989754D01*
X701628Y989714D01*
X701609Y989697D01*
X701585Y989684D01*
X701518Y989614D01*
X701447Y989548D01*
X701434Y989525D01*
X701416Y989506D01*
X701375Y989418D01*
X701328Y989332D01*
X701323Y989307D01*
X701312Y989283D01*
X701302Y989186D01*
X701284Y989090D01*
X701288Y989064D01*
X701285Y989039D01*
X701306Y988943D01*
X701320Y988847D01*
X701332Y988824D01*
X701338Y988798D01*
X701388Y988715D01*
X701432Y988628D01*
X701450Y988609D01*
X701464Y988587D01*
X701538Y988524D01*
X701607Y988456D01*
X701636Y988440D01*
X701651Y988427D01*
X701681Y988415D01*
X701754Y988375D01*
X704687Y987160D01*
X707760Y984087D01*
X709423Y980073D01*
X709423Y975727D01*
X707760Y971713D01*
X704687Y968640D01*
X700673Y966977D01*
X696327Y966977D01*
X692313Y968640D01*
X689240Y971713D01*
X687577Y975727D01*
X687577Y980073D01*
X689240Y984087D01*
X692313Y987160D01*
X695246Y988375D01*
X695329Y988426D01*
X695415Y988472D01*
X695433Y988490D01*
X695455Y988504D01*
X695517Y988580D01*
X695584Y988650D01*
X695595Y988674D01*
X695612Y988694D01*
X695647Y988785D01*
X695688Y988873D01*
X695690Y988899D01*
X695700Y988923D01*
X695704Y989021D01*
X695715Y989117D01*
X695709Y989143D01*
X695710Y989169D01*
X695683Y989263D01*
X695662Y989358D01*
X695649Y989380D01*
X695642Y989405D01*
X695586Y989485D01*
X695536Y989569D01*
X695516Y989586D01*
X695501Y989607D01*
X695423Y989666D01*
X695349Y989729D01*
X695325Y989739D01*
X695304Y989754D01*
X695212Y989784D01*
X695121Y989821D01*
X695089Y989824D01*
X695070Y989830D01*
X695037Y989830D01*
X694954Y989839D01*
X676646Y989839D01*
X676549Y989824D01*
X676453Y989814D01*
X676429Y989804D01*
X676403Y989800D01*
X676317Y989754D01*
X676228Y989714D01*
X676209Y989697D01*
X676185Y989684D01*
X676118Y989614D01*
X676047Y989548D01*
X676034Y989525D01*
X676016Y989506D01*
X675975Y989418D01*
X675928Y989332D01*
X675923Y989307D01*
X675912Y989283D01*
X675902Y989186D01*
X675884Y989090D01*
X675888Y989064D01*
X675885Y989039D01*
X675906Y988943D01*
X675920Y988847D01*
X675932Y988824D01*
X675938Y988798D01*
X675988Y988715D01*
X676032Y988628D01*
X676050Y988609D01*
X676064Y988587D01*
X676138Y988524D01*
X676207Y988456D01*
X676236Y988440D01*
X676251Y988427D01*
X676281Y988415D01*
X676354Y988375D01*
X679287Y987160D01*
X682360Y984087D01*
X684023Y980073D01*
X684023Y975727D01*
X682360Y971713D01*
X679287Y968640D01*
X675273Y966977D01*
X670927Y966977D01*
X666913Y968640D01*
X663840Y971713D01*
X662177Y975727D01*
X662177Y980073D01*
X663840Y984087D01*
X666913Y987160D01*
X669846Y988375D01*
X669929Y988426D01*
X670015Y988472D01*
X670033Y988490D01*
X670055Y988504D01*
X670117Y988580D01*
X670184Y988650D01*
X670195Y988674D01*
X670212Y988694D01*
X670247Y988785D01*
X670288Y988873D01*
X670290Y988899D01*
X670300Y988923D01*
X670304Y989021D01*
X670315Y989117D01*
X670309Y989143D01*
X670310Y989169D01*
X670283Y989263D01*
X670262Y989358D01*
X670249Y989380D01*
X670242Y989405D01*
X670186Y989485D01*
X670136Y989569D01*
X670116Y989586D01*
X670101Y989607D01*
X670023Y989666D01*
X669949Y989729D01*
X669925Y989739D01*
X669904Y989754D01*
X669812Y989784D01*
X669721Y989821D01*
X669689Y989824D01*
X669670Y989830D01*
X669637Y989830D01*
X669554Y989839D01*
X600446Y989839D01*
X600349Y989824D01*
X600253Y989814D01*
X600229Y989804D01*
X600203Y989800D01*
X600117Y989754D01*
X600028Y989714D01*
X600009Y989697D01*
X599985Y989684D01*
X599918Y989614D01*
X599847Y989548D01*
X599834Y989525D01*
X599816Y989506D01*
X599775Y989418D01*
X599728Y989332D01*
X599723Y989307D01*
X599712Y989283D01*
X599702Y989186D01*
X599684Y989090D01*
X599688Y989064D01*
X599685Y989039D01*
X599706Y988943D01*
X599720Y988847D01*
X599732Y988824D01*
X599738Y988798D01*
X599788Y988715D01*
X599832Y988628D01*
X599850Y988609D01*
X599864Y988587D01*
X599938Y988524D01*
X600007Y988456D01*
X600036Y988440D01*
X600051Y988427D01*
X600081Y988415D01*
X600154Y988375D01*
X603087Y987160D01*
X606160Y984087D01*
X607823Y980073D01*
X607823Y975727D01*
X606160Y971713D01*
X603087Y968640D01*
X599073Y966977D01*
X594727Y966977D01*
X590713Y968640D01*
X587640Y971713D01*
X585977Y975727D01*
X585977Y980073D01*
X587640Y984087D01*
X590713Y987160D01*
X593646Y988375D01*
X593729Y988426D01*
X593815Y988472D01*
X593833Y988490D01*
X593855Y988504D01*
X593917Y988580D01*
X593984Y988650D01*
X593995Y988674D01*
X594012Y988694D01*
X594047Y988785D01*
X594088Y988873D01*
X594090Y988899D01*
X594100Y988923D01*
X594104Y989021D01*
X594115Y989117D01*
X594109Y989143D01*
X594110Y989169D01*
X594083Y989263D01*
X594062Y989358D01*
X594049Y989380D01*
X594042Y989405D01*
X593986Y989485D01*
X593936Y989569D01*
X593916Y989586D01*
X593901Y989607D01*
X593823Y989666D01*
X593749Y989729D01*
X593725Y989739D01*
X593704Y989754D01*
X593612Y989784D01*
X593521Y989821D01*
X593489Y989824D01*
X593470Y989830D01*
X593437Y989830D01*
X593354Y989839D01*
X575046Y989839D01*
X574949Y989824D01*
X574853Y989814D01*
X574829Y989804D01*
X574803Y989800D01*
X574717Y989754D01*
X574628Y989714D01*
X574609Y989697D01*
X574585Y989684D01*
X574518Y989614D01*
X574447Y989548D01*
X574434Y989525D01*
X574416Y989506D01*
X574375Y989418D01*
X574328Y989332D01*
X574323Y989307D01*
X574312Y989283D01*
X574302Y989186D01*
X574284Y989090D01*
X574288Y989064D01*
X574285Y989039D01*
X574306Y988943D01*
X574320Y988847D01*
X574332Y988824D01*
X574338Y988798D01*
X574388Y988715D01*
X574432Y988628D01*
X574450Y988609D01*
X574464Y988587D01*
X574538Y988524D01*
X574607Y988456D01*
X574636Y988440D01*
X574651Y988427D01*
X574681Y988415D01*
X574754Y988375D01*
X577687Y987160D01*
X580760Y984087D01*
X582423Y980073D01*
X582423Y975727D01*
X580760Y971713D01*
X577687Y968640D01*
X573673Y966977D01*
X569327Y966977D01*
X565313Y968640D01*
X562240Y971713D01*
X560577Y975727D01*
X560577Y980073D01*
X562240Y984087D01*
X565313Y987160D01*
X568246Y988375D01*
X568329Y988426D01*
X568415Y988472D01*
X568433Y988490D01*
X568455Y988504D01*
X568517Y988580D01*
X568584Y988650D01*
X568595Y988674D01*
X568612Y988694D01*
X568647Y988785D01*
X568688Y988873D01*
X568690Y988899D01*
X568700Y988923D01*
X568704Y989021D01*
X568715Y989117D01*
X568709Y989143D01*
X568710Y989169D01*
X568683Y989263D01*
X568662Y989358D01*
X568649Y989380D01*
X568642Y989405D01*
X568586Y989485D01*
X568536Y989569D01*
X568516Y989586D01*
X568501Y989607D01*
X568423Y989666D01*
X568349Y989729D01*
X568325Y989739D01*
X568304Y989754D01*
X568212Y989784D01*
X568121Y989821D01*
X568089Y989824D01*
X568070Y989830D01*
X568037Y989830D01*
X567954Y989839D01*
X549646Y989839D01*
X549549Y989824D01*
X549453Y989814D01*
X549429Y989804D01*
X549403Y989800D01*
X549317Y989754D01*
X549228Y989714D01*
X549209Y989697D01*
X549185Y989684D01*
X549118Y989614D01*
X549047Y989548D01*
X549034Y989525D01*
X549016Y989506D01*
X548975Y989418D01*
X548928Y989332D01*
X548923Y989307D01*
X548912Y989283D01*
X548902Y989186D01*
X548884Y989090D01*
X548888Y989064D01*
X548885Y989039D01*
X548906Y988943D01*
X548920Y988847D01*
X548932Y988824D01*
X548938Y988798D01*
X548988Y988715D01*
X549032Y988628D01*
X549050Y988609D01*
X549064Y988587D01*
X549138Y988524D01*
X549207Y988456D01*
X549236Y988440D01*
X549251Y988427D01*
X549281Y988415D01*
X549354Y988375D01*
X552287Y987160D01*
X555360Y984087D01*
X557023Y980073D01*
X557023Y975727D01*
X555360Y971713D01*
X552287Y968640D01*
X548273Y966977D01*
X543927Y966977D01*
X539913Y968640D01*
X536840Y971713D01*
X535177Y975727D01*
X535177Y980073D01*
X536840Y984087D01*
X539913Y987160D01*
X542846Y988375D01*
X542929Y988426D01*
X543015Y988472D01*
X543033Y988490D01*
X543055Y988504D01*
X543117Y988580D01*
X543184Y988650D01*
X543195Y988674D01*
X543212Y988694D01*
X543247Y988785D01*
X543288Y988873D01*
X543290Y988899D01*
X543300Y988923D01*
X543304Y989021D01*
X543315Y989117D01*
X543309Y989143D01*
X543310Y989169D01*
X543283Y989263D01*
X543262Y989358D01*
X543249Y989380D01*
X543242Y989405D01*
X543186Y989485D01*
X543136Y989569D01*
X543116Y989586D01*
X543101Y989607D01*
X543023Y989666D01*
X542949Y989729D01*
X542925Y989739D01*
X542904Y989754D01*
X542812Y989784D01*
X542721Y989821D01*
X542689Y989824D01*
X542670Y989830D01*
X542637Y989830D01*
X542554Y989839D01*
X524246Y989839D01*
X524149Y989824D01*
X524053Y989814D01*
X524029Y989804D01*
X524003Y989800D01*
X523917Y989754D01*
X523828Y989714D01*
X523809Y989697D01*
X523785Y989684D01*
X523718Y989614D01*
X523647Y989548D01*
X523634Y989525D01*
X523616Y989506D01*
X523575Y989418D01*
X523528Y989332D01*
X523523Y989307D01*
X523512Y989283D01*
X523502Y989186D01*
X523484Y989090D01*
X523488Y989064D01*
X523485Y989039D01*
X523506Y988943D01*
X523520Y988847D01*
X523532Y988824D01*
X523538Y988798D01*
X523588Y988715D01*
X523632Y988628D01*
X523650Y988609D01*
X523664Y988587D01*
X523738Y988524D01*
X523807Y988456D01*
X523836Y988440D01*
X523851Y988427D01*
X523881Y988415D01*
X523954Y988375D01*
X526887Y987160D01*
X529960Y984087D01*
X531623Y980073D01*
X531623Y975727D01*
X529960Y971713D01*
X526887Y968640D01*
X523457Y967219D01*
X523357Y967158D01*
X523257Y967098D01*
X523253Y967093D01*
X523248Y967090D01*
X523173Y967000D01*
X523097Y966911D01*
X523095Y966905D01*
X523091Y966900D01*
X523049Y966792D01*
X523005Y966683D01*
X523004Y966675D01*
X523003Y966670D01*
X523002Y966652D01*
X522987Y966516D01*
X522987Y964253D01*
X519880Y961146D01*
X519837Y961086D01*
X519794Y961041D01*
X519787Y961025D01*
X519767Y961002D01*
X519755Y960972D01*
X519736Y960946D01*
X519709Y960859D01*
X519708Y960856D01*
X519691Y960818D01*
X519690Y960810D01*
X519675Y960774D01*
X519671Y960733D01*
X519664Y960711D01*
X519665Y960679D01*
X519657Y960607D01*
X519657Y956652D01*
X516548Y953543D01*
X512152Y953543D01*
X509043Y956652D01*
X509043Y961048D01*
X512152Y964157D01*
X516107Y964157D01*
X516198Y964171D01*
X516288Y964179D01*
X516318Y964191D01*
X516350Y964196D01*
X516431Y964239D01*
X516515Y964275D01*
X516547Y964301D01*
X516568Y964312D01*
X516590Y964335D01*
X516646Y964380D01*
X518190Y965924D01*
X518243Y965998D01*
X518303Y966068D01*
X518315Y966098D01*
X518334Y966124D01*
X518361Y966211D01*
X518395Y966296D01*
X518399Y966337D01*
X518406Y966359D01*
X518405Y966391D01*
X518413Y966463D01*
X518413Y966516D01*
X518400Y966597D01*
X518400Y966605D01*
X518398Y966611D01*
X518394Y966631D01*
X518377Y966747D01*
X518375Y966752D01*
X518374Y966759D01*
X518319Y966861D01*
X518266Y966966D01*
X518261Y966970D01*
X518258Y966976D01*
X518174Y967056D01*
X518090Y967138D01*
X518084Y967142D01*
X518080Y967145D01*
X518063Y967153D01*
X517943Y967219D01*
X514513Y968640D01*
X511440Y971713D01*
X509777Y975727D01*
X509777Y980073D01*
X511440Y984087D01*
X514513Y987160D01*
X517446Y988375D01*
X517529Y988426D01*
X517615Y988472D01*
X517633Y988490D01*
X517655Y988504D01*
X517717Y988580D01*
X517784Y988650D01*
X517795Y988674D01*
X517812Y988694D01*
X517847Y988785D01*
X517888Y988873D01*
X517890Y988899D01*
X517900Y988923D01*
X517904Y989021D01*
X517915Y989117D01*
X517909Y989143D01*
X517910Y989169D01*
X517883Y989263D01*
X517862Y989358D01*
X517849Y989380D01*
X517842Y989405D01*
X517786Y989485D01*
X517736Y989569D01*
X517716Y989586D01*
X517701Y989607D01*
X517623Y989666D01*
X517549Y989729D01*
X517525Y989739D01*
X517504Y989754D01*
X517412Y989784D01*
X517321Y989821D01*
X517289Y989824D01*
X517270Y989830D01*
X517237Y989830D01*
X517154Y989839D01*
X448046Y989839D01*
X447949Y989824D01*
X447853Y989814D01*
X447829Y989804D01*
X447803Y989800D01*
X447717Y989754D01*
X447628Y989714D01*
X447609Y989697D01*
X447585Y989684D01*
X447518Y989614D01*
X447447Y989548D01*
X447434Y989525D01*
X447416Y989506D01*
X447375Y989418D01*
X447328Y989332D01*
X447323Y989307D01*
X447312Y989283D01*
X447302Y989186D01*
X447284Y989090D01*
X447288Y989064D01*
X447285Y989039D01*
X447306Y988943D01*
X447320Y988847D01*
X447332Y988824D01*
X447338Y988798D01*
X447388Y988715D01*
X447432Y988628D01*
X447450Y988609D01*
X447464Y988587D01*
X447538Y988524D01*
X447607Y988456D01*
X447636Y988440D01*
X447651Y988427D01*
X447681Y988415D01*
X447754Y988375D01*
X450687Y987160D01*
X453760Y984087D01*
X455423Y980073D01*
X455423Y975727D01*
X453760Y971713D01*
X450687Y968640D01*
X446673Y966977D01*
X442327Y966977D01*
X438313Y968640D01*
X435240Y971713D01*
X433577Y975727D01*
X433577Y980073D01*
X435240Y984087D01*
X438313Y987160D01*
X441246Y988375D01*
X441329Y988426D01*
X441415Y988472D01*
X441433Y988490D01*
X441455Y988504D01*
X441517Y988580D01*
X441584Y988650D01*
X441595Y988674D01*
X441612Y988694D01*
X441647Y988785D01*
X441688Y988873D01*
X441690Y988899D01*
X441700Y988923D01*
X441704Y989021D01*
X441715Y989117D01*
X441709Y989143D01*
X441710Y989169D01*
X441683Y989263D01*
X441662Y989358D01*
X441649Y989380D01*
X441642Y989405D01*
X441586Y989485D01*
X441536Y989569D01*
X441516Y989586D01*
X441501Y989607D01*
X441423Y989666D01*
X441349Y989729D01*
X441325Y989739D01*
X441304Y989754D01*
X441212Y989784D01*
X441121Y989821D01*
X441089Y989824D01*
X441070Y989830D01*
X441037Y989830D01*
X440954Y989839D01*
X422646Y989839D01*
X422549Y989824D01*
X422453Y989814D01*
X422429Y989804D01*
X422403Y989800D01*
X422317Y989754D01*
X422228Y989714D01*
X422209Y989697D01*
X422185Y989684D01*
X422118Y989614D01*
X422047Y989548D01*
X422034Y989525D01*
X422016Y989506D01*
X421975Y989418D01*
X421928Y989332D01*
X421923Y989307D01*
X421912Y989283D01*
X421902Y989186D01*
X421884Y989090D01*
X421888Y989064D01*
X421885Y989039D01*
X421906Y988943D01*
X421920Y988847D01*
X421932Y988824D01*
X421938Y988798D01*
X421988Y988715D01*
X422032Y988628D01*
X422050Y988609D01*
X422064Y988587D01*
X422138Y988524D01*
X422207Y988456D01*
X422236Y988440D01*
X422251Y988427D01*
X422281Y988415D01*
X422354Y988375D01*
X425287Y987160D01*
X428360Y984087D01*
X430023Y980073D01*
X430023Y975727D01*
X428360Y971713D01*
X425287Y968640D01*
X421273Y966977D01*
X416927Y966977D01*
X412913Y968640D01*
X409840Y971713D01*
X408177Y975727D01*
X408177Y980073D01*
X409840Y984087D01*
X412913Y987160D01*
X415846Y988375D01*
X415929Y988426D01*
X416015Y988472D01*
X416033Y988490D01*
X416055Y988504D01*
X416117Y988580D01*
X416184Y988650D01*
X416195Y988674D01*
X416212Y988694D01*
X416247Y988785D01*
X416288Y988873D01*
X416290Y988899D01*
X416300Y988923D01*
X416304Y989021D01*
X416315Y989117D01*
X416309Y989143D01*
X416310Y989169D01*
X416283Y989263D01*
X416262Y989358D01*
X416249Y989380D01*
X416242Y989405D01*
X416186Y989485D01*
X416136Y989569D01*
X416116Y989586D01*
X416101Y989607D01*
X416023Y989666D01*
X415949Y989729D01*
X415925Y989739D01*
X415904Y989754D01*
X415812Y989784D01*
X415721Y989821D01*
X415689Y989824D01*
X415670Y989830D01*
X415637Y989830D01*
X415554Y989839D01*
X397246Y989839D01*
X397149Y989824D01*
X397053Y989814D01*
X397029Y989804D01*
X397003Y989800D01*
X396917Y989754D01*
X396828Y989714D01*
X396809Y989697D01*
X396785Y989684D01*
X396718Y989614D01*
X396647Y989548D01*
X396634Y989525D01*
X396616Y989506D01*
X396575Y989418D01*
X396528Y989332D01*
X396523Y989307D01*
X396512Y989283D01*
X396502Y989186D01*
X396484Y989090D01*
X396488Y989064D01*
X396485Y989039D01*
X396506Y988943D01*
X396520Y988847D01*
X396532Y988824D01*
X396538Y988798D01*
X396588Y988715D01*
X396632Y988628D01*
X396650Y988609D01*
X396664Y988587D01*
X396738Y988524D01*
X396807Y988456D01*
X396836Y988440D01*
X396851Y988427D01*
X396881Y988415D01*
X396954Y988375D01*
X399887Y987160D01*
X402960Y984087D01*
X404623Y980073D01*
X404623Y975727D01*
X402960Y971713D01*
X399887Y968640D01*
X395873Y966977D01*
X391527Y966977D01*
X387513Y968640D01*
X384440Y971713D01*
X382777Y975727D01*
X382777Y980073D01*
X384440Y984087D01*
X387513Y987160D01*
X390446Y988375D01*
X390529Y988426D01*
X390615Y988472D01*
X390633Y988490D01*
X390655Y988504D01*
X390717Y988580D01*
X390784Y988650D01*
X390795Y988674D01*
X390812Y988694D01*
X390847Y988785D01*
X390888Y988873D01*
X390890Y988899D01*
X390900Y988923D01*
X390904Y989021D01*
X390915Y989117D01*
X390909Y989143D01*
X390910Y989169D01*
X390883Y989263D01*
X390862Y989358D01*
X390849Y989380D01*
X390842Y989405D01*
X390786Y989485D01*
X390736Y989569D01*
X390716Y989586D01*
X390701Y989607D01*
X390623Y989666D01*
X390549Y989729D01*
X390525Y989739D01*
X390504Y989754D01*
X390412Y989784D01*
X390321Y989821D01*
X390289Y989824D01*
X390270Y989830D01*
X390237Y989830D01*
X390154Y989839D01*
X371846Y989839D01*
X371749Y989824D01*
X371653Y989814D01*
X371629Y989804D01*
X371603Y989800D01*
X371517Y989754D01*
X371428Y989714D01*
X371409Y989697D01*
X371385Y989684D01*
X371318Y989614D01*
X371247Y989548D01*
X371234Y989525D01*
X371216Y989506D01*
X371175Y989418D01*
X371128Y989332D01*
X371123Y989307D01*
X371112Y989283D01*
X371102Y989186D01*
X371084Y989090D01*
X371088Y989064D01*
X371085Y989039D01*
X371106Y988943D01*
X371120Y988847D01*
X371132Y988824D01*
X371138Y988798D01*
X371188Y988715D01*
X371232Y988628D01*
X371250Y988609D01*
X371264Y988587D01*
X371338Y988524D01*
X371407Y988456D01*
X371436Y988440D01*
X371451Y988427D01*
X371481Y988415D01*
X371554Y988375D01*
X374487Y987160D01*
X377560Y984087D01*
X379223Y980073D01*
X379223Y975727D01*
X377560Y971713D01*
X374487Y968640D01*
X370473Y966977D01*
X366127Y966977D01*
X362113Y968640D01*
X359040Y971713D01*
X357377Y975727D01*
X357377Y980073D01*
X359040Y984087D01*
X362113Y987160D01*
X365046Y988375D01*
X365129Y988426D01*
X365215Y988472D01*
X365233Y988490D01*
X365255Y988504D01*
X365317Y988580D01*
X365384Y988650D01*
X365395Y988674D01*
X365412Y988694D01*
X365447Y988785D01*
X365488Y988873D01*
X365490Y988899D01*
X365500Y988923D01*
X365504Y989021D01*
X365515Y989117D01*
X365509Y989143D01*
X365510Y989169D01*
X365483Y989263D01*
X365462Y989358D01*
X365449Y989380D01*
X365442Y989405D01*
X365386Y989485D01*
X365336Y989569D01*
X365316Y989586D01*
X365301Y989607D01*
X365223Y989666D01*
X365149Y989729D01*
X365125Y989739D01*
X365104Y989754D01*
X365012Y989784D01*
X364921Y989821D01*
X364889Y989824D01*
X364870Y989830D01*
X364837Y989830D01*
X364754Y989839D01*
X105764Y989839D01*
X105743Y989836D01*
X105721Y989838D01*
X105622Y989816D01*
X105521Y989800D01*
X105502Y989789D01*
X105481Y989785D01*
X105394Y989732D01*
X105304Y989684D01*
X105289Y989669D01*
X105271Y989658D01*
X105205Y989580D01*
X105135Y989506D01*
X105126Y989486D01*
X105112Y989470D01*
X105074Y989376D01*
X105031Y989283D01*
X105029Y989262D01*
X105021Y989242D01*
X105015Y989140D01*
X105004Y989039D01*
X105008Y989017D01*
X105007Y988996D01*
X105035Y988898D01*
X105056Y988798D01*
X105067Y988780D01*
X105073Y988759D01*
X105130Y988675D01*
X105182Y988587D01*
X105199Y988573D01*
X105211Y988555D01*
X105292Y988494D01*
X105369Y988427D01*
X105389Y988419D01*
X105406Y988406D01*
X105562Y988344D01*
X110685Y986935D01*
X110986Y986701D01*
X111025Y986680D01*
X111059Y986651D01*
X111132Y986621D01*
X111202Y986583D01*
X111246Y986576D01*
X111287Y986559D01*
X111430Y986543D01*
X111444Y986541D01*
X111448Y986541D01*
X111453Y986541D01*
X116534Y986541D01*
X117181Y986368D01*
X117760Y986033D01*
X118233Y985560D01*
X118568Y984981D01*
X118741Y984334D01*
X118741Y972910D01*
X118662Y972868D01*
X118648Y972854D01*
X118631Y972844D01*
X118564Y972765D01*
X118492Y972690D01*
X118484Y972672D01*
X118471Y972657D01*
X118432Y972561D01*
X118389Y972467D01*
X118387Y972447D01*
X118379Y972429D01*
X118361Y972262D01*
X118361Y970738D01*
X118364Y970718D01*
X118362Y970699D01*
X118384Y970597D01*
X118400Y970495D01*
X118410Y970478D01*
X118414Y970458D01*
X118467Y970369D01*
X118516Y970278D01*
X118530Y970264D01*
X118540Y970247D01*
X118619Y970180D01*
X118694Y970109D01*
X118712Y970100D01*
X118727Y970087D01*
X118741Y970082D01*
X118741Y966922D01*
X118744Y966902D01*
X118742Y966883D01*
X118764Y966781D01*
X118780Y966679D01*
X118790Y966662D01*
X118794Y966642D01*
X118847Y966553D01*
X118896Y966462D01*
X118910Y966448D01*
X118920Y966431D01*
X118999Y966364D01*
X119074Y966292D01*
X119092Y966284D01*
X119107Y966271D01*
X119203Y966232D01*
X119297Y966189D01*
X119317Y966187D01*
X119335Y966179D01*
X119502Y966161D01*
X122917Y966161D01*
X127938Y964081D01*
X131781Y960238D01*
X133861Y955217D01*
X133861Y949783D01*
X131781Y944762D01*
X127938Y940919D01*
X122917Y938839D01*
X117483Y938839D01*
X115724Y939568D01*
X115705Y939572D01*
X115687Y939582D01*
X115585Y939600D01*
X115485Y939624D01*
X115465Y939622D01*
X115445Y939626D01*
X115343Y939610D01*
X115240Y939601D01*
X115221Y939593D01*
X115202Y939590D01*
X115109Y939543D01*
X115015Y939501D01*
X115000Y939487D01*
X114982Y939478D01*
X114910Y939404D01*
X114834Y939334D01*
X114824Y939317D01*
X114810Y939303D01*
X114780Y939248D01*
X113753Y937711D01*
X112489Y936447D01*
X111001Y935453D01*
X109349Y934768D01*
X108223Y934544D01*
X108223Y942738D01*
X108220Y942758D01*
X108222Y942777D01*
X108200Y942879D01*
X108183Y942981D01*
X108174Y942998D01*
X108170Y943018D01*
X108117Y943107D01*
X108068Y943198D01*
X108054Y943212D01*
X108044Y943229D01*
X107965Y943296D01*
X107890Y943367D01*
X107872Y943376D01*
X107857Y943389D01*
X107761Y943427D01*
X107667Y943471D01*
X107647Y943473D01*
X107629Y943481D01*
X107462Y943499D01*
X106699Y943499D01*
X106699Y944262D01*
X106696Y944282D01*
X106698Y944301D01*
X106676Y944403D01*
X106659Y944505D01*
X106650Y944522D01*
X106646Y944542D01*
X106593Y944631D01*
X106544Y944722D01*
X106530Y944736D01*
X106520Y944753D01*
X106441Y944820D01*
X106366Y944891D01*
X106348Y944900D01*
X106333Y944913D01*
X106237Y944952D01*
X106143Y944995D01*
X106123Y944997D01*
X106105Y945005D01*
X105938Y945023D01*
X84664Y945023D01*
X84888Y946149D01*
X85573Y947801D01*
X86567Y949289D01*
X87831Y950553D01*
X89319Y951547D01*
X90971Y952232D01*
X92726Y952581D01*
X105778Y952581D01*
X105798Y952584D01*
X105817Y952582D01*
X105919Y952604D01*
X106021Y952620D01*
X106038Y952630D01*
X106058Y952634D01*
X106147Y952687D01*
X106238Y952736D01*
X106252Y952750D01*
X106269Y952760D01*
X106336Y952839D01*
X106408Y952914D01*
X106416Y952932D01*
X106429Y952947D01*
X106468Y953043D01*
X106511Y953137D01*
X106513Y953157D01*
X106521Y953175D01*
X106539Y953342D01*
X106539Y953926D01*
X106520Y954042D01*
X106501Y954165D01*
X106500Y954167D01*
X106500Y954169D01*
X106443Y954275D01*
X106386Y954383D01*
X106385Y954384D01*
X106384Y954386D01*
X106297Y954469D01*
X106209Y954553D01*
X106207Y954554D01*
X106206Y954555D01*
X106096Y954607D01*
X105986Y954658D01*
X105984Y954658D01*
X105983Y954659D01*
X105863Y954672D01*
X105742Y954686D01*
X105740Y954686D01*
X105739Y954686D01*
X105732Y954685D01*
X105576Y954660D01*
X105241Y954568D01*
X103794Y954748D01*
X103784Y954748D01*
X103773Y954751D01*
X103606Y954748D01*
X102159Y954568D01*
X96715Y956064D01*
X96414Y956299D01*
X96375Y956320D01*
X96341Y956349D01*
X96268Y956379D01*
X96198Y956417D01*
X96154Y956424D01*
X96113Y956441D01*
X95970Y956457D01*
X95956Y956459D01*
X95952Y956459D01*
X95947Y956459D01*
X90866Y956459D01*
X90219Y956632D01*
X89640Y956967D01*
X89167Y957440D01*
X88832Y958019D01*
X88659Y958666D01*
X88659Y970090D01*
X88738Y970132D01*
X88752Y970146D01*
X88769Y970156D01*
X88836Y970235D01*
X88908Y970310D01*
X88916Y970328D01*
X88929Y970343D01*
X88968Y970439D01*
X89011Y970533D01*
X89013Y970553D01*
X89021Y970571D01*
X89039Y970738D01*
X89039Y972262D01*
X89036Y972282D01*
X89038Y972301D01*
X89016Y972403D01*
X89000Y972505D01*
X88990Y972522D01*
X88986Y972542D01*
X88933Y972631D01*
X88884Y972722D01*
X88870Y972736D01*
X88860Y972753D01*
X88781Y972820D01*
X88706Y972891D01*
X88688Y972900D01*
X88673Y972913D01*
X88659Y972918D01*
X88659Y984334D01*
X88832Y984981D01*
X89167Y985560D01*
X89640Y986033D01*
X90219Y986368D01*
X90866Y986541D01*
X95947Y986541D01*
X95990Y986548D01*
X96035Y986546D01*
X96111Y986568D01*
X96189Y986580D01*
X96228Y986601D01*
X96271Y986613D01*
X96394Y986689D01*
X96407Y986696D01*
X96409Y986698D01*
X96414Y986701D01*
X96715Y986935D01*
X101838Y988344D01*
X101857Y988353D01*
X101879Y988357D01*
X101968Y988404D01*
X102061Y988447D01*
X102077Y988462D01*
X102096Y988472D01*
X102166Y988545D01*
X102240Y988615D01*
X102251Y988634D01*
X102265Y988650D01*
X102308Y988742D01*
X102356Y988832D01*
X102360Y988853D01*
X102369Y988873D01*
X102380Y988974D01*
X102397Y989075D01*
X102394Y989096D01*
X102396Y989117D01*
X102374Y989217D01*
X102358Y989318D01*
X102348Y989337D01*
X102344Y989358D01*
X102292Y989445D01*
X102244Y989536D01*
X102229Y989550D01*
X102218Y989569D01*
X102140Y989635D01*
X102067Y989706D01*
X102047Y989715D01*
X102031Y989729D01*
X101936Y989767D01*
X101844Y989810D01*
X101823Y989813D01*
X101803Y989821D01*
X101636Y989839D01*
X67046Y989839D01*
X66949Y989824D01*
X66853Y989814D01*
X66829Y989804D01*
X66803Y989800D01*
X66717Y989754D01*
X66628Y989714D01*
X66609Y989697D01*
X66585Y989684D01*
X66518Y989614D01*
X66447Y989548D01*
X66434Y989525D01*
X66416Y989506D01*
X66375Y989418D01*
X66328Y989332D01*
X66323Y989307D01*
X66312Y989283D01*
X66302Y989186D01*
X66284Y989090D01*
X66288Y989064D01*
X66285Y989039D01*
X66306Y988943D01*
X66320Y988847D01*
X66332Y988824D01*
X66338Y988798D01*
X66388Y988715D01*
X66432Y988628D01*
X66450Y988609D01*
X66464Y988587D01*
X66538Y988524D01*
X66607Y988456D01*
X66636Y988440D01*
X66651Y988427D01*
X66681Y988415D01*
X66754Y988375D01*
X69687Y987160D01*
X72760Y984087D01*
X74423Y980073D01*
X74423Y975727D01*
X72760Y971713D01*
X69687Y968640D01*
X65673Y966977D01*
X61327Y966977D01*
X57313Y968640D01*
X54240Y971713D01*
X52577Y975727D01*
X52577Y980073D01*
X54240Y984087D01*
X57313Y987160D01*
X60246Y988375D01*
X60329Y988426D01*
X60415Y988472D01*
X60433Y988490D01*
X60455Y988504D01*
X60517Y988580D01*
X60584Y988650D01*
X60595Y988674D01*
X60612Y988694D01*
X60647Y988785D01*
X60688Y988873D01*
X60690Y988899D01*
X60700Y988923D01*
X60704Y989021D01*
X60715Y989117D01*
X60709Y989143D01*
X60710Y989169D01*
X60683Y989263D01*
X60662Y989358D01*
X60649Y989380D01*
X60642Y989405D01*
X60586Y989485D01*
X60536Y989569D01*
X60516Y989586D01*
X60501Y989607D01*
X60423Y989666D01*
X60349Y989729D01*
X60325Y989739D01*
X60304Y989754D01*
X60212Y989784D01*
X60121Y989821D01*
X60089Y989824D01*
X60070Y989830D01*
X60037Y989830D01*
X59954Y989839D01*
X44136Y989839D01*
X44069Y989828D01*
X44001Y989827D01*
X43948Y989809D01*
X43893Y989800D01*
X43833Y989768D01*
X43769Y989745D01*
X43725Y989711D01*
X43676Y989684D01*
X43629Y989635D01*
X43576Y989593D01*
X43545Y989547D01*
X43506Y989506D01*
X43478Y989445D01*
X43441Y989388D01*
X43426Y989334D01*
X43403Y989283D01*
X43395Y989216D01*
X43378Y989150D01*
X43382Y989094D01*
X43376Y989039D01*
X43390Y988972D01*
X43395Y988905D01*
X43416Y988853D01*
X43428Y988798D01*
X43463Y988740D01*
X43489Y988677D01*
X43526Y988635D01*
X43554Y988587D01*
X43606Y988543D01*
X43650Y988492D01*
X43716Y988449D01*
X43741Y988427D01*
X43761Y988419D01*
X43790Y988400D01*
X44357Y988111D01*
X45878Y987006D01*
X47206Y985678D01*
X48311Y984157D01*
X49164Y982483D01*
X49745Y980696D01*
X49946Y979423D01*
X38862Y979423D01*
X38842Y979420D01*
X38823Y979422D01*
X38721Y979400D01*
X38619Y979383D01*
X38602Y979374D01*
X38582Y979370D01*
X38493Y979317D01*
X38402Y979268D01*
X38388Y979254D01*
X38371Y979244D01*
X38304Y979165D01*
X38233Y979090D01*
X38224Y979072D01*
X38211Y979057D01*
X38173Y978961D01*
X38129Y978867D01*
X38127Y978847D01*
X38119Y978829D01*
X38101Y978662D01*
X38101Y977899D01*
X38099Y977899D01*
X38099Y978662D01*
X38096Y978682D01*
X38098Y978701D01*
X38076Y978803D01*
X38059Y978905D01*
X38050Y978922D01*
X38046Y978942D01*
X37993Y979031D01*
X37944Y979122D01*
X37930Y979136D01*
X37920Y979153D01*
X37841Y979220D01*
X37766Y979291D01*
X37748Y979300D01*
X37733Y979313D01*
X37637Y979352D01*
X37543Y979395D01*
X37523Y979397D01*
X37505Y979405D01*
X37338Y979423D01*
X26254Y979423D01*
X26455Y980696D01*
X27036Y982483D01*
X27889Y984157D01*
X28994Y985678D01*
X30322Y987006D01*
X31843Y988111D01*
X32410Y988400D01*
X32464Y988440D01*
X32524Y988472D01*
X32563Y988512D01*
X32608Y988545D01*
X32647Y988601D01*
X32694Y988650D01*
X32717Y988701D01*
X32749Y988747D01*
X32769Y988812D01*
X32797Y988873D01*
X32803Y988929D01*
X32819Y988982D01*
X32817Y989050D01*
X32824Y989117D01*
X32812Y989172D01*
X32810Y989228D01*
X32786Y989292D01*
X32772Y989358D01*
X32743Y989406D01*
X32723Y989458D01*
X32681Y989511D01*
X32646Y989569D01*
X32603Y989605D01*
X32568Y989649D01*
X32510Y989685D01*
X32459Y989729D01*
X32407Y989750D01*
X32360Y989780D01*
X32294Y989795D01*
X32231Y989821D01*
X32152Y989829D01*
X32120Y989837D01*
X32100Y989835D01*
X32064Y989839D01*
X12700Y989839D01*
X12680Y989836D01*
X12661Y989838D01*
X12559Y989816D01*
X12457Y989800D01*
X12440Y989790D01*
X12420Y989786D01*
X12331Y989733D01*
X12240Y989684D01*
X12226Y989670D01*
X12209Y989660D01*
X12142Y989581D01*
X12071Y989506D01*
X12062Y989488D01*
X12049Y989473D01*
X12010Y989377D01*
X11967Y989283D01*
X11965Y989263D01*
X11957Y989245D01*
X11939Y989078D01*
X11939Y962317D01*
X11950Y962246D01*
X11952Y962175D01*
X11970Y962126D01*
X11979Y962074D01*
X12012Y962011D01*
X12037Y961944D01*
X12069Y961903D01*
X12094Y961857D01*
X12146Y961808D01*
X12190Y961752D01*
X12234Y961723D01*
X12272Y961688D01*
X12337Y961657D01*
X12397Y961619D01*
X12448Y961606D01*
X12495Y961584D01*
X12566Y961576D01*
X12636Y961559D01*
X12688Y961563D01*
X12739Y961557D01*
X12810Y961572D01*
X12881Y961578D01*
X12929Y961598D01*
X12980Y961609D01*
X13041Y961646D01*
X13107Y961674D01*
X13163Y961719D01*
X13191Y961735D01*
X13206Y961753D01*
X13238Y961779D01*
X16812Y965353D01*
X22384Y967661D01*
X28416Y967661D01*
X30536Y966782D01*
X30570Y966774D01*
X30600Y966759D01*
X30689Y966747D01*
X30776Y966726D01*
X30810Y966729D01*
X30843Y966724D01*
X30932Y966741D01*
X31021Y966749D01*
X31052Y966763D01*
X31085Y966769D01*
X31164Y966813D01*
X31245Y966849D01*
X31270Y966872D01*
X31300Y966889D01*
X31361Y966955D01*
X31427Y967016D01*
X31443Y967045D01*
X31466Y967071D01*
X31502Y967152D01*
X31545Y967231D01*
X31551Y967265D01*
X31565Y967296D01*
X31573Y967385D01*
X31589Y967473D01*
X31584Y967507D01*
X31587Y967541D01*
X31566Y967628D01*
X31553Y967717D01*
X31538Y967747D01*
X31530Y967780D01*
X31482Y967856D01*
X31442Y967936D01*
X31417Y967960D01*
X31399Y967988D01*
X31275Y968101D01*
X30322Y968794D01*
X28994Y970122D01*
X27889Y971643D01*
X27036Y973317D01*
X26455Y975104D01*
X26254Y976377D01*
X36577Y976377D01*
X36577Y966054D01*
X35304Y966255D01*
X35033Y966343D01*
X34966Y966354D01*
X34901Y966374D01*
X34845Y966372D01*
X34790Y966381D01*
X34723Y966369D01*
X34655Y966367D01*
X34603Y966348D01*
X34547Y966338D01*
X34488Y966306D01*
X34424Y966283D01*
X34380Y966248D01*
X34331Y966221D01*
X34285Y966172D01*
X34232Y966129D01*
X34202Y966082D01*
X34164Y966041D01*
X34136Y965979D01*
X34099Y965922D01*
X34085Y965868D01*
X34062Y965817D01*
X34056Y965749D01*
X34039Y965684D01*
X34043Y965628D01*
X34038Y965572D01*
X34053Y965506D01*
X34058Y965438D01*
X34080Y965387D01*
X34093Y965332D01*
X34128Y965274D01*
X34154Y965212D01*
X34204Y965151D01*
X34221Y965123D01*
X34237Y965109D01*
X34259Y965081D01*
X38253Y961088D01*
X40561Y955516D01*
X40561Y949484D01*
X38253Y943912D01*
X33988Y939647D01*
X28416Y937339D01*
X22384Y937339D01*
X16812Y939647D01*
X13238Y943221D01*
X13180Y943263D01*
X13128Y943312D01*
X13081Y943334D01*
X13039Y943365D01*
X12970Y943386D01*
X12905Y943416D01*
X12853Y943422D01*
X12803Y943437D01*
X12732Y943435D01*
X12661Y943443D01*
X12610Y943432D01*
X12558Y943431D01*
X12490Y943406D01*
X12420Y943391D01*
X12376Y943364D01*
X12327Y943346D01*
X12271Y943301D01*
X12209Y943265D01*
X12175Y943225D01*
X12135Y943193D01*
X12096Y943132D01*
X12049Y943078D01*
X12030Y943029D01*
X12002Y942986D01*
X11984Y942916D01*
X11957Y942850D01*
X11949Y942778D01*
X11941Y942747D01*
X11943Y942724D01*
X11939Y942683D01*
X11939Y454317D01*
X11950Y454246D01*
X11952Y454175D01*
X11970Y454126D01*
X11979Y454074D01*
X12012Y454011D01*
X12037Y453944D01*
X12069Y453903D01*
X12094Y453857D01*
X12146Y453808D01*
X12190Y453752D01*
X12234Y453723D01*
X12272Y453688D01*
X12337Y453657D01*
X12397Y453619D01*
X12448Y453606D01*
X12495Y453584D01*
X12566Y453576D01*
X12636Y453559D01*
X12688Y453563D01*
X12739Y453557D01*
X12810Y453572D01*
X12881Y453578D01*
X12929Y453598D01*
X12980Y453609D01*
X13041Y453646D01*
X13107Y453674D01*
X13163Y453719D01*
X13191Y453735D01*
X13206Y453753D01*
X13238Y453779D01*
X16812Y457353D01*
X22384Y459661D01*
X28416Y459661D01*
X33988Y457353D01*
X38253Y453088D01*
X40561Y447516D01*
X40561Y441484D01*
X38253Y435912D01*
X33988Y431647D01*
X31762Y430725D01*
X31679Y430674D01*
X31593Y430628D01*
X31575Y430610D01*
X31553Y430596D01*
X31490Y430520D01*
X31424Y430450D01*
X31413Y430426D01*
X31396Y430406D01*
X31361Y430315D01*
X31320Y430227D01*
X31317Y430201D01*
X31308Y430177D01*
X31304Y430079D01*
X31293Y429983D01*
X31298Y429957D01*
X31297Y429931D01*
X31324Y429837D01*
X31345Y429742D01*
X31359Y429720D01*
X31366Y429695D01*
X31421Y429615D01*
X31471Y429531D01*
X31491Y429514D01*
X31506Y429493D01*
X31584Y429434D01*
X31658Y429371D01*
X31682Y429361D01*
X31703Y429346D01*
X31796Y429316D01*
X31886Y429279D01*
X31919Y429276D01*
X31937Y429270D01*
X31970Y429270D01*
X32053Y429261D01*
X1161747Y429261D01*
X1161843Y429276D01*
G37*
%LPC*%
G36*
X308568Y486775D02*
X308568Y486775D01*
X307675Y487668D01*
X307675Y498400D01*
X307661Y498491D01*
X307653Y498581D01*
X307641Y498611D01*
X307636Y498643D01*
X307593Y498724D01*
X307557Y498808D01*
X307531Y498840D01*
X307520Y498861D01*
X307497Y498883D01*
X307452Y498939D01*
X302513Y503878D01*
X302513Y664522D01*
X307452Y669461D01*
X307505Y669535D01*
X307565Y669605D01*
X307577Y669635D01*
X307596Y669661D01*
X307623Y669748D01*
X307657Y669833D01*
X307661Y669874D01*
X307668Y669896D01*
X307667Y669928D01*
X307675Y670000D01*
X307675Y679577D01*
X307672Y679597D01*
X307674Y679616D01*
X307652Y679718D01*
X307636Y679820D01*
X307626Y679837D01*
X307622Y679857D01*
X307569Y679946D01*
X307520Y680037D01*
X307506Y680051D01*
X307496Y680068D01*
X307417Y680135D01*
X307342Y680207D01*
X307324Y680215D01*
X307309Y680228D01*
X307213Y680267D01*
X307119Y680310D01*
X307099Y680312D01*
X307081Y680320D01*
X306914Y680338D01*
X195903Y680338D01*
X172338Y703903D01*
X172338Y902517D01*
X172324Y902607D01*
X172316Y902698D01*
X172304Y902727D01*
X172299Y902759D01*
X172256Y902840D01*
X172220Y902924D01*
X172194Y902956D01*
X172183Y902977D01*
X172160Y902999D01*
X172115Y903055D01*
X169318Y905852D01*
X169318Y910248D01*
X172427Y913357D01*
X176823Y913357D01*
X179932Y910248D01*
X179932Y905852D01*
X177135Y903055D01*
X177082Y902981D01*
X177022Y902911D01*
X177010Y902881D01*
X176991Y902855D01*
X176964Y902768D01*
X176930Y902683D01*
X176926Y902642D01*
X176919Y902620D01*
X176920Y902588D01*
X176912Y902517D01*
X176912Y706113D01*
X176926Y706022D01*
X176934Y705932D01*
X176946Y705902D01*
X176951Y705870D01*
X176994Y705789D01*
X177030Y705705D01*
X177056Y705673D01*
X177067Y705652D01*
X177090Y705630D01*
X177135Y705574D01*
X197574Y685135D01*
X197648Y685082D01*
X197718Y685022D01*
X197748Y685010D01*
X197774Y684991D01*
X197861Y684964D01*
X197946Y684930D01*
X197987Y684926D01*
X198009Y684919D01*
X198041Y684920D01*
X198113Y684912D01*
X324797Y684912D01*
X326137Y683572D01*
X326137Y657098D01*
X326140Y657078D01*
X326138Y657059D01*
X326160Y656957D01*
X326176Y656855D01*
X326186Y656838D01*
X326190Y656818D01*
X326243Y656729D01*
X326292Y656638D01*
X326306Y656624D01*
X326316Y656607D01*
X326395Y656540D01*
X326470Y656468D01*
X326488Y656460D01*
X326503Y656447D01*
X326599Y656408D01*
X326693Y656365D01*
X326713Y656363D01*
X326731Y656355D01*
X326898Y656337D01*
X353496Y656337D01*
X353566Y656348D01*
X353638Y656350D01*
X353687Y656368D01*
X353738Y656376D01*
X353802Y656410D01*
X353869Y656435D01*
X353910Y656467D01*
X353956Y656492D01*
X354005Y656544D01*
X354061Y656588D01*
X354089Y656632D01*
X354125Y656670D01*
X354155Y656735D01*
X354194Y656795D01*
X354207Y656846D01*
X354229Y656893D01*
X354237Y656964D01*
X354254Y657034D01*
X354250Y657086D01*
X354256Y657137D01*
X354241Y657208D01*
X354235Y657279D01*
X354215Y657327D01*
X354204Y657378D01*
X354167Y657439D01*
X354139Y657505D01*
X354094Y657561D01*
X354077Y657589D01*
X354060Y657604D01*
X354034Y657636D01*
X353468Y658202D01*
X353468Y662157D01*
X353454Y662248D01*
X353446Y662338D01*
X353434Y662368D01*
X353429Y662400D01*
X353386Y662481D01*
X353350Y662565D01*
X353324Y662597D01*
X353313Y662618D01*
X353290Y662640D01*
X353245Y662696D01*
X351589Y664352D01*
X351515Y664405D01*
X351445Y664465D01*
X351415Y664477D01*
X351389Y664496D01*
X351302Y664523D01*
X351217Y664557D01*
X351176Y664561D01*
X351154Y664568D01*
X351122Y664567D01*
X351050Y664575D01*
X338568Y664575D01*
X337675Y665468D01*
X337675Y680732D01*
X338568Y681625D01*
X351832Y681625D01*
X352725Y680732D01*
X352725Y670000D01*
X352739Y669909D01*
X352747Y669819D01*
X352759Y669789D01*
X352764Y669757D01*
X352807Y669676D01*
X352843Y669592D01*
X352869Y669560D01*
X352880Y669539D01*
X352903Y669517D01*
X352948Y669461D01*
X356479Y665930D01*
X356553Y665877D01*
X356623Y665817D01*
X356653Y665805D01*
X356679Y665786D01*
X356766Y665759D01*
X356851Y665725D01*
X356892Y665721D01*
X356914Y665714D01*
X356946Y665715D01*
X357018Y665707D01*
X360973Y665707D01*
X364082Y662598D01*
X364082Y658202D01*
X363516Y657636D01*
X363474Y657578D01*
X363425Y657526D01*
X363403Y657479D01*
X363373Y657437D01*
X363351Y657368D01*
X363321Y657303D01*
X363316Y657251D01*
X363300Y657201D01*
X363302Y657130D01*
X363294Y657059D01*
X363305Y657008D01*
X363307Y656956D01*
X363331Y656888D01*
X363346Y656818D01*
X363373Y656773D01*
X363391Y656725D01*
X363436Y656669D01*
X363473Y656607D01*
X363512Y656573D01*
X363545Y656533D01*
X363605Y656494D01*
X363660Y656447D01*
X363708Y656428D01*
X363752Y656400D01*
X363821Y656382D01*
X363888Y656355D01*
X363959Y656347D01*
X363990Y656339D01*
X364013Y656341D01*
X364054Y656337D01*
X575492Y656337D01*
X575582Y656351D01*
X575673Y656359D01*
X575702Y656371D01*
X575734Y656376D01*
X575815Y656419D01*
X575899Y656455D01*
X575931Y656481D01*
X575952Y656492D01*
X575974Y656515D01*
X576030Y656560D01*
X578827Y659357D01*
X583223Y659357D01*
X586332Y656248D01*
X586332Y651852D01*
X583223Y648743D01*
X578827Y648743D01*
X576030Y651540D01*
X575956Y651593D01*
X575886Y651653D01*
X575856Y651665D01*
X575830Y651684D01*
X575743Y651711D01*
X575658Y651745D01*
X575617Y651749D01*
X575595Y651756D01*
X575563Y651755D01*
X575492Y651763D01*
X322903Y651763D01*
X321563Y653103D01*
X321563Y663814D01*
X321560Y663834D01*
X321562Y663853D01*
X321540Y663955D01*
X321524Y664057D01*
X321514Y664074D01*
X321510Y664094D01*
X321457Y664183D01*
X321408Y664274D01*
X321394Y664288D01*
X321384Y664305D01*
X321305Y664372D01*
X321230Y664444D01*
X321212Y664452D01*
X321197Y664465D01*
X321101Y664504D01*
X321007Y664547D01*
X320987Y664549D01*
X320969Y664557D01*
X320802Y664575D01*
X309350Y664575D01*
X309259Y664561D01*
X309169Y664553D01*
X309139Y664541D01*
X309107Y664536D01*
X309026Y664493D01*
X308942Y664457D01*
X308910Y664431D01*
X308889Y664420D01*
X308867Y664397D01*
X308811Y664352D01*
X307310Y662851D01*
X307257Y662777D01*
X307197Y662707D01*
X307185Y662677D01*
X307166Y662651D01*
X307139Y662564D01*
X307105Y662479D01*
X307101Y662438D01*
X307094Y662416D01*
X307095Y662384D01*
X307087Y662312D01*
X307087Y661663D01*
X307101Y661572D01*
X307109Y661482D01*
X307121Y661452D01*
X307126Y661420D01*
X307169Y661339D01*
X307205Y661255D01*
X307231Y661223D01*
X307242Y661202D01*
X307265Y661180D01*
X307310Y661124D01*
X343599Y624835D01*
X343599Y595741D01*
X343602Y595721D01*
X343600Y595702D01*
X343622Y595600D01*
X343639Y595498D01*
X343648Y595481D01*
X343653Y595461D01*
X343706Y595372D01*
X343754Y595281D01*
X343768Y595267D01*
X343779Y595250D01*
X343857Y595183D01*
X343932Y595111D01*
X343950Y595103D01*
X343966Y595090D01*
X344062Y595051D01*
X344155Y595008D01*
X344175Y595006D01*
X344194Y594998D01*
X344360Y594980D01*
X345272Y594980D01*
X346165Y594087D01*
X346165Y590949D01*
X346176Y590878D01*
X346178Y590807D01*
X346196Y590758D01*
X346204Y590706D01*
X346238Y590643D01*
X346263Y590576D01*
X346295Y590535D01*
X346320Y590489D01*
X346372Y590439D01*
X346416Y590383D01*
X346460Y590355D01*
X346498Y590319D01*
X346563Y590289D01*
X346623Y590250D01*
X346674Y590238D01*
X346721Y590216D01*
X346792Y590208D01*
X346862Y590190D01*
X346914Y590194D01*
X346965Y590189D01*
X347036Y590204D01*
X347107Y590210D01*
X347155Y590230D01*
X347206Y590241D01*
X347267Y590278D01*
X347333Y590306D01*
X347389Y590351D01*
X347417Y590367D01*
X347432Y590385D01*
X347464Y590411D01*
X353245Y596192D01*
X353298Y596266D01*
X353315Y596285D01*
X353337Y596308D01*
X353339Y596313D01*
X353358Y596335D01*
X353370Y596365D01*
X353389Y596391D01*
X353415Y596477D01*
X353440Y596531D01*
X353441Y596543D01*
X353450Y596563D01*
X353454Y596604D01*
X353461Y596627D01*
X353460Y596659D01*
X353468Y596730D01*
X353468Y600686D01*
X356577Y603794D01*
X360973Y603794D01*
X364082Y600686D01*
X364082Y596289D01*
X360973Y593181D01*
X357018Y593181D01*
X356927Y593166D01*
X356837Y593159D01*
X356807Y593146D01*
X356775Y593141D01*
X356694Y593098D01*
X356610Y593063D01*
X356578Y593037D01*
X356557Y593026D01*
X356535Y593003D01*
X356479Y592958D01*
X346758Y583237D01*
X346732Y583201D01*
X346700Y583171D01*
X346661Y583102D01*
X346614Y583037D01*
X346601Y582995D01*
X346580Y582957D01*
X346566Y582878D01*
X346542Y582802D01*
X346543Y582758D01*
X346535Y582715D01*
X346546Y582636D01*
X346548Y582556D01*
X346563Y582515D01*
X346570Y582471D01*
X346628Y582338D01*
X346633Y582325D01*
X346635Y582322D01*
X346637Y582318D01*
X347008Y581676D01*
X347181Y581029D01*
X347181Y579039D01*
X342658Y579039D01*
X342639Y579036D01*
X342619Y579038D01*
X342517Y579016D01*
X342415Y579000D01*
X342398Y578990D01*
X342378Y578986D01*
X342289Y578933D01*
X342198Y578884D01*
X342184Y578870D01*
X342167Y578860D01*
X342100Y578781D01*
X342029Y578706D01*
X342020Y578688D01*
X342007Y578673D01*
X341969Y578577D01*
X341925Y578483D01*
X341923Y578463D01*
X341915Y578445D01*
X341897Y578278D01*
X341897Y578123D01*
X341742Y578123D01*
X341722Y578120D01*
X341702Y578122D01*
X341601Y578100D01*
X341499Y578083D01*
X341482Y578074D01*
X341462Y578070D01*
X341373Y578017D01*
X341282Y577968D01*
X341268Y577954D01*
X341251Y577944D01*
X341184Y577865D01*
X341112Y577790D01*
X341104Y577772D01*
X341091Y577757D01*
X341052Y577660D01*
X341009Y577567D01*
X341007Y577547D01*
X340999Y577529D01*
X340981Y577362D01*
X340981Y572404D01*
X339426Y572404D01*
X338779Y572577D01*
X338200Y572912D01*
X337915Y573197D01*
X337841Y573250D01*
X337771Y573310D01*
X337741Y573322D01*
X337715Y573341D01*
X337628Y573368D01*
X337543Y573402D01*
X337502Y573406D01*
X337480Y573413D01*
X337448Y573412D01*
X337376Y573420D01*
X334939Y573420D01*
X334868Y573409D01*
X334797Y573407D01*
X334748Y573389D01*
X334696Y573381D01*
X334633Y573347D01*
X334566Y573322D01*
X334525Y573290D01*
X334479Y573265D01*
X334429Y573213D01*
X334373Y573169D01*
X334345Y573125D01*
X334309Y573087D01*
X334279Y573022D01*
X334240Y572962D01*
X334228Y572911D01*
X334206Y572864D01*
X334198Y572793D01*
X334180Y572723D01*
X334184Y572671D01*
X334179Y572620D01*
X334194Y572549D01*
X334200Y572478D01*
X334220Y572430D01*
X334231Y572379D01*
X334268Y572318D01*
X334296Y572252D01*
X334341Y572196D01*
X334357Y572168D01*
X334375Y572153D01*
X334401Y572121D01*
X381724Y524797D01*
X381798Y524744D01*
X381868Y524685D01*
X381898Y524672D01*
X381924Y524654D01*
X382011Y524627D01*
X382096Y524593D01*
X382137Y524588D01*
X382159Y524581D01*
X382191Y524582D01*
X382263Y524574D01*
X504054Y524574D01*
X504144Y524589D01*
X504235Y524596D01*
X504265Y524609D01*
X504297Y524614D01*
X504377Y524657D01*
X504461Y524692D01*
X504493Y524718D01*
X504514Y524729D01*
X504536Y524752D01*
X504592Y524797D01*
X507389Y527594D01*
X511786Y527594D01*
X514894Y524486D01*
X514894Y520089D01*
X511786Y516981D01*
X507389Y516981D01*
X504592Y519778D01*
X504518Y519831D01*
X504449Y519890D01*
X504419Y519903D01*
X504393Y519921D01*
X504306Y519948D01*
X504221Y519982D01*
X504180Y519987D01*
X504158Y519994D01*
X504125Y519993D01*
X504054Y520001D01*
X380053Y520001D01*
X378490Y521563D01*
X326856Y573197D01*
X326782Y573250D01*
X326713Y573310D01*
X326683Y573322D01*
X326657Y573341D01*
X326570Y573368D01*
X326485Y573402D01*
X326444Y573406D01*
X326421Y573413D01*
X326389Y573412D01*
X326318Y573420D01*
X323128Y573420D01*
X322738Y573810D01*
X322722Y573822D01*
X322710Y573838D01*
X322623Y573894D01*
X322539Y573954D01*
X322520Y573960D01*
X322503Y573971D01*
X322402Y573996D01*
X322303Y574026D01*
X322284Y574026D01*
X322264Y574031D01*
X322161Y574023D01*
X322058Y574020D01*
X322039Y574013D01*
X322019Y574012D01*
X321924Y573971D01*
X321827Y573936D01*
X321811Y573923D01*
X321793Y573915D01*
X321662Y573810D01*
X321272Y573420D01*
X315128Y573420D01*
X314235Y574313D01*
X314235Y577566D01*
X314221Y577656D01*
X314213Y577747D01*
X314201Y577776D01*
X314196Y577808D01*
X314153Y577889D01*
X314117Y577973D01*
X314091Y578005D01*
X314080Y578026D01*
X314057Y578048D01*
X314012Y578104D01*
X313446Y578670D01*
X313372Y578724D01*
X313302Y578783D01*
X313272Y578795D01*
X313246Y578814D01*
X313159Y578841D01*
X313074Y578875D01*
X313033Y578879D01*
X313011Y578886D01*
X312979Y578885D01*
X312907Y578893D01*
X308952Y578893D01*
X308386Y579459D01*
X308328Y579501D01*
X308276Y579550D01*
X308229Y579572D01*
X308187Y579602D01*
X308118Y579624D01*
X308053Y579654D01*
X308001Y579659D01*
X307951Y579675D01*
X307880Y579673D01*
X307809Y579681D01*
X307758Y579670D01*
X307706Y579668D01*
X307638Y579644D01*
X307568Y579629D01*
X307523Y579602D01*
X307475Y579584D01*
X307419Y579539D01*
X307357Y579502D01*
X307323Y579463D01*
X307283Y579430D01*
X307244Y579370D01*
X307197Y579315D01*
X307178Y579267D01*
X307150Y579223D01*
X307132Y579154D01*
X307105Y579087D01*
X307097Y579016D01*
X307089Y578985D01*
X307091Y578962D01*
X307087Y578921D01*
X307087Y506088D01*
X307101Y505997D01*
X307109Y505907D01*
X307121Y505877D01*
X307126Y505845D01*
X307169Y505764D01*
X307205Y505680D01*
X307231Y505648D01*
X307242Y505627D01*
X307265Y505605D01*
X307310Y505549D01*
X308811Y504048D01*
X308885Y503995D01*
X308955Y503935D01*
X308985Y503923D01*
X309011Y503904D01*
X309098Y503877D01*
X309183Y503843D01*
X309224Y503839D01*
X309246Y503832D01*
X309278Y503833D01*
X309350Y503825D01*
X321832Y503825D01*
X322725Y502932D01*
X322725Y487668D01*
X321832Y486775D01*
X308568Y486775D01*
G37*
%LPD*%
%LPC*%
G36*
X235927Y715418D02*
X235927Y715418D01*
X232818Y718527D01*
X232818Y722923D01*
X235927Y726032D01*
X239883Y726032D01*
X239973Y726046D01*
X240064Y726054D01*
X240093Y726066D01*
X240125Y726071D01*
X240206Y726114D01*
X240290Y726150D01*
X240322Y726176D01*
X240343Y726187D01*
X240365Y726210D01*
X240421Y726255D01*
X261015Y746849D01*
X261068Y746923D01*
X261128Y746993D01*
X261140Y747023D01*
X261159Y747049D01*
X261186Y747136D01*
X261220Y747221D01*
X261224Y747262D01*
X261231Y747284D01*
X261230Y747316D01*
X261238Y747388D01*
X261238Y791392D01*
X261224Y791482D01*
X261216Y791573D01*
X261204Y791602D01*
X261199Y791634D01*
X261156Y791715D01*
X261120Y791799D01*
X261094Y791831D01*
X261083Y791852D01*
X261060Y791874D01*
X261015Y791930D01*
X258218Y794727D01*
X258218Y799123D01*
X261327Y802232D01*
X265723Y802232D01*
X268832Y799123D01*
X268832Y794727D01*
X266035Y791930D01*
X265982Y791856D01*
X265922Y791786D01*
X265910Y791756D01*
X265891Y791730D01*
X265864Y791643D01*
X265830Y791558D01*
X265826Y791517D01*
X265819Y791495D01*
X265820Y791463D01*
X265812Y791392D01*
X265812Y789504D01*
X265823Y789434D01*
X265825Y789362D01*
X265843Y789313D01*
X265851Y789262D01*
X265885Y789198D01*
X265910Y789131D01*
X265942Y789090D01*
X265967Y789044D01*
X266019Y788995D01*
X266063Y788939D01*
X266107Y788911D01*
X266145Y788875D01*
X266210Y788845D01*
X266270Y788806D01*
X266321Y788793D01*
X266368Y788771D01*
X266439Y788763D01*
X266509Y788746D01*
X266561Y788750D01*
X266612Y788744D01*
X266683Y788759D01*
X266754Y788765D01*
X266802Y788785D01*
X266853Y788796D01*
X266914Y788833D01*
X266980Y788861D01*
X267036Y788906D01*
X267064Y788923D01*
X267079Y788940D01*
X267111Y788966D01*
X267677Y789532D01*
X270002Y789532D01*
X270022Y789535D01*
X270041Y789533D01*
X270143Y789555D01*
X270245Y789571D01*
X270262Y789581D01*
X270282Y789585D01*
X270371Y789638D01*
X270462Y789687D01*
X270476Y789701D01*
X270493Y789711D01*
X270560Y789790D01*
X270632Y789865D01*
X270640Y789883D01*
X270653Y789898D01*
X270692Y789994D01*
X270735Y790088D01*
X270737Y790108D01*
X270745Y790126D01*
X270763Y790293D01*
X270763Y832667D01*
X270749Y832757D01*
X270741Y832848D01*
X270729Y832877D01*
X270724Y832909D01*
X270681Y832990D01*
X270645Y833074D01*
X270619Y833106D01*
X270608Y833127D01*
X270585Y833149D01*
X270540Y833205D01*
X267743Y836002D01*
X267743Y840398D01*
X270852Y843507D01*
X272197Y843507D01*
X272267Y843518D01*
X272339Y843520D01*
X272388Y843538D01*
X272439Y843546D01*
X272503Y843580D01*
X272570Y843605D01*
X272611Y843637D01*
X272657Y843662D01*
X272706Y843713D01*
X272762Y843758D01*
X272790Y843802D01*
X272826Y843840D01*
X272856Y843905D01*
X272895Y843965D01*
X272908Y844016D01*
X272930Y844063D01*
X272938Y844134D01*
X272955Y844204D01*
X272951Y844256D01*
X272957Y844307D01*
X272942Y844378D01*
X272936Y844449D01*
X272916Y844497D01*
X272905Y844548D01*
X272868Y844609D01*
X272840Y844675D01*
X272795Y844731D01*
X272778Y844759D01*
X272761Y844774D01*
X272735Y844806D01*
X272351Y845190D01*
X272351Y851027D01*
X272348Y851047D01*
X272350Y851066D01*
X272328Y851168D01*
X272311Y851270D01*
X272302Y851287D01*
X272297Y851307D01*
X272244Y851396D01*
X272196Y851487D01*
X272182Y851501D01*
X272171Y851518D01*
X272093Y851585D01*
X272018Y851657D01*
X272000Y851665D01*
X271984Y851678D01*
X271888Y851717D01*
X271795Y851760D01*
X271775Y851762D01*
X271756Y851770D01*
X271590Y851788D01*
X267963Y851788D01*
X267872Y851774D01*
X267782Y851766D01*
X267752Y851754D01*
X267720Y851749D01*
X267639Y851706D01*
X267555Y851670D01*
X267523Y851644D01*
X267502Y851633D01*
X267480Y851610D01*
X267424Y851565D01*
X234130Y818271D01*
X234077Y818197D01*
X234017Y818127D01*
X234005Y818097D01*
X233986Y818071D01*
X233959Y817984D01*
X233925Y817899D01*
X233921Y817858D01*
X233914Y817836D01*
X233915Y817804D01*
X233907Y817732D01*
X233907Y813777D01*
X230798Y810668D01*
X226402Y810668D01*
X223293Y813777D01*
X223293Y818173D01*
X226402Y821282D01*
X230357Y821282D01*
X230448Y821296D01*
X230538Y821304D01*
X230568Y821316D01*
X230600Y821321D01*
X230681Y821364D01*
X230765Y821400D01*
X230797Y821426D01*
X230818Y821437D01*
X230838Y821458D01*
X230840Y821459D01*
X230845Y821464D01*
X230896Y821505D01*
X265753Y856362D01*
X272042Y856362D01*
X272112Y856373D01*
X272184Y856375D01*
X272233Y856393D01*
X272284Y856401D01*
X272348Y856435D01*
X272415Y856460D01*
X272456Y856492D01*
X272502Y856517D01*
X272551Y856569D01*
X272607Y856613D01*
X272635Y856657D01*
X272671Y856695D01*
X272701Y856760D01*
X272740Y856820D01*
X272753Y856871D01*
X272775Y856918D01*
X272783Y856989D01*
X272800Y857059D01*
X272796Y857111D01*
X272802Y857162D01*
X272787Y857233D01*
X272781Y857304D01*
X272761Y857352D01*
X272750Y857403D01*
X272713Y857464D01*
X272685Y857530D01*
X272640Y857586D01*
X272623Y857614D01*
X272606Y857629D01*
X272580Y857661D01*
X234071Y896170D01*
X233997Y896223D01*
X233927Y896283D01*
X233897Y896295D01*
X233871Y896314D01*
X233784Y896341D01*
X233699Y896375D01*
X233658Y896379D01*
X233636Y896386D01*
X233604Y896385D01*
X233532Y896393D01*
X229577Y896393D01*
X226468Y899502D01*
X226468Y903898D01*
X229577Y907007D01*
X233973Y907007D01*
X237082Y903898D01*
X237082Y899943D01*
X237096Y899852D01*
X237104Y899762D01*
X237116Y899732D01*
X237121Y899700D01*
X237164Y899619D01*
X237200Y899535D01*
X237226Y899503D01*
X237237Y899482D01*
X237260Y899460D01*
X237305Y899404D01*
X330701Y806008D01*
X330717Y805996D01*
X330730Y805980D01*
X330817Y805924D01*
X330901Y805864D01*
X330920Y805858D01*
X330937Y805847D01*
X331037Y805822D01*
X331136Y805792D01*
X331156Y805792D01*
X331175Y805787D01*
X331278Y805795D01*
X331382Y805798D01*
X331401Y805805D01*
X331421Y805807D01*
X331515Y805847D01*
X331613Y805883D01*
X331629Y805895D01*
X331647Y805903D01*
X331778Y806008D01*
X334352Y808582D01*
X338748Y808582D01*
X341857Y805473D01*
X341857Y801077D01*
X339060Y798280D01*
X339007Y798206D01*
X338947Y798136D01*
X338935Y798106D01*
X338916Y798080D01*
X338889Y797993D01*
X338855Y797908D01*
X338851Y797867D01*
X338844Y797845D01*
X338845Y797813D01*
X338837Y797742D01*
X338837Y783278D01*
X337497Y781938D01*
X298323Y781938D01*
X298303Y781935D01*
X298284Y781937D01*
X298182Y781915D01*
X298080Y781899D01*
X298063Y781889D01*
X298043Y781885D01*
X297954Y781832D01*
X297863Y781783D01*
X297849Y781769D01*
X297832Y781759D01*
X297765Y781680D01*
X297693Y781605D01*
X297685Y781587D01*
X297672Y781572D01*
X297633Y781476D01*
X297590Y781382D01*
X297588Y781362D01*
X297580Y781344D01*
X297562Y781177D01*
X297562Y748483D01*
X297576Y748393D01*
X297584Y748302D01*
X297596Y748273D01*
X297601Y748241D01*
X297644Y748160D01*
X297680Y748076D01*
X297706Y748044D01*
X297717Y748023D01*
X297740Y748001D01*
X297785Y747945D01*
X300582Y745148D01*
X300582Y740752D01*
X297473Y737643D01*
X293077Y737643D01*
X289968Y740752D01*
X289968Y745148D01*
X292765Y747945D01*
X292818Y748019D01*
X292878Y748089D01*
X292890Y748119D01*
X292909Y748145D01*
X292936Y748232D01*
X292970Y748317D01*
X292974Y748358D01*
X292981Y748380D01*
X292980Y748412D01*
X292988Y748483D01*
X292988Y781177D01*
X292985Y781197D01*
X292987Y781216D01*
X292965Y781318D01*
X292949Y781420D01*
X292939Y781437D01*
X292935Y781457D01*
X292882Y781546D01*
X292833Y781637D01*
X292819Y781651D01*
X292809Y781668D01*
X292730Y781735D01*
X292655Y781807D01*
X292637Y781815D01*
X292622Y781828D01*
X292526Y781867D01*
X292432Y781910D01*
X292412Y781912D01*
X292394Y781920D01*
X292227Y781938D01*
X284933Y781938D01*
X284843Y781924D01*
X284752Y781916D01*
X284723Y781904D01*
X284691Y781899D01*
X284610Y781856D01*
X284526Y781820D01*
X284494Y781794D01*
X284473Y781783D01*
X284451Y781760D01*
X284395Y781715D01*
X281598Y778918D01*
X277202Y778918D01*
X275176Y780944D01*
X275160Y780956D01*
X275147Y780972D01*
X275060Y781028D01*
X274976Y781088D01*
X274957Y781094D01*
X274940Y781105D01*
X274840Y781130D01*
X274741Y781160D01*
X274721Y781160D01*
X274702Y781165D01*
X274599Y781157D01*
X274495Y781154D01*
X274476Y781147D01*
X274456Y781145D01*
X274362Y781105D01*
X274264Y781069D01*
X274248Y781057D01*
X274230Y781049D01*
X274099Y780944D01*
X272073Y778918D01*
X267677Y778918D01*
X267111Y779484D01*
X267053Y779526D01*
X267001Y779575D01*
X266954Y779597D01*
X266912Y779627D01*
X266843Y779649D01*
X266778Y779679D01*
X266726Y779684D01*
X266676Y779700D01*
X266605Y779698D01*
X266534Y779706D01*
X266483Y779695D01*
X266431Y779693D01*
X266363Y779669D01*
X266293Y779654D01*
X266248Y779627D01*
X266200Y779609D01*
X266144Y779564D01*
X266082Y779527D01*
X266048Y779488D01*
X266008Y779455D01*
X265969Y779395D01*
X265922Y779340D01*
X265903Y779292D01*
X265875Y779248D01*
X265857Y779179D01*
X265830Y779112D01*
X265822Y779041D01*
X265814Y779010D01*
X265816Y778987D01*
X265812Y778946D01*
X265812Y745178D01*
X264249Y743615D01*
X243655Y723021D01*
X243602Y722947D01*
X243542Y722877D01*
X243530Y722847D01*
X243511Y722821D01*
X243484Y722734D01*
X243450Y722649D01*
X243446Y722608D01*
X243439Y722586D01*
X243440Y722554D01*
X243432Y722483D01*
X243432Y718527D01*
X240323Y715418D01*
X235927Y715418D01*
G37*
%LPD*%
%LPC*%
G36*
X607402Y702718D02*
X607402Y702718D01*
X604293Y705827D01*
X604293Y709782D01*
X604279Y709872D01*
X604271Y709963D01*
X604259Y709993D01*
X604254Y710025D01*
X604211Y710106D01*
X604175Y710190D01*
X604149Y710222D01*
X604138Y710243D01*
X604115Y710265D01*
X604070Y710321D01*
X603506Y710885D01*
X603448Y710927D01*
X603396Y710976D01*
X603349Y710998D01*
X603307Y711028D01*
X603238Y711049D01*
X603173Y711080D01*
X603121Y711085D01*
X603071Y711101D01*
X603000Y711099D01*
X602929Y711107D01*
X602878Y711096D01*
X602826Y711094D01*
X602758Y711070D01*
X602688Y711055D01*
X602643Y711028D01*
X602595Y711010D01*
X602539Y710965D01*
X602477Y710928D01*
X602443Y710889D01*
X602403Y710856D01*
X602364Y710796D01*
X602317Y710741D01*
X602298Y710693D01*
X602270Y710649D01*
X602252Y710580D01*
X602225Y710513D01*
X602217Y710442D01*
X602209Y710411D01*
X602211Y710387D01*
X602207Y710347D01*
X602207Y709002D01*
X599098Y705893D01*
X594702Y705893D01*
X591593Y709002D01*
X591593Y712957D01*
X591579Y713048D01*
X591571Y713138D01*
X591559Y713168D01*
X591554Y713200D01*
X591511Y713281D01*
X591475Y713365D01*
X591449Y713397D01*
X591438Y713418D01*
X591415Y713440D01*
X591370Y713496D01*
X524763Y780103D01*
X524763Y854892D01*
X524749Y854982D01*
X524741Y855073D01*
X524729Y855102D01*
X524724Y855134D01*
X524681Y855215D01*
X524645Y855299D01*
X524619Y855331D01*
X524608Y855352D01*
X524585Y855374D01*
X524540Y855430D01*
X521743Y858227D01*
X521743Y862623D01*
X524852Y865732D01*
X529248Y865732D01*
X532357Y862623D01*
X532357Y858227D01*
X529560Y855430D01*
X529506Y855356D01*
X529447Y855286D01*
X529435Y855256D01*
X529416Y855230D01*
X529389Y855143D01*
X529355Y855058D01*
X529351Y855017D01*
X529344Y854995D01*
X529345Y854963D01*
X529337Y854892D01*
X529337Y782313D01*
X529351Y782222D01*
X529359Y782132D01*
X529371Y782102D01*
X529376Y782070D01*
X529419Y781989D01*
X529455Y781905D01*
X529481Y781873D01*
X529492Y781852D01*
X529515Y781830D01*
X529560Y781774D01*
X533144Y778190D01*
X533202Y778148D01*
X533254Y778099D01*
X533301Y778077D01*
X533343Y778047D01*
X533412Y778026D01*
X533477Y777995D01*
X533529Y777990D01*
X533579Y777974D01*
X533650Y777976D01*
X533721Y777968D01*
X533772Y777979D01*
X533824Y777981D01*
X533892Y778005D01*
X533962Y778020D01*
X534007Y778047D01*
X534055Y778065D01*
X534111Y778110D01*
X534173Y778147D01*
X534207Y778186D01*
X534247Y778219D01*
X534286Y778279D01*
X534333Y778334D01*
X534352Y778382D01*
X534380Y778426D01*
X534398Y778495D01*
X534425Y778562D01*
X534433Y778633D01*
X534441Y778664D01*
X534439Y778688D01*
X534443Y778728D01*
X534443Y780073D01*
X537552Y783182D01*
X541948Y783182D01*
X545057Y780073D01*
X545057Y776118D01*
X545071Y776027D01*
X545079Y775937D01*
X545091Y775907D01*
X545096Y775875D01*
X545139Y775794D01*
X545175Y775710D01*
X545201Y775678D01*
X545212Y775657D01*
X545235Y775635D01*
X545280Y775579D01*
X607304Y713555D01*
X607378Y713502D01*
X607448Y713442D01*
X607478Y713430D01*
X607504Y713411D01*
X607591Y713384D01*
X607676Y713350D01*
X607717Y713346D01*
X607739Y713339D01*
X607771Y713340D01*
X607843Y713332D01*
X611798Y713332D01*
X614907Y710223D01*
X614907Y705827D01*
X611798Y702718D01*
X607402Y702718D01*
G37*
%LPD*%
%LPC*%
G36*
X170051Y934768D02*
X170051Y934768D01*
X168399Y935453D01*
X166911Y936447D01*
X165647Y937711D01*
X164611Y939261D01*
X164594Y939280D01*
X164541Y939365D01*
X164526Y939377D01*
X164514Y939394D01*
X164431Y939455D01*
X164352Y939522D01*
X164333Y939529D01*
X164317Y939541D01*
X164218Y939573D01*
X164122Y939610D01*
X164102Y939611D01*
X164083Y939617D01*
X163979Y939616D01*
X163876Y939620D01*
X163857Y939615D01*
X163837Y939614D01*
X163676Y939568D01*
X161917Y938839D01*
X156483Y938839D01*
X151462Y940919D01*
X147619Y944762D01*
X145539Y949783D01*
X145539Y955217D01*
X147619Y960238D01*
X151462Y964081D01*
X156483Y966161D01*
X159898Y966161D01*
X159918Y966164D01*
X159937Y966162D01*
X160039Y966184D01*
X160141Y966200D01*
X160158Y966210D01*
X160178Y966214D01*
X160267Y966267D01*
X160358Y966316D01*
X160372Y966330D01*
X160389Y966340D01*
X160456Y966419D01*
X160528Y966494D01*
X160536Y966512D01*
X160549Y966527D01*
X160588Y966623D01*
X160631Y966717D01*
X160633Y966737D01*
X160641Y966755D01*
X160659Y966922D01*
X160659Y970090D01*
X160738Y970132D01*
X160752Y970146D01*
X160769Y970156D01*
X160836Y970235D01*
X160908Y970310D01*
X160916Y970328D01*
X160929Y970343D01*
X160968Y970439D01*
X161011Y970533D01*
X161013Y970553D01*
X161021Y970571D01*
X161039Y970738D01*
X161039Y972262D01*
X161036Y972282D01*
X161038Y972301D01*
X161016Y972403D01*
X161000Y972505D01*
X160990Y972522D01*
X160986Y972542D01*
X160933Y972631D01*
X160884Y972722D01*
X160870Y972736D01*
X160860Y972753D01*
X160781Y972820D01*
X160706Y972891D01*
X160688Y972900D01*
X160673Y972913D01*
X160659Y972918D01*
X160659Y984334D01*
X160832Y984981D01*
X161167Y985560D01*
X161640Y986033D01*
X162219Y986368D01*
X162866Y986541D01*
X168226Y986541D01*
X168315Y986555D01*
X168406Y986562D01*
X168445Y986577D01*
X168468Y986580D01*
X168497Y986595D01*
X168563Y986620D01*
X171262Y987954D01*
X172231Y988019D01*
X172270Y988028D01*
X172311Y988028D01*
X172397Y988053D01*
X172426Y988058D01*
X172442Y988066D01*
X172468Y988074D01*
X172471Y988074D01*
X172471Y988075D01*
X172472Y988075D01*
X172679Y988161D01*
X174336Y988161D01*
X174355Y988164D01*
X174387Y988162D01*
X175093Y988209D01*
X175107Y988213D01*
X175122Y988212D01*
X175286Y988248D01*
X175359Y988273D01*
X175649Y988253D01*
X175681Y988256D01*
X175751Y988253D01*
X176041Y988273D01*
X176114Y988248D01*
X176129Y988245D01*
X176142Y988239D01*
X176307Y988209D01*
X177013Y988162D01*
X177032Y988164D01*
X177064Y988161D01*
X178721Y988161D01*
X178928Y988075D01*
X178967Y988066D01*
X179004Y988048D01*
X179035Y988043D01*
X179050Y988037D01*
X179098Y988031D01*
X179165Y988019D01*
X179168Y988019D01*
X179169Y988019D01*
X180138Y987954D01*
X182837Y986620D01*
X182923Y986593D01*
X183008Y986559D01*
X183049Y986555D01*
X183072Y986548D01*
X183104Y986549D01*
X183174Y986541D01*
X188534Y986541D01*
X189181Y986368D01*
X189760Y986033D01*
X190233Y985560D01*
X190568Y984981D01*
X190741Y984334D01*
X190741Y972910D01*
X190662Y972868D01*
X190648Y972854D01*
X190631Y972844D01*
X190564Y972765D01*
X190492Y972690D01*
X190484Y972672D01*
X190471Y972657D01*
X190432Y972561D01*
X190389Y972467D01*
X190387Y972447D01*
X190379Y972429D01*
X190361Y972262D01*
X190361Y970738D01*
X190364Y970718D01*
X190362Y970699D01*
X190384Y970597D01*
X190400Y970495D01*
X190410Y970478D01*
X190414Y970458D01*
X190467Y970369D01*
X190516Y970278D01*
X190530Y970264D01*
X190540Y970247D01*
X190619Y970180D01*
X190694Y970109D01*
X190712Y970100D01*
X190727Y970087D01*
X190741Y970082D01*
X190741Y958666D01*
X190568Y958019D01*
X190233Y957440D01*
X189760Y956967D01*
X189181Y956632D01*
X188534Y956459D01*
X183480Y956459D01*
X183415Y956449D01*
X183349Y956448D01*
X183269Y956425D01*
X183237Y956420D01*
X183220Y956410D01*
X183188Y956401D01*
X179417Y954839D01*
X173622Y954839D01*
X173602Y954836D01*
X173583Y954838D01*
X173481Y954816D01*
X173379Y954800D01*
X173362Y954790D01*
X173342Y954786D01*
X173253Y954733D01*
X173162Y954684D01*
X173148Y954670D01*
X173131Y954660D01*
X173064Y954581D01*
X172992Y954506D01*
X172984Y954488D01*
X172971Y954473D01*
X172932Y954377D01*
X172889Y954283D01*
X172887Y954263D01*
X172879Y954245D01*
X172861Y954078D01*
X172861Y953342D01*
X172864Y953322D01*
X172862Y953302D01*
X172884Y953201D01*
X172900Y953099D01*
X172910Y953082D01*
X172914Y953062D01*
X172967Y952973D01*
X173016Y952882D01*
X173030Y952868D01*
X173040Y952851D01*
X173119Y952783D01*
X173194Y952712D01*
X173212Y952704D01*
X173227Y952691D01*
X173323Y952652D01*
X173417Y952609D01*
X173437Y952607D01*
X173455Y952599D01*
X173622Y952581D01*
X186674Y952581D01*
X188429Y952232D01*
X190081Y951547D01*
X191569Y950553D01*
X192833Y949289D01*
X193827Y947801D01*
X194512Y946149D01*
X194736Y945023D01*
X173462Y945023D01*
X173442Y945020D01*
X173423Y945022D01*
X173321Y945000D01*
X173219Y944983D01*
X173202Y944974D01*
X173182Y944970D01*
X173093Y944917D01*
X173002Y944868D01*
X172988Y944854D01*
X172971Y944844D01*
X172904Y944765D01*
X172833Y944690D01*
X172824Y944672D01*
X172811Y944657D01*
X172773Y944561D01*
X172729Y944467D01*
X172727Y944447D01*
X172719Y944429D01*
X172701Y944262D01*
X172701Y943499D01*
X171938Y943499D01*
X171918Y943496D01*
X171899Y943498D01*
X171797Y943476D01*
X171695Y943459D01*
X171678Y943450D01*
X171658Y943446D01*
X171569Y943393D01*
X171478Y943344D01*
X171464Y943330D01*
X171447Y943320D01*
X171380Y943241D01*
X171309Y943166D01*
X171300Y943148D01*
X171287Y943133D01*
X171248Y943037D01*
X171205Y942943D01*
X171203Y942923D01*
X171195Y942905D01*
X171177Y942738D01*
X171177Y934544D01*
X170051Y934768D01*
G37*
%LPD*%
%LPC*%
G36*
X553427Y693193D02*
X553427Y693193D01*
X550318Y696302D01*
X550318Y700257D01*
X550304Y700348D01*
X550296Y700438D01*
X550284Y700468D01*
X550279Y700500D01*
X550258Y700538D01*
X550257Y700546D01*
X550237Y700578D01*
X550236Y700581D01*
X550200Y700665D01*
X550174Y700697D01*
X550163Y700718D01*
X550141Y700739D01*
X550131Y700757D01*
X550118Y700767D01*
X550095Y700796D01*
X369188Y881703D01*
X369188Y886642D01*
X369174Y886732D01*
X369166Y886823D01*
X369154Y886852D01*
X369149Y886884D01*
X369106Y886965D01*
X369070Y887049D01*
X369044Y887081D01*
X369033Y887102D01*
X369010Y887124D01*
X368965Y887180D01*
X366168Y889977D01*
X366168Y894373D01*
X369277Y897482D01*
X373673Y897482D01*
X376782Y894373D01*
X376782Y889977D01*
X373985Y887180D01*
X373932Y887106D01*
X373872Y887036D01*
X373860Y887006D01*
X373841Y886980D01*
X373814Y886893D01*
X373780Y886808D01*
X373776Y886767D01*
X373769Y886745D01*
X373770Y886713D01*
X373762Y886642D01*
X373762Y883913D01*
X373776Y883822D01*
X373784Y883732D01*
X373796Y883702D01*
X373801Y883670D01*
X373844Y883589D01*
X373880Y883505D01*
X373906Y883473D01*
X373917Y883452D01*
X373940Y883430D01*
X373985Y883374D01*
X553329Y704030D01*
X553403Y703977D01*
X553473Y703917D01*
X553503Y703905D01*
X553529Y703886D01*
X553616Y703859D01*
X553701Y703825D01*
X553742Y703821D01*
X553764Y703814D01*
X553796Y703815D01*
X553868Y703807D01*
X557823Y703807D01*
X560932Y700698D01*
X560932Y696302D01*
X557823Y693193D01*
X553427Y693193D01*
G37*
%LPD*%
G36*
X307958Y588734D02*
X307958Y588734D01*
X308029Y588740D01*
X308077Y588760D01*
X308128Y588771D01*
X308189Y588808D01*
X308255Y588836D01*
X308311Y588881D01*
X308339Y588898D01*
X308354Y588915D01*
X308386Y588941D01*
X308952Y589507D01*
X313474Y589507D01*
X313494Y589510D01*
X313513Y589508D01*
X313615Y589530D01*
X313717Y589546D01*
X313734Y589556D01*
X313754Y589560D01*
X313843Y589613D01*
X313934Y589662D01*
X313948Y589676D01*
X313965Y589686D01*
X314032Y589765D01*
X314104Y589840D01*
X314112Y589858D01*
X314125Y589873D01*
X314164Y589969D01*
X314207Y590063D01*
X314209Y590083D01*
X314217Y590101D01*
X314235Y590268D01*
X314235Y594082D01*
X314574Y594420D01*
X314585Y594436D01*
X314601Y594449D01*
X314657Y594536D01*
X314717Y594620D01*
X314723Y594639D01*
X314734Y594656D01*
X314759Y594756D01*
X314790Y594855D01*
X314789Y594875D01*
X314794Y594894D01*
X314786Y594997D01*
X314783Y595101D01*
X314776Y595119D01*
X314775Y595139D01*
X314734Y595234D01*
X314699Y595332D01*
X314686Y595347D01*
X314678Y595366D01*
X314574Y595497D01*
X313781Y596289D01*
X313781Y600686D01*
X316889Y603794D01*
X321286Y603794D01*
X324394Y600686D01*
X324394Y596289D01*
X324384Y596279D01*
X324342Y596221D01*
X324293Y596169D01*
X324271Y596122D01*
X324241Y596080D01*
X324219Y596011D01*
X324189Y595946D01*
X324184Y595894D01*
X324168Y595844D01*
X324170Y595773D01*
X324162Y595702D01*
X324173Y595651D01*
X324175Y595599D01*
X324199Y595531D01*
X324214Y595461D01*
X324241Y595416D01*
X324259Y595368D01*
X324304Y595312D01*
X324341Y595250D01*
X324380Y595216D01*
X324413Y595176D01*
X324473Y595137D01*
X324528Y595090D01*
X324576Y595071D01*
X324620Y595043D01*
X324689Y595025D01*
X324756Y594998D01*
X324827Y594990D01*
X324858Y594982D01*
X324881Y594984D01*
X324922Y594980D01*
X329376Y594980D01*
X329466Y594994D01*
X329557Y595002D01*
X329587Y595014D01*
X329619Y595019D01*
X329700Y595062D01*
X329784Y595098D01*
X329816Y595124D01*
X329836Y595135D01*
X329859Y595158D01*
X329915Y595203D01*
X330200Y595488D01*
X330779Y595823D01*
X331426Y595996D01*
X332981Y595996D01*
X332981Y591038D01*
X332984Y591019D01*
X332982Y590999D01*
X333004Y590897D01*
X333020Y590795D01*
X333030Y590778D01*
X333034Y590758D01*
X333087Y590669D01*
X333136Y590578D01*
X333150Y590564D01*
X333160Y590547D01*
X333239Y590480D01*
X333314Y590409D01*
X333332Y590400D01*
X333347Y590387D01*
X333443Y590349D01*
X333537Y590305D01*
X333557Y590303D01*
X333575Y590295D01*
X333742Y590277D01*
X334658Y590277D01*
X334678Y590280D01*
X334697Y590278D01*
X334799Y590300D01*
X334901Y590317D01*
X334918Y590326D01*
X334938Y590330D01*
X335027Y590383D01*
X335118Y590432D01*
X335132Y590446D01*
X335149Y590456D01*
X335216Y590535D01*
X335288Y590610D01*
X335296Y590628D01*
X335309Y590643D01*
X335348Y590740D01*
X335391Y590833D01*
X335393Y590853D01*
X335401Y590871D01*
X335419Y591038D01*
X335419Y595996D01*
X336974Y595996D01*
X337621Y595823D01*
X337884Y595671D01*
X337973Y595637D01*
X338060Y595597D01*
X338088Y595594D01*
X338114Y595584D01*
X338209Y595580D01*
X338304Y595570D01*
X338331Y595576D01*
X338360Y595575D01*
X338451Y595602D01*
X338544Y595622D01*
X338569Y595636D01*
X338596Y595644D01*
X338674Y595699D01*
X338755Y595748D01*
X338774Y595770D01*
X338797Y595786D01*
X338853Y595862D01*
X338915Y595935D01*
X338926Y595961D01*
X338943Y595984D01*
X338972Y596075D01*
X339007Y596163D01*
X339011Y596198D01*
X339018Y596218D01*
X339017Y596251D01*
X339026Y596330D01*
X339026Y622625D01*
X339023Y622642D01*
X339025Y622658D01*
X339010Y622724D01*
X339004Y622806D01*
X338991Y622836D01*
X338986Y622868D01*
X338974Y622890D01*
X338972Y622898D01*
X338951Y622935D01*
X338943Y622948D01*
X338908Y623032D01*
X338882Y623064D01*
X338871Y623085D01*
X338848Y623107D01*
X338847Y623108D01*
X338846Y623109D01*
X338846Y623110D01*
X338803Y623163D01*
X308386Y653580D01*
X308328Y653622D01*
X308276Y653671D01*
X308229Y653693D01*
X308187Y653723D01*
X308118Y653744D01*
X308053Y653775D01*
X308001Y653780D01*
X307951Y653796D01*
X307880Y653794D01*
X307809Y653802D01*
X307758Y653791D01*
X307706Y653789D01*
X307638Y653765D01*
X307568Y653750D01*
X307523Y653723D01*
X307475Y653705D01*
X307419Y653660D01*
X307357Y653623D01*
X307323Y653584D01*
X307283Y653551D01*
X307244Y653491D01*
X307197Y653436D01*
X307178Y653388D01*
X307150Y653344D01*
X307132Y653275D01*
X307105Y653208D01*
X307097Y653137D01*
X307089Y653106D01*
X307091Y653082D01*
X307087Y653042D01*
X307087Y589479D01*
X307098Y589409D01*
X307100Y589337D01*
X307118Y589288D01*
X307126Y589237D01*
X307160Y589173D01*
X307185Y589106D01*
X307217Y589065D01*
X307242Y589019D01*
X307294Y588970D01*
X307338Y588914D01*
X307382Y588886D01*
X307420Y588850D01*
X307485Y588820D01*
X307545Y588781D01*
X307596Y588768D01*
X307643Y588746D01*
X307714Y588738D01*
X307784Y588721D01*
X307836Y588725D01*
X307887Y588719D01*
X307958Y588734D01*
G37*
G36*
X981292Y550630D02*
X981292Y550630D01*
X981344Y550632D01*
X981412Y550656D01*
X981482Y550671D01*
X981527Y550698D01*
X981575Y550716D01*
X981631Y550761D01*
X981693Y550798D01*
X981727Y550837D01*
X981767Y550870D01*
X981806Y550930D01*
X981853Y550985D01*
X981872Y551033D01*
X981900Y551077D01*
X981918Y551146D01*
X981945Y551213D01*
X981953Y551284D01*
X981961Y551315D01*
X981959Y551338D01*
X981963Y551379D01*
X981963Y695452D01*
X981960Y695472D01*
X981962Y695491D01*
X981940Y695593D01*
X981924Y695695D01*
X981914Y695712D01*
X981910Y695732D01*
X981857Y695821D01*
X981808Y695912D01*
X981794Y695926D01*
X981784Y695943D01*
X981705Y696010D01*
X981630Y696082D01*
X981612Y696090D01*
X981597Y696103D01*
X981501Y696142D01*
X981407Y696185D01*
X981387Y696187D01*
X981369Y696195D01*
X981202Y696213D01*
X966463Y696213D01*
X966373Y696199D01*
X966282Y696191D01*
X966252Y696179D01*
X966220Y696174D01*
X966139Y696131D01*
X966055Y696095D01*
X966023Y696069D01*
X966002Y696058D01*
X965980Y696035D01*
X965924Y695990D01*
X965515Y695581D01*
X965473Y695523D01*
X965424Y695471D01*
X965402Y695424D01*
X965372Y695382D01*
X965351Y695313D01*
X965320Y695248D01*
X965315Y695196D01*
X965299Y695146D01*
X965301Y695075D01*
X965293Y695004D01*
X965304Y694953D01*
X965306Y694901D01*
X965330Y694833D01*
X965345Y694763D01*
X965372Y694718D01*
X965390Y694670D01*
X965435Y694614D01*
X965472Y694552D01*
X965511Y694518D01*
X965544Y694478D01*
X965604Y694439D01*
X965659Y694392D01*
X965707Y694373D01*
X965751Y694345D01*
X965820Y694327D01*
X965887Y694300D01*
X965958Y694292D01*
X965989Y694284D01*
X966013Y694286D01*
X966053Y694282D01*
X970573Y694282D01*
X973682Y691173D01*
X973682Y686777D01*
X970885Y683980D01*
X970832Y683906D01*
X970772Y683836D01*
X970760Y683806D01*
X970741Y683780D01*
X970714Y683693D01*
X970680Y683608D01*
X970676Y683567D01*
X970669Y683545D01*
X970670Y683513D01*
X970662Y683442D01*
X970662Y640279D01*
X970673Y640209D01*
X970675Y640137D01*
X970693Y640088D01*
X970701Y640037D01*
X970735Y639973D01*
X970760Y639906D01*
X970792Y639865D01*
X970817Y639819D01*
X970869Y639770D01*
X970913Y639714D01*
X970957Y639686D01*
X970995Y639650D01*
X971060Y639620D01*
X971120Y639581D01*
X971171Y639568D01*
X971218Y639546D01*
X971289Y639538D01*
X971359Y639521D01*
X971411Y639525D01*
X971462Y639519D01*
X971533Y639534D01*
X971604Y639540D01*
X971652Y639560D01*
X971703Y639571D01*
X971764Y639608D01*
X971830Y639636D01*
X971886Y639681D01*
X971914Y639698D01*
X971929Y639715D01*
X971961Y639741D01*
X972527Y640307D01*
X976923Y640307D01*
X980032Y637198D01*
X980032Y632802D01*
X977235Y630005D01*
X977192Y629946D01*
X977146Y629898D01*
X977139Y629881D01*
X977122Y629861D01*
X977110Y629831D01*
X977091Y629805D01*
X977067Y629727D01*
X977043Y629674D01*
X977041Y629661D01*
X977030Y629633D01*
X977026Y629592D01*
X977019Y629570D01*
X977020Y629538D01*
X977012Y629467D01*
X977012Y552168D01*
X977015Y552148D01*
X977013Y552129D01*
X977035Y552027D01*
X977051Y551925D01*
X977061Y551908D01*
X977065Y551888D01*
X977118Y551799D01*
X977167Y551708D01*
X977181Y551694D01*
X977191Y551677D01*
X977270Y551610D01*
X977345Y551538D01*
X977363Y551530D01*
X977378Y551517D01*
X977474Y551478D01*
X977568Y551435D01*
X977588Y551433D01*
X977606Y551425D01*
X977773Y551407D01*
X980098Y551407D01*
X980664Y550841D01*
X980722Y550799D01*
X980774Y550750D01*
X980821Y550728D01*
X980863Y550698D01*
X980932Y550676D01*
X980997Y550646D01*
X981049Y550641D01*
X981099Y550625D01*
X981170Y550627D01*
X981241Y550619D01*
X981292Y550630D01*
G37*
%LPC*%
G36*
X458177Y870993D02*
X458177Y870993D01*
X455068Y874102D01*
X455068Y878498D01*
X458177Y881607D01*
X462573Y881607D01*
X465370Y878810D01*
X465444Y878757D01*
X465514Y878697D01*
X465544Y878685D01*
X465570Y878666D01*
X465657Y878639D01*
X465742Y878605D01*
X465783Y878601D01*
X465805Y878594D01*
X465837Y878595D01*
X465908Y878587D01*
X607242Y878587D01*
X607332Y878601D01*
X607423Y878609D01*
X607452Y878621D01*
X607484Y878626D01*
X607565Y878669D01*
X607649Y878705D01*
X607681Y878731D01*
X607702Y878742D01*
X607724Y878765D01*
X607780Y878810D01*
X610577Y881607D01*
X614973Y881607D01*
X618082Y878498D01*
X618082Y874102D01*
X614973Y870993D01*
X610577Y870993D01*
X607780Y873790D01*
X607706Y873843D01*
X607636Y873903D01*
X607606Y873915D01*
X607580Y873934D01*
X607493Y873961D01*
X607408Y873995D01*
X607367Y873999D01*
X607345Y874006D01*
X607313Y874005D01*
X607242Y874013D01*
X465908Y874013D01*
X465818Y873999D01*
X465727Y873991D01*
X465698Y873979D01*
X465666Y873974D01*
X465585Y873931D01*
X465501Y873895D01*
X465469Y873869D01*
X465448Y873858D01*
X465426Y873835D01*
X465370Y873790D01*
X462573Y870993D01*
X458177Y870993D01*
G37*
%LPD*%
%LPC*%
G36*
X1020152Y613818D02*
X1020152Y613818D01*
X1017043Y616927D01*
X1017043Y621323D01*
X1020152Y624432D01*
X1024107Y624432D01*
X1024198Y624446D01*
X1024288Y624454D01*
X1024318Y624466D01*
X1024350Y624471D01*
X1024431Y624514D01*
X1024515Y624550D01*
X1024547Y624576D01*
X1024568Y624587D01*
X1024590Y624610D01*
X1024646Y624655D01*
X1121217Y721226D01*
X1121229Y721242D01*
X1121245Y721255D01*
X1121301Y721342D01*
X1121361Y721426D01*
X1121367Y721445D01*
X1121378Y721462D01*
X1121403Y721562D01*
X1121433Y721661D01*
X1121433Y721681D01*
X1121438Y721700D01*
X1121430Y721803D01*
X1121427Y721907D01*
X1121420Y721926D01*
X1121418Y721946D01*
X1121378Y722040D01*
X1121342Y722138D01*
X1121330Y722154D01*
X1121322Y722172D01*
X1121217Y722303D01*
X1118643Y724877D01*
X1118643Y729273D01*
X1121752Y732382D01*
X1126148Y732382D01*
X1129257Y729273D01*
X1129257Y724877D01*
X1126460Y722080D01*
X1126412Y722013D01*
X1126408Y722009D01*
X1126406Y722005D01*
X1126347Y721936D01*
X1126335Y721906D01*
X1126316Y721880D01*
X1126289Y721793D01*
X1126255Y721708D01*
X1126251Y721667D01*
X1126244Y721645D01*
X1126245Y721613D01*
X1126237Y721542D01*
X1126237Y719778D01*
X1027880Y621421D01*
X1027827Y621347D01*
X1027767Y621277D01*
X1027755Y621247D01*
X1027736Y621221D01*
X1027709Y621134D01*
X1027675Y621049D01*
X1027671Y621008D01*
X1027664Y620986D01*
X1027665Y620954D01*
X1027657Y620882D01*
X1027657Y616927D01*
X1024548Y613818D01*
X1020152Y613818D01*
G37*
%LPD*%
%LPC*%
G36*
X131152Y750343D02*
X131152Y750343D01*
X128043Y753452D01*
X128043Y757848D01*
X130840Y760645D01*
X130885Y760707D01*
X130914Y760738D01*
X130919Y760749D01*
X130953Y760789D01*
X130965Y760819D01*
X130984Y760845D01*
X131011Y760932D01*
X131045Y761017D01*
X131049Y761058D01*
X131056Y761080D01*
X131055Y761112D01*
X131063Y761183D01*
X131063Y839171D01*
X131108Y839223D01*
X131120Y839253D01*
X131139Y839279D01*
X131166Y839366D01*
X131200Y839451D01*
X131204Y839492D01*
X131211Y839514D01*
X131210Y839546D01*
X131218Y839618D01*
X131218Y843573D01*
X134327Y846682D01*
X138723Y846682D01*
X141832Y843573D01*
X141832Y839177D01*
X138723Y836068D01*
X136398Y836068D01*
X136378Y836065D01*
X136359Y836067D01*
X136257Y836045D01*
X136155Y836029D01*
X136138Y836019D01*
X136118Y836015D01*
X136029Y835962D01*
X135938Y835913D01*
X135924Y835899D01*
X135907Y835889D01*
X135840Y835810D01*
X135768Y835735D01*
X135760Y835717D01*
X135747Y835702D01*
X135708Y835606D01*
X135665Y835512D01*
X135663Y835492D01*
X135655Y835474D01*
X135637Y835307D01*
X135637Y761183D01*
X135651Y761093D01*
X135659Y761002D01*
X135671Y760973D01*
X135676Y760941D01*
X135719Y760860D01*
X135755Y760776D01*
X135781Y760744D01*
X135792Y760723D01*
X135815Y760701D01*
X135828Y760685D01*
X135834Y760675D01*
X135840Y760669D01*
X135860Y760645D01*
X138657Y757848D01*
X138657Y753452D01*
X135548Y750343D01*
X131152Y750343D01*
G37*
%LPD*%
%LPC*%
G36*
X861402Y616993D02*
X861402Y616993D01*
X858293Y620102D01*
X858293Y624498D01*
X861090Y627295D01*
X861143Y627369D01*
X861203Y627439D01*
X861215Y627469D01*
X861234Y627495D01*
X861261Y627582D01*
X861295Y627667D01*
X861299Y627708D01*
X861306Y627730D01*
X861305Y627762D01*
X861313Y627833D01*
X861313Y692967D01*
X861299Y693057D01*
X861291Y693148D01*
X861279Y693177D01*
X861274Y693209D01*
X861231Y693290D01*
X861195Y693374D01*
X861169Y693406D01*
X861158Y693427D01*
X861135Y693449D01*
X861090Y693505D01*
X858293Y696302D01*
X858293Y700698D01*
X861402Y703807D01*
X865798Y703807D01*
X868907Y700698D01*
X868907Y696302D01*
X866110Y693505D01*
X866057Y693431D01*
X865997Y693361D01*
X865985Y693331D01*
X865966Y693305D01*
X865939Y693218D01*
X865905Y693133D01*
X865901Y693092D01*
X865894Y693070D01*
X865895Y693038D01*
X865887Y692967D01*
X865887Y627833D01*
X865901Y627743D01*
X865909Y627652D01*
X865921Y627623D01*
X865926Y627591D01*
X865969Y627510D01*
X866005Y627426D01*
X866031Y627394D01*
X866042Y627373D01*
X866065Y627351D01*
X866110Y627295D01*
X868907Y624498D01*
X868907Y620102D01*
X865798Y616993D01*
X861402Y616993D01*
G37*
%LPD*%
%LPC*%
G36*
X607402Y655093D02*
X607402Y655093D01*
X604293Y658202D01*
X604293Y662598D01*
X607090Y665395D01*
X607143Y665469D01*
X607203Y665539D01*
X607215Y665569D01*
X607234Y665595D01*
X607261Y665682D01*
X607295Y665767D01*
X607299Y665808D01*
X607306Y665830D01*
X607305Y665862D01*
X607313Y665933D01*
X607313Y671837D01*
X607299Y671928D01*
X607291Y672018D01*
X607279Y672048D01*
X607274Y672080D01*
X607231Y672161D01*
X607195Y672245D01*
X607169Y672277D01*
X607158Y672298D01*
X607135Y672320D01*
X607090Y672376D01*
X573796Y705670D01*
X573722Y705723D01*
X573652Y705783D01*
X573622Y705795D01*
X573596Y705814D01*
X573509Y705841D01*
X573424Y705875D01*
X573383Y705879D01*
X573361Y705886D01*
X573329Y705885D01*
X573257Y705893D01*
X569302Y705893D01*
X566193Y709002D01*
X566193Y713398D01*
X569302Y716507D01*
X573698Y716507D01*
X576807Y713398D01*
X576807Y709443D01*
X576821Y709352D01*
X576829Y709262D01*
X576841Y709232D01*
X576846Y709200D01*
X576889Y709119D01*
X576925Y709035D01*
X576951Y709003D01*
X576962Y708982D01*
X576985Y708960D01*
X577030Y708904D01*
X611887Y674047D01*
X611887Y665933D01*
X611901Y665843D01*
X611909Y665752D01*
X611921Y665723D01*
X611926Y665691D01*
X611969Y665610D01*
X612005Y665526D01*
X612031Y665494D01*
X612042Y665473D01*
X612065Y665451D01*
X612110Y665395D01*
X614907Y662598D01*
X614907Y658202D01*
X611798Y655093D01*
X607402Y655093D01*
G37*
%LPD*%
%LPC*%
G36*
X632827Y624077D02*
X632827Y624077D01*
X628813Y625740D01*
X625740Y628813D01*
X624077Y632827D01*
X624077Y637173D01*
X625740Y641187D01*
X628813Y644260D01*
X632827Y645923D01*
X637173Y645923D01*
X641187Y644260D01*
X644260Y641187D01*
X645923Y637173D01*
X645923Y632827D01*
X644260Y628813D01*
X641187Y625740D01*
X637173Y624077D01*
X632827Y624077D01*
G37*
%LPD*%
%LPC*%
G36*
X338568Y486775D02*
X338568Y486775D01*
X337675Y487668D01*
X337675Y502932D01*
X338568Y503825D01*
X351050Y503825D01*
X351141Y503839D01*
X351231Y503847D01*
X351261Y503859D01*
X351293Y503864D01*
X351374Y503907D01*
X351458Y503943D01*
X351490Y503969D01*
X351511Y503980D01*
X351533Y504003D01*
X351589Y504048D01*
X353245Y505704D01*
X353298Y505778D01*
X353358Y505848D01*
X353370Y505878D01*
X353389Y505904D01*
X353416Y505991D01*
X353450Y506076D01*
X353454Y506117D01*
X353461Y506139D01*
X353460Y506171D01*
X353468Y506243D01*
X353468Y510198D01*
X356577Y513307D01*
X360973Y513307D01*
X364082Y510198D01*
X364082Y505802D01*
X360973Y502693D01*
X357018Y502693D01*
X356927Y502679D01*
X356837Y502671D01*
X356807Y502659D01*
X356775Y502654D01*
X356694Y502611D01*
X356610Y502575D01*
X356578Y502549D01*
X356557Y502538D01*
X356535Y502515D01*
X356479Y502470D01*
X352948Y498939D01*
X352895Y498865D01*
X352835Y498795D01*
X352823Y498765D01*
X352804Y498739D01*
X352777Y498652D01*
X352743Y498567D01*
X352739Y498526D01*
X352732Y498504D01*
X352733Y498472D01*
X352725Y498400D01*
X352725Y487668D01*
X351832Y486775D01*
X338568Y486775D01*
G37*
%LPD*%
%LPC*%
G36*
X162902Y870993D02*
X162902Y870993D01*
X160105Y873790D01*
X160031Y873843D01*
X159961Y873903D01*
X159931Y873915D01*
X159905Y873934D01*
X159818Y873961D01*
X159733Y873995D01*
X159692Y873999D01*
X159670Y874006D01*
X159638Y874005D01*
X159567Y874013D01*
X138753Y874013D01*
X129296Y883470D01*
X129222Y883523D01*
X129152Y883583D01*
X129122Y883595D01*
X129096Y883614D01*
X129009Y883641D01*
X128924Y883675D01*
X128883Y883679D01*
X128861Y883686D01*
X128829Y883685D01*
X128757Y883693D01*
X124802Y883693D01*
X121693Y886802D01*
X121693Y891198D01*
X124802Y894307D01*
X129198Y894307D01*
X132307Y891198D01*
X132307Y887243D01*
X132321Y887152D01*
X132329Y887062D01*
X132341Y887032D01*
X132346Y887000D01*
X132389Y886919D01*
X132425Y886835D01*
X132451Y886803D01*
X132462Y886782D01*
X132485Y886760D01*
X132530Y886704D01*
X140424Y878810D01*
X140498Y878757D01*
X140568Y878697D01*
X140598Y878685D01*
X140624Y878666D01*
X140711Y878639D01*
X140796Y878605D01*
X140837Y878601D01*
X140859Y878594D01*
X140891Y878595D01*
X140963Y878587D01*
X159567Y878587D01*
X159657Y878601D01*
X159748Y878609D01*
X159777Y878621D01*
X159809Y878626D01*
X159890Y878669D01*
X159974Y878705D01*
X160006Y878731D01*
X160027Y878742D01*
X160049Y878765D01*
X160105Y878810D01*
X162902Y881607D01*
X167298Y881607D01*
X170407Y878498D01*
X170407Y874102D01*
X167298Y870993D01*
X162902Y870993D01*
G37*
%LPD*%
%LPC*%
G36*
X1166429Y498093D02*
X1166429Y498093D01*
X1162788Y499601D01*
X1160001Y502388D01*
X1158493Y506029D01*
X1158493Y509971D01*
X1160001Y513612D01*
X1162788Y516399D01*
X1166429Y517907D01*
X1170371Y517907D01*
X1174012Y516399D01*
X1176799Y513612D01*
X1178307Y509971D01*
X1178307Y506029D01*
X1176799Y502388D01*
X1174012Y499601D01*
X1170371Y498093D01*
X1166429Y498093D01*
G37*
%LPD*%
%LPC*%
G36*
X924902Y515393D02*
X924902Y515393D01*
X922105Y518190D01*
X922031Y518243D01*
X921961Y518303D01*
X921931Y518315D01*
X921905Y518334D01*
X921818Y518361D01*
X921733Y518395D01*
X921692Y518399D01*
X921670Y518406D01*
X921638Y518405D01*
X921567Y518413D01*
X913453Y518413D01*
X903996Y527870D01*
X903922Y527923D01*
X903852Y527983D01*
X903822Y527995D01*
X903796Y528014D01*
X903709Y528041D01*
X903624Y528075D01*
X903583Y528079D01*
X903561Y528086D01*
X903529Y528085D01*
X903457Y528093D01*
X899502Y528093D01*
X896393Y531202D01*
X896393Y535598D01*
X899502Y538707D01*
X903898Y538707D01*
X907007Y535598D01*
X907007Y531643D01*
X907021Y531552D01*
X907029Y531462D01*
X907041Y531432D01*
X907046Y531400D01*
X907089Y531319D01*
X907125Y531235D01*
X907151Y531203D01*
X907162Y531182D01*
X907185Y531160D01*
X907230Y531104D01*
X915124Y523210D01*
X915198Y523157D01*
X915268Y523097D01*
X915298Y523085D01*
X915324Y523066D01*
X915411Y523039D01*
X915496Y523005D01*
X915537Y523001D01*
X915559Y522994D01*
X915591Y522995D01*
X915663Y522987D01*
X921567Y522987D01*
X921657Y523001D01*
X921748Y523009D01*
X921777Y523021D01*
X921809Y523026D01*
X921890Y523069D01*
X921974Y523105D01*
X922006Y523131D01*
X922027Y523142D01*
X922049Y523165D01*
X922105Y523210D01*
X924902Y526007D01*
X929298Y526007D01*
X932407Y522898D01*
X932407Y518502D01*
X929298Y515393D01*
X924902Y515393D01*
G37*
%LPD*%
%LPC*%
G36*
X785202Y566193D02*
X785202Y566193D01*
X782093Y569302D01*
X782093Y573698D01*
X785202Y576807D01*
X789157Y576807D01*
X789248Y576821D01*
X789338Y576829D01*
X789368Y576841D01*
X789400Y576846D01*
X789481Y576889D01*
X789565Y576925D01*
X789597Y576951D01*
X789618Y576962D01*
X789640Y576985D01*
X789696Y577030D01*
X797590Y584924D01*
X797643Y584998D01*
X797703Y585068D01*
X797715Y585098D01*
X797734Y585124D01*
X797761Y585211D01*
X797795Y585296D01*
X797799Y585337D01*
X797806Y585359D01*
X797805Y585391D01*
X797813Y585463D01*
X797813Y591367D01*
X797799Y591457D01*
X797791Y591548D01*
X797779Y591577D01*
X797774Y591609D01*
X797731Y591690D01*
X797695Y591774D01*
X797669Y591806D01*
X797658Y591827D01*
X797635Y591849D01*
X797590Y591905D01*
X794793Y594702D01*
X794793Y599098D01*
X797902Y602207D01*
X802298Y602207D01*
X805407Y599098D01*
X805407Y594702D01*
X802610Y591905D01*
X802562Y591838D01*
X802559Y591835D01*
X802558Y591833D01*
X802557Y591831D01*
X802497Y591761D01*
X802485Y591731D01*
X802466Y591705D01*
X802439Y591618D01*
X802405Y591533D01*
X802401Y591492D01*
X802394Y591470D01*
X802395Y591438D01*
X802387Y591367D01*
X802387Y583253D01*
X792930Y573796D01*
X792877Y573722D01*
X792817Y573652D01*
X792805Y573622D01*
X792786Y573596D01*
X792759Y573509D01*
X792725Y573424D01*
X792721Y573383D01*
X792714Y573361D01*
X792715Y573329D01*
X792707Y573257D01*
X792707Y569302D01*
X789598Y566193D01*
X785202Y566193D01*
G37*
%LPD*%
%LPC*%
G36*
X99402Y642393D02*
X99402Y642393D01*
X96293Y645502D01*
X96293Y649898D01*
X99090Y652695D01*
X99143Y652769D01*
X99203Y652839D01*
X99215Y652869D01*
X99234Y652895D01*
X99261Y652982D01*
X99295Y653067D01*
X99299Y653108D01*
X99306Y653130D01*
X99305Y653162D01*
X99313Y653233D01*
X99313Y667567D01*
X99299Y667657D01*
X99291Y667748D01*
X99279Y667777D01*
X99274Y667809D01*
X99231Y667890D01*
X99195Y667974D01*
X99169Y668006D01*
X99158Y668027D01*
X99135Y668049D01*
X99090Y668105D01*
X96293Y670902D01*
X96293Y675298D01*
X99402Y678407D01*
X103798Y678407D01*
X106907Y675298D01*
X106907Y670902D01*
X104110Y668105D01*
X104057Y668031D01*
X103997Y667961D01*
X103985Y667931D01*
X103966Y667905D01*
X103939Y667818D01*
X103905Y667733D01*
X103901Y667692D01*
X103894Y667670D01*
X103895Y667638D01*
X103887Y667567D01*
X103887Y653233D01*
X103901Y653143D01*
X103909Y653052D01*
X103921Y653023D01*
X103926Y652991D01*
X103969Y652910D01*
X104005Y652826D01*
X104031Y652794D01*
X104042Y652773D01*
X104065Y652751D01*
X104110Y652695D01*
X106907Y649898D01*
X106907Y645502D01*
X103798Y642393D01*
X99402Y642393D01*
G37*
%LPD*%
%LPC*%
G36*
X150202Y909093D02*
X150202Y909093D01*
X147093Y912202D01*
X147093Y916598D01*
X150202Y919707D01*
X154157Y919707D01*
X154248Y919721D01*
X154338Y919729D01*
X154368Y919741D01*
X154400Y919746D01*
X154481Y919789D01*
X154565Y919825D01*
X154597Y919851D01*
X154618Y919862D01*
X154640Y919885D01*
X154696Y919930D01*
X159570Y924804D01*
X159623Y924878D01*
X159683Y924948D01*
X159695Y924978D01*
X159714Y925004D01*
X159741Y925091D01*
X159775Y925176D01*
X159779Y925217D01*
X159786Y925239D01*
X159785Y925271D01*
X159793Y925343D01*
X159793Y929298D01*
X162902Y932407D01*
X167298Y932407D01*
X170407Y929298D01*
X170407Y924902D01*
X167298Y921793D01*
X163343Y921793D01*
X163252Y921779D01*
X163162Y921771D01*
X163132Y921759D01*
X163100Y921754D01*
X163019Y921711D01*
X162935Y921675D01*
X162903Y921649D01*
X162882Y921638D01*
X162879Y921635D01*
X162859Y921614D01*
X162804Y921570D01*
X157930Y916696D01*
X157877Y916622D01*
X157817Y916552D01*
X157805Y916522D01*
X157786Y916496D01*
X157759Y916409D01*
X157725Y916324D01*
X157721Y916283D01*
X157714Y916261D01*
X157715Y916229D01*
X157707Y916157D01*
X157707Y912202D01*
X154598Y909093D01*
X150202Y909093D01*
G37*
%LPD*%
%LPC*%
G36*
X174223Y934419D02*
X174223Y934419D01*
X174223Y941977D01*
X194736Y941977D01*
X194512Y940851D01*
X193827Y939199D01*
X192833Y937711D01*
X191569Y936447D01*
X190081Y935453D01*
X188429Y934768D01*
X186674Y934419D01*
X174223Y934419D01*
G37*
%LPD*%
%LPC*%
G36*
X92726Y934419D02*
X92726Y934419D01*
X90971Y934768D01*
X89319Y935453D01*
X87831Y936447D01*
X86567Y937711D01*
X85573Y939199D01*
X84888Y940851D01*
X84664Y941977D01*
X105177Y941977D01*
X105177Y934419D01*
X92726Y934419D01*
G37*
%LPD*%
%LPC*%
G36*
X248627Y756693D02*
X248627Y756693D01*
X245518Y759802D01*
X245518Y764198D01*
X248627Y767307D01*
X253023Y767307D01*
X256132Y764198D01*
X256132Y759802D01*
X253023Y756693D01*
X248627Y756693D01*
G37*
%LPD*%
%LPC*%
G36*
X661923Y636523D02*
X661923Y636523D01*
X661923Y646846D01*
X663196Y646645D01*
X664983Y646064D01*
X666657Y645211D01*
X668178Y644106D01*
X669506Y642778D01*
X670611Y641257D01*
X671464Y639583D01*
X672045Y637796D01*
X672246Y636523D01*
X661923Y636523D01*
G37*
%LPD*%
%LPC*%
G36*
X648554Y636523D02*
X648554Y636523D01*
X648755Y637796D01*
X649336Y639583D01*
X650189Y641257D01*
X651294Y642778D01*
X652622Y644106D01*
X654143Y645211D01*
X655817Y646064D01*
X657604Y646645D01*
X658877Y646846D01*
X658877Y636523D01*
X648554Y636523D01*
G37*
%LPD*%
%LPC*%
G36*
X661923Y633477D02*
X661923Y633477D01*
X672246Y633477D01*
X672045Y632204D01*
X671464Y630417D01*
X670611Y628743D01*
X669506Y627222D01*
X668178Y625894D01*
X666657Y624789D01*
X664983Y623936D01*
X663196Y623355D01*
X661923Y623154D01*
X661923Y633477D01*
G37*
%LPD*%
%LPC*%
G36*
X39623Y976377D02*
X39623Y976377D01*
X49946Y976377D01*
X49745Y975104D01*
X49164Y973317D01*
X48311Y971643D01*
X47206Y970122D01*
X45878Y968794D01*
X44357Y967689D01*
X42683Y966836D01*
X40896Y966255D01*
X39623Y966054D01*
X39623Y976377D01*
G37*
%LPD*%
%LPC*%
G36*
X1131823Y976377D02*
X1131823Y976377D01*
X1142146Y976377D01*
X1141945Y975104D01*
X1141364Y973317D01*
X1140511Y971643D01*
X1139406Y970122D01*
X1138078Y968794D01*
X1136557Y967689D01*
X1134883Y966836D01*
X1133096Y966255D01*
X1131823Y966054D01*
X1131823Y976377D01*
G37*
%LPD*%
%LPC*%
G36*
X657604Y623355D02*
X657604Y623355D01*
X655817Y623936D01*
X654143Y624789D01*
X652622Y625894D01*
X651294Y627222D01*
X650189Y628743D01*
X649336Y630417D01*
X648755Y632204D01*
X648554Y633477D01*
X658877Y633477D01*
X658877Y623154D01*
X657604Y623355D01*
G37*
%LPD*%
%LPC*%
G36*
X1127504Y966255D02*
X1127504Y966255D01*
X1125717Y966836D01*
X1124043Y967689D01*
X1122522Y968794D01*
X1121194Y970122D01*
X1120089Y971643D01*
X1119236Y973317D01*
X1118655Y975104D01*
X1118454Y976377D01*
X1128777Y976377D01*
X1128777Y966054D01*
X1127504Y966255D01*
G37*
%LPD*%
G36*
X318142Y587697D02*
X318142Y587697D01*
X318144Y587696D01*
X320644Y590196D01*
X320644Y590198D01*
X320644Y590199D01*
X320645Y590200D01*
X320645Y593450D01*
X320641Y593455D01*
X320640Y593455D01*
X315760Y593455D01*
X315755Y593451D01*
X315755Y593450D01*
X315755Y587700D01*
X315759Y587695D01*
X315760Y587695D01*
X318140Y587695D01*
X318142Y587697D01*
G37*
%LPC*%
G36*
X343419Y572404D02*
X343419Y572404D01*
X343419Y576601D01*
X347181Y576601D01*
X347181Y574610D01*
X347008Y573964D01*
X346673Y573385D01*
X346200Y572912D01*
X345621Y572577D01*
X344974Y572404D01*
X343419Y572404D01*
G37*
%LPD*%
%LPC*%
G36*
X660399Y634999D02*
X660399Y634999D01*
X660399Y635001D01*
X660401Y635001D01*
X660401Y634999D01*
X660399Y634999D01*
G37*
%LPD*%
D10*
X345200Y495300D03*
X315200Y495300D03*
X345200Y673100D03*
X315200Y673100D03*
D11*
X635000Y635000D03*
X660400Y635000D03*
X673100Y977900D03*
X698500Y977900D03*
X723900Y977900D03*
X749300Y977900D03*
X520700Y977900D03*
X546100Y977900D03*
X571500Y977900D03*
X596900Y977900D03*
X812800Y977900D03*
X838200Y977900D03*
X863600Y977900D03*
X889000Y977900D03*
X368300Y977900D03*
X393700Y977900D03*
X419100Y977900D03*
X444500Y977900D03*
X952500Y977900D03*
X977900Y977900D03*
X1003300Y977900D03*
X1028700Y977900D03*
X63500Y977900D03*
X38100Y977900D03*
D12*
X1168400Y508000D03*
D13*
X318200Y591010D03*
D14*
X326200Y590580D03*
X334200Y590580D03*
X342200Y590580D03*
X342200Y577820D03*
X334200Y577820D03*
X326200Y577820D03*
X318200Y577820D03*
D15*
X103700Y971500D03*
X175700Y971500D03*
D16*
X172700Y943500D02*
X185780Y943500D01*
X106700Y943500D02*
X93620Y943500D01*
D11*
X1079500Y977900D03*
X1104900Y977900D03*
X1130300Y977900D03*
X1155700Y977900D03*
D17*
X1000125Y558800D02*
X1000125Y546100D01*
X996950Y542925D01*
X996950Y536575D01*
X1009650Y523875D01*
X1009650Y506413D01*
X971550Y468313D01*
X844550Y468313D01*
X412750Y790575D02*
X385763Y763588D01*
X615950Y727075D02*
X623888Y735013D01*
X615950Y727075D02*
X615950Y679450D01*
X649288Y646113D02*
X660400Y635000D01*
X649288Y646113D02*
X615950Y679450D01*
X352425Y796925D02*
X206375Y942975D01*
X352425Y796925D02*
X385763Y763588D01*
X206375Y942975D02*
X173038Y942975D01*
X172700Y943500D01*
X649288Y646113D02*
X649288Y452438D01*
D18*
X1000125Y558800D03*
X1009650Y523875D03*
X844550Y468313D03*
X412750Y790575D03*
X623888Y735013D03*
X649288Y452438D03*
X352425Y796925D03*
X977900Y647700D03*
D17*
X977900Y685800D01*
D18*
X977900Y685800D03*
X952500Y698500D03*
D17*
X190500Y956700D02*
X175700Y971500D01*
X168557Y910564D02*
X168557Y905537D01*
X171168Y902926D01*
X171168Y501368D01*
X139700Y469900D01*
X168557Y910564D02*
X190500Y932507D01*
X139700Y469900D02*
X179578Y430022D01*
X190500Y932507D02*
X190500Y956700D01*
D18*
X63500Y647700D03*
X88900Y495300D03*
X330200Y609600D03*
X355600Y609600D03*
D17*
X1003300Y539750D02*
X1006475Y542925D01*
X1006475Y612775D02*
X1006475Y727075D01*
X1006475Y612775D02*
X1006475Y542925D01*
X1006475Y727075D02*
X1009650Y730250D01*
X1009650Y736600D02*
X984250Y762000D01*
X1009650Y736600D02*
X1009650Y730250D01*
D18*
X1003300Y539750D03*
X1009650Y730250D03*
X1006475Y612775D03*
X984250Y762000D03*
X644525Y720725D03*
D17*
X676275Y688975D02*
X682625Y682625D01*
X650875Y714375D02*
X644525Y720725D01*
X727075Y638175D02*
X752475Y612775D01*
X682625Y676275D02*
X682625Y682625D01*
X720725Y638175D02*
X727075Y638175D01*
X720725Y638175D02*
X682625Y676275D01*
X673668Y686368D02*
X676275Y688975D01*
X673668Y686368D02*
X650875Y709161D01*
X650875Y714375D01*
X752475Y612775D02*
X777875Y612775D01*
X787400Y622300D01*
D18*
X787400Y622300D03*
D17*
X803275Y657225D02*
X825500Y679450D01*
X803275Y657225D02*
X768350Y622300D01*
X825500Y679450D02*
X825500Y774700D01*
X803275Y657225D02*
X923925Y536575D01*
X647700Y838200D02*
X644525Y841375D01*
X647700Y838200D02*
X647700Y727075D01*
X749300Y622300D02*
X768350Y622300D01*
D18*
X768350Y622300D03*
X825500Y774700D03*
X923925Y536575D03*
X644525Y841375D03*
D17*
X723900Y660400D02*
X723900Y647700D01*
X666468Y717832D02*
X656943Y717832D01*
X723900Y647700D02*
X749300Y622300D01*
X723900Y660400D02*
X711200Y673100D01*
X656943Y717832D02*
X647700Y727075D01*
X711200Y698500D02*
X711200Y673100D01*
X711200Y698500D02*
X703907Y698500D01*
X701014Y695607D01*
X688693Y695607D01*
X666468Y717832D01*
X1012825Y708025D02*
X1012825Y552450D01*
D18*
X1012825Y552450D03*
X1012825Y708025D03*
X863600Y622300D03*
D17*
X863600Y698500D01*
D18*
X863600Y698500D03*
D17*
X711200Y552450D02*
X733425Y530225D01*
X733425Y492125D01*
D18*
X711200Y552450D03*
X733425Y492125D03*
D17*
X336550Y796925D02*
X336550Y803275D01*
X336550Y796925D02*
X336550Y784225D01*
X336550Y796925D02*
X231775Y901700D01*
X295275Y784225D02*
X336550Y784225D01*
X295275Y784225D02*
X279400Y784225D01*
D18*
X336550Y803275D03*
X231775Y901700D03*
X279400Y784225D03*
X165100Y927100D03*
D17*
X152400Y914400D01*
D18*
X152400Y914400D03*
D17*
X295275Y784225D02*
X295275Y742950D01*
D18*
X295275Y742950D03*
X101600Y673100D03*
D17*
X101600Y647700D01*
D18*
X101600Y647700D03*
D17*
X133350Y838200D02*
X136525Y841375D01*
X133350Y838200D02*
X133350Y755650D01*
D18*
X136525Y841375D03*
X133350Y755650D03*
D17*
X720725Y485775D02*
X984250Y485775D01*
X984250Y698500D02*
X984250Y752475D01*
X984250Y698500D02*
X984250Y485775D01*
X984250Y752475D02*
X977900Y758825D01*
X977900Y873125D01*
X1079500Y974725D01*
X1079500Y977900D01*
D18*
X720725Y485775D03*
X711200Y660400D03*
D17*
X698500Y673100D01*
X698500Y685800D01*
D18*
X698500Y685800D03*
X939800Y673100D03*
D17*
X965200Y698500D01*
X984250Y698500D01*
X828675Y784225D02*
X1003300Y958850D01*
X828675Y784225D02*
X806450Y784225D01*
X806450Y749300D01*
X730250Y673100D01*
X720725Y673100D01*
D18*
X1003300Y958850D03*
X720725Y673100D03*
X127000Y889000D03*
D17*
X139700Y876300D01*
X165100Y876300D01*
D18*
X165100Y876300D03*
X571500Y711200D03*
D17*
X609600Y673100D01*
X609600Y660400D01*
D18*
X609600Y660400D03*
D17*
X581025Y654050D02*
X323850Y654050D01*
X323850Y682625D01*
X174625Y704850D02*
X174625Y908050D01*
D18*
X581025Y654050D03*
X174625Y908050D03*
D17*
X174625Y704850D02*
X196850Y682625D01*
X323850Y682625D01*
X666750Y536575D02*
X695325Y565150D01*
X666750Y460375D02*
X669925Y457200D01*
X666750Y460375D02*
X666750Y536575D01*
D18*
X695325Y565150D03*
X666750Y536575D03*
X669925Y457200D03*
D17*
X685800Y536575D02*
X701675Y552450D01*
X685800Y536575D02*
X685800Y533400D01*
X685800Y485775D02*
X673100Y473075D01*
X685800Y485775D02*
X685800Y533400D01*
D18*
X701675Y552450D03*
X685800Y533400D03*
X673100Y473075D03*
D17*
X1022350Y619125D02*
X1123950Y720725D01*
X1123950Y727075D01*
D18*
X1022350Y619125D03*
X1123950Y727075D03*
D17*
X949325Y631825D02*
X898525Y581025D01*
X949325Y654050D02*
X962025Y666750D01*
X949325Y654050D02*
X949325Y631825D01*
D18*
X898525Y581025D03*
X962025Y666750D03*
D17*
X968375Y625475D02*
X911225Y568325D01*
X968375Y625475D02*
X968375Y688975D01*
D18*
X911225Y568325D03*
X968375Y688975D03*
D17*
X755650Y590550D02*
X730250Y565150D01*
X755650Y590550D02*
X768350Y603250D01*
X631825Y803275D02*
X615950Y819150D01*
X631825Y803275D02*
X631825Y714375D01*
X755650Y590550D01*
D18*
X768350Y603250D03*
X730250Y565150D03*
X615950Y819150D03*
X927100Y520700D03*
D17*
X914400Y520700D01*
X901700Y533400D01*
D18*
X901700Y533400D03*
D17*
X946150Y533400D02*
X955675Y523875D01*
X946150Y533400D02*
X946150Y593725D01*
D18*
X955675Y523875D03*
X946150Y593725D03*
X990600Y571500D03*
D17*
X990600Y596900D01*
D18*
X990600Y596900D03*
X787400Y571500D03*
X800100Y596900D03*
D17*
X800100Y584200D01*
X787400Y571500D01*
X838200Y631825D02*
X923925Y546100D01*
D18*
X923925Y546100D03*
X838200Y631825D03*
D17*
X974725Y549275D02*
X977900Y546100D01*
X974725Y549275D02*
X974725Y635000D01*
D18*
X977900Y546100D03*
X974725Y635000D03*
X977900Y508000D03*
D17*
X965200Y508000D01*
D18*
X965200Y508000D03*
D17*
X318200Y591010D02*
X317500Y591710D01*
X317500Y596900D01*
X319088Y598488D01*
D18*
X319088Y598488D03*
D17*
X331788Y584200D02*
X344488Y584200D01*
X358775Y598488D01*
X327025Y590550D02*
X326200Y590580D01*
D18*
X358775Y598488D03*
D17*
X331788Y584200D02*
X326200Y589788D01*
X326200Y590580D01*
X317500Y577850D02*
X311150Y584200D01*
X317500Y577850D02*
X318200Y577820D01*
D18*
X311150Y584200D03*
D17*
X327025Y576263D02*
X381000Y522288D01*
X509588Y522288D01*
X327025Y576263D02*
X326200Y577820D01*
D18*
X509588Y522288D03*
D17*
X358775Y508000D02*
X346075Y495300D01*
X345200Y495300D01*
D18*
X358775Y508000D03*
D17*
X358775Y660400D02*
X346075Y673100D01*
X345200Y673100D01*
D18*
X358775Y660400D03*
D17*
X307975Y800100D02*
X307975Y803275D01*
D18*
X307975Y800100D03*
D17*
X266700Y854075D02*
X228600Y815975D01*
X266700Y854075D02*
X274638Y854075D01*
X274638Y846138D01*
D18*
X228600Y815975D03*
D17*
X307975Y812800D02*
X307975Y800100D01*
X307975Y812800D02*
X274638Y846138D01*
X273050Y787400D02*
X269875Y784225D01*
X273050Y787400D02*
X273050Y838200D01*
D18*
X269875Y784225D03*
X273050Y838200D03*
D17*
X263525Y746125D02*
X238125Y720725D01*
X263525Y746125D02*
X263525Y796925D01*
D18*
X238125Y720725D03*
X263525Y796925D03*
X250825Y762000D03*
D17*
X654050Y733425D02*
X654050Y863600D01*
D18*
X654050Y733425D03*
X654050Y863600D03*
D17*
X660400Y854075D02*
X660400Y723900D01*
D18*
X660400Y723900D03*
X660400Y854075D03*
D17*
X669925Y736600D02*
X666750Y733425D01*
X669925Y736600D02*
X669925Y854075D01*
D18*
X666750Y733425D03*
X669925Y854075D03*
D17*
X676275Y730250D02*
X669925Y723900D01*
X676275Y730250D02*
X676275Y841375D01*
D18*
X669925Y723900D03*
X676275Y841375D03*
D17*
X596900Y711200D02*
X527050Y781050D01*
X527050Y860425D01*
D18*
X596900Y711200D03*
X527050Y860425D03*
D17*
X746125Y717550D02*
X803275Y774700D01*
X803275Y879475D01*
D18*
X746125Y717550D03*
X803275Y879475D03*
D17*
X809625Y866775D02*
X809625Y790575D01*
X609600Y708025D02*
X539750Y777875D01*
D18*
X809625Y790575D03*
X809625Y866775D03*
X539750Y777875D03*
X609600Y708025D03*
D17*
X688975Y736600D02*
X692150Y733425D01*
X688975Y752475D02*
X688975Y850900D01*
X688975Y752475D02*
X688975Y736600D01*
X720725Y892175D02*
X831850Y892175D01*
X720725Y892175D02*
X720725Y730250D01*
X717550Y727075D01*
X708025Y727075D01*
X708025Y733425D01*
X688975Y752475D01*
D18*
X692150Y733425D03*
X688975Y850900D03*
X831850Y892175D03*
D17*
X701675Y730250D02*
X698500Y727075D01*
X698500Y701675D01*
X555625Y698500D02*
X371475Y882650D01*
X371475Y892175D01*
D18*
X701675Y730250D03*
X698500Y701675D03*
X555625Y698500D03*
X371475Y892175D03*
D17*
X682625Y733425D02*
X692150Y723900D01*
X682625Y733425D02*
X682625Y850900D01*
X647700Y885825D01*
X384175Y885825D01*
X384175Y892175D01*
D18*
X692150Y723900D03*
X384175Y892175D03*
D17*
X695325Y752475D02*
X714375Y733425D01*
X695325Y752475D02*
X695325Y873125D01*
X676275Y892175D01*
X396875Y892175D01*
D18*
X714375Y733425D03*
X396875Y892175D03*
X622300Y723900D03*
D17*
X628777Y717423D01*
X628777Y713112D01*
X647700Y694189D02*
X647700Y685800D01*
X647700Y694189D02*
X628777Y713112D01*
D18*
X647700Y685800D03*
X787400Y673100D03*
D17*
X774700Y660400D01*
D18*
X774700Y660400D03*
D17*
X676275Y679450D02*
X635000Y720725D01*
X635000Y841375D01*
D18*
X676275Y679450D03*
X635000Y841375D03*
D17*
X927100Y844550D02*
X974725Y892175D01*
D18*
X927100Y844550D03*
X974725Y892175D03*
D17*
X987425Y892175D02*
X949325Y854075D01*
D18*
X949325Y854075D03*
X987425Y892175D03*
D17*
X612775Y876300D02*
X460375Y876300D01*
D18*
X612775Y876300D03*
X460375Y876300D03*
D17*
X514350Y958850D02*
X520700Y965200D01*
X520700Y977900D01*
D18*
X514350Y958850D03*
D17*
X730250Y663575D02*
X815975Y749300D01*
X815975Y777875D01*
D18*
X730250Y663575D03*
X815975Y777875D03*
D17*
X314325Y495300D02*
X304800Y504825D01*
X304800Y660400D02*
X304800Y663575D01*
X304800Y660400D02*
X304800Y504825D01*
X304800Y663575D02*
X314325Y673100D01*
X314325Y495300D02*
X315200Y495300D01*
X315200Y673100D02*
X314325Y673100D01*
X315200Y673100D02*
X320802Y667498D01*
X341313Y623888D02*
X341313Y592138D01*
X341313Y623888D02*
X304800Y660400D01*
X341313Y592138D02*
X342200Y590580D01*
M02*
