G04 EAGLE Gerber RS-274X export*
G75*
%MOMM*%
%FSLAX34Y34*%
%LPD*%
%IN*%
%IPPOS*%
%AMOC8*
5,1,8,0,0,1.08239X$1,22.5*%
G01*
%ADD10C,0.254000*%


D10*
X0Y419100D02*
X1193600Y419100D01*
X1193600Y1000000D01*
X0Y1000000D01*
X0Y419100D01*
X99200Y968500D02*
X99259Y968153D01*
X99348Y967813D01*
X99466Y967482D01*
X99612Y967162D01*
X99786Y966856D01*
X99986Y966567D01*
X100210Y966296D01*
X100457Y966046D01*
X100725Y965818D01*
X101012Y965614D01*
X101315Y965437D01*
X101633Y965286D01*
X101963Y965163D01*
X102302Y965070D01*
X102648Y965007D01*
X102998Y964974D01*
X103349Y964972D01*
X103700Y965000D01*
X104051Y964972D01*
X104402Y964974D01*
X104752Y965007D01*
X105098Y965070D01*
X105437Y965163D01*
X105767Y965286D01*
X106085Y965437D01*
X106388Y965614D01*
X106675Y965818D01*
X106943Y966046D01*
X107190Y966296D01*
X107414Y966567D01*
X107614Y966856D01*
X107788Y967162D01*
X107934Y967482D01*
X108052Y967813D01*
X108141Y968153D01*
X108200Y968500D01*
X108200Y974500D01*
X108141Y974847D01*
X108052Y975187D01*
X107934Y975518D01*
X107788Y975838D01*
X107614Y976144D01*
X107414Y976433D01*
X107190Y976704D01*
X106943Y976954D01*
X106675Y977182D01*
X106388Y977386D01*
X106085Y977563D01*
X105767Y977714D01*
X105437Y977837D01*
X105098Y977930D01*
X104752Y977993D01*
X104402Y978026D01*
X104051Y978028D01*
X103700Y978000D01*
X103349Y978028D01*
X102998Y978026D01*
X102648Y977993D01*
X102302Y977930D01*
X101963Y977837D01*
X101633Y977714D01*
X101315Y977563D01*
X101012Y977386D01*
X100725Y977182D01*
X100457Y976954D01*
X100210Y976704D01*
X99986Y976433D01*
X99786Y976144D01*
X99612Y975838D01*
X99466Y975518D01*
X99348Y975187D01*
X99259Y974847D01*
X99200Y974500D01*
X99200Y968500D01*
X171200Y968500D02*
X171213Y968195D01*
X171253Y967892D01*
X171319Y967594D01*
X171411Y967303D01*
X171528Y967021D01*
X171669Y966750D01*
X171833Y966492D01*
X172019Y966250D01*
X172225Y966025D01*
X172450Y965819D01*
X172692Y965633D01*
X172950Y965469D01*
X173221Y965328D01*
X173503Y965211D01*
X173794Y965119D01*
X174092Y965053D01*
X174395Y965013D01*
X174700Y965000D01*
X176700Y965000D01*
X177005Y965013D01*
X177308Y965053D01*
X177606Y965119D01*
X177897Y965211D01*
X178179Y965328D01*
X178450Y965469D01*
X178708Y965633D01*
X178950Y965819D01*
X179175Y966025D01*
X179381Y966250D01*
X179567Y966492D01*
X179731Y966750D01*
X179872Y967021D01*
X179989Y967303D01*
X180081Y967594D01*
X180147Y967892D01*
X180187Y968195D01*
X180200Y968500D01*
X180200Y974000D01*
X180208Y974328D01*
X180186Y974655D01*
X180137Y974979D01*
X180059Y975298D01*
X179954Y975608D01*
X179823Y975909D01*
X179665Y976196D01*
X179483Y976469D01*
X179278Y976725D01*
X179052Y976962D01*
X178806Y977178D01*
X178542Y977373D01*
X178261Y977543D01*
X177968Y977688D01*
X177662Y977808D01*
X177347Y977900D01*
X177026Y977964D01*
X176700Y978000D01*
X174700Y978000D01*
X174374Y977964D01*
X174053Y977900D01*
X173738Y977808D01*
X173433Y977688D01*
X173139Y977543D01*
X172859Y977373D01*
X172594Y977178D01*
X172348Y976962D01*
X172122Y976725D01*
X171917Y976469D01*
X171735Y976196D01*
X171577Y975909D01*
X171446Y975608D01*
X171341Y975298D01*
X171263Y974979D01*
X171214Y974655D01*
X171192Y974328D01*
X171200Y974000D01*
X171200Y968500D01*
X30400Y952219D02*
X30337Y951661D01*
X30212Y951114D01*
X30027Y950584D01*
X29783Y950078D01*
X29484Y949602D01*
X29134Y949163D01*
X28737Y948766D01*
X28298Y948416D01*
X27822Y948117D01*
X27316Y947873D01*
X26786Y947688D01*
X26239Y947563D01*
X25681Y947500D01*
X25119Y947500D01*
X24561Y947563D01*
X24014Y947688D01*
X23484Y947873D01*
X22978Y948117D01*
X22502Y948416D01*
X22063Y948766D01*
X21666Y949163D01*
X21316Y949602D01*
X21017Y950078D01*
X20773Y950584D01*
X20588Y951114D01*
X20463Y951661D01*
X20400Y952219D01*
X20400Y952781D01*
X20463Y953339D01*
X20588Y953886D01*
X20773Y954416D01*
X21017Y954922D01*
X21316Y955398D01*
X21666Y955837D01*
X22063Y956234D01*
X22502Y956584D01*
X22978Y956883D01*
X23484Y957127D01*
X24014Y957312D01*
X24561Y957437D01*
X25119Y957500D01*
X25681Y957500D01*
X26239Y957437D01*
X26786Y957312D01*
X27316Y957127D01*
X27822Y956883D01*
X28298Y956584D01*
X28737Y956234D01*
X29134Y955837D01*
X29484Y955398D01*
X29783Y954922D01*
X30027Y954416D01*
X30212Y953886D01*
X30337Y953339D01*
X30400Y952781D01*
X30400Y952219D01*
X30400Y444219D02*
X30337Y443661D01*
X30212Y443114D01*
X30027Y442584D01*
X29783Y442078D01*
X29484Y441602D01*
X29134Y441163D01*
X28737Y440766D01*
X28298Y440416D01*
X27822Y440117D01*
X27316Y439873D01*
X26786Y439688D01*
X26239Y439563D01*
X25681Y439500D01*
X25119Y439500D01*
X24561Y439563D01*
X24014Y439688D01*
X23484Y439873D01*
X22978Y440117D01*
X22502Y440416D01*
X22063Y440766D01*
X21666Y441163D01*
X21316Y441602D01*
X21017Y442078D01*
X20773Y442584D01*
X20588Y443114D01*
X20463Y443661D01*
X20400Y444219D01*
X20400Y444781D01*
X20463Y445339D01*
X20588Y445886D01*
X20773Y446416D01*
X21017Y446922D01*
X21316Y447398D01*
X21666Y447837D01*
X22063Y448234D01*
X22502Y448584D01*
X22978Y448883D01*
X23484Y449127D01*
X24014Y449312D01*
X24561Y449437D01*
X25119Y449500D01*
X25681Y449500D01*
X26239Y449437D01*
X26786Y449312D01*
X27316Y449127D01*
X27822Y448883D01*
X28298Y448584D01*
X28737Y448234D01*
X29134Y447837D01*
X29484Y447398D01*
X29783Y446922D01*
X30027Y446416D01*
X30212Y445886D01*
X30337Y445339D01*
X30400Y444781D01*
X30400Y444219D01*
X1173400Y444219D02*
X1173337Y443661D01*
X1173212Y443114D01*
X1173027Y442584D01*
X1172783Y442078D01*
X1172484Y441602D01*
X1172134Y441163D01*
X1171737Y440766D01*
X1171298Y440416D01*
X1170822Y440117D01*
X1170316Y439873D01*
X1169786Y439688D01*
X1169239Y439563D01*
X1168681Y439500D01*
X1168119Y439500D01*
X1167561Y439563D01*
X1167014Y439688D01*
X1166484Y439873D01*
X1165978Y440117D01*
X1165502Y440416D01*
X1165063Y440766D01*
X1164666Y441163D01*
X1164316Y441602D01*
X1164017Y442078D01*
X1163773Y442584D01*
X1163588Y443114D01*
X1163463Y443661D01*
X1163400Y444219D01*
X1163400Y444781D01*
X1163463Y445339D01*
X1163588Y445886D01*
X1163773Y446416D01*
X1164017Y446922D01*
X1164316Y447398D01*
X1164666Y447837D01*
X1165063Y448234D01*
X1165502Y448584D01*
X1165978Y448883D01*
X1166484Y449127D01*
X1167014Y449312D01*
X1167561Y449437D01*
X1168119Y449500D01*
X1168681Y449500D01*
X1169239Y449437D01*
X1169786Y449312D01*
X1170316Y449127D01*
X1170822Y448883D01*
X1171298Y448584D01*
X1171737Y448234D01*
X1172134Y447837D01*
X1172484Y447398D01*
X1172783Y446922D01*
X1173027Y446416D01*
X1173212Y445886D01*
X1173337Y445339D01*
X1173400Y444781D01*
X1173400Y444219D01*
X1173400Y952219D02*
X1173337Y951661D01*
X1173212Y951114D01*
X1173027Y950584D01*
X1172783Y950078D01*
X1172484Y949602D01*
X1172134Y949163D01*
X1171737Y948766D01*
X1171298Y948416D01*
X1170822Y948117D01*
X1170316Y947873D01*
X1169786Y947688D01*
X1169239Y947563D01*
X1168681Y947500D01*
X1168119Y947500D01*
X1167561Y947563D01*
X1167014Y947688D01*
X1166484Y947873D01*
X1165978Y948117D01*
X1165502Y948416D01*
X1165063Y948766D01*
X1164666Y949163D01*
X1164316Y949602D01*
X1164017Y950078D01*
X1163773Y950584D01*
X1163588Y951114D01*
X1163463Y951661D01*
X1163400Y952219D01*
X1163400Y952781D01*
X1163463Y953339D01*
X1163588Y953886D01*
X1163773Y954416D01*
X1164017Y954922D01*
X1164316Y955398D01*
X1164666Y955837D01*
X1165063Y956234D01*
X1165502Y956584D01*
X1165978Y956883D01*
X1166484Y957127D01*
X1167014Y957312D01*
X1167561Y957437D01*
X1168119Y957500D01*
X1168681Y957500D01*
X1169239Y957437D01*
X1169786Y957312D01*
X1170316Y957127D01*
X1170822Y956883D01*
X1171298Y956584D01*
X1171737Y956234D01*
X1172134Y955837D01*
X1172484Y955398D01*
X1172783Y954922D01*
X1173027Y954416D01*
X1173212Y953886D01*
X1173337Y953339D01*
X1173400Y952781D01*
X1173400Y952219D01*
X155700Y952729D02*
X155760Y953184D01*
X155879Y953627D01*
X156054Y954051D01*
X156284Y954449D01*
X156563Y954813D01*
X156887Y955137D01*
X157251Y955416D01*
X157649Y955646D01*
X158073Y955821D01*
X158516Y955940D01*
X158971Y956000D01*
X159429Y956000D01*
X159884Y955940D01*
X160327Y955821D01*
X160751Y955646D01*
X161149Y955416D01*
X161513Y955137D01*
X161837Y954813D01*
X162116Y954449D01*
X162346Y954051D01*
X162521Y953627D01*
X162640Y953184D01*
X162700Y952729D01*
X162700Y952271D01*
X162640Y951816D01*
X162521Y951373D01*
X162346Y950949D01*
X162116Y950551D01*
X161837Y950187D01*
X161513Y949863D01*
X161149Y949584D01*
X160751Y949354D01*
X160327Y949179D01*
X159884Y949060D01*
X159429Y949000D01*
X158971Y949000D01*
X158516Y949060D01*
X158073Y949179D01*
X157649Y949354D01*
X157251Y949584D01*
X156887Y949863D01*
X156563Y950187D01*
X156284Y950551D01*
X156054Y950949D01*
X155879Y951373D01*
X155760Y951816D01*
X155700Y952271D01*
X155700Y952729D01*
X116700Y952729D02*
X116760Y953184D01*
X116879Y953627D01*
X117054Y954051D01*
X117284Y954449D01*
X117563Y954813D01*
X117887Y955137D01*
X118251Y955416D01*
X118649Y955646D01*
X119073Y955821D01*
X119516Y955940D01*
X119971Y956000D01*
X120429Y956000D01*
X120884Y955940D01*
X121327Y955821D01*
X121751Y955646D01*
X122149Y955416D01*
X122513Y955137D01*
X122837Y954813D01*
X123116Y954449D01*
X123346Y954051D01*
X123521Y953627D01*
X123640Y953184D01*
X123700Y952729D01*
X123700Y952271D01*
X123640Y951816D01*
X123521Y951373D01*
X123346Y950949D01*
X123116Y950551D01*
X122837Y950187D01*
X122513Y949863D01*
X122149Y949584D01*
X121751Y949354D01*
X121327Y949179D01*
X120884Y949060D01*
X120429Y949000D01*
X119971Y949000D01*
X119516Y949060D01*
X119073Y949179D01*
X118649Y949354D01*
X118251Y949584D01*
X117887Y949863D01*
X117563Y950187D01*
X117284Y950551D01*
X117054Y950949D01*
X116879Y951373D01*
X116760Y951816D01*
X116700Y952271D01*
X116700Y952729D01*
M02*
