G04 EAGLE Gerber RS-274X export*
G75*
%MOMM*%
%FSLAX34Y34*%
%LPD*%
%INSoldermask Top*%
%IPPOS*%
%AMOC8*
5,1,8,0,0,1.08239X$1,22.5*%
G01*
%ADD10C,1.203200*%
%ADD11R,1.303200X1.203200*%
%ADD12R,1.003200X1.403200*%
%ADD13R,1.203200X1.303200*%
%ADD14R,1.473200X2.263200*%
%ADD15R,1.443200X1.703200*%
%ADD16R,1.403200X1.403200*%
%ADD17R,1.603200X1.603200*%
%ADD18R,1.473200X1.673200*%
%ADD19R,0.503200X2.003200*%
%ADD20C,2.082800*%
%ADD21C,1.879600*%
%ADD22C,1.703200*%
%ADD23R,0.453200X0.953200*%
%ADD24R,0.953200X0.453200*%
%ADD25R,4.903200X4.903200*%
%ADD26C,0.353406*%
%ADD27R,1.168400X0.635000*%
%ADD28R,3.657600X4.546600*%
%ADD29R,0.753200X1.403200*%
%ADD30R,1.703200X1.203200*%
%ADD31R,1.092200X1.600200*%
%ADD32R,5.613400X5.715000*%
%ADD33R,1.203200X4.803200*%
%ADD34R,1.803200X3.603200*%
%ADD35R,1.303200X2.103200*%
%ADD36C,0.903200*%
%ADD37R,2.703200X2.703200*%
%ADD38C,1.511200*%
%ADD39R,1.203200X2.203200*%
%ADD40R,0.500000X1.450000*%
%ADD41R,2.403200X1.253200*%
%ADD42R,1.003200X1.203200*%
%ADD43R,1.803200X0.563200*%
%ADD44R,0.953200X0.603200*%
%ADD45C,0.959600*%

G36*
X695165Y765777D02*
X695165Y765777D01*
X695231Y765779D01*
X695274Y765797D01*
X695321Y765805D01*
X695378Y765839D01*
X695438Y765864D01*
X695473Y765895D01*
X695514Y765920D01*
X695556Y765971D01*
X695604Y766015D01*
X695626Y766057D01*
X695655Y766094D01*
X695676Y766156D01*
X695707Y766215D01*
X695715Y766269D01*
X695727Y766306D01*
X695726Y766346D01*
X695734Y766400D01*
X695734Y808400D01*
X695723Y808465D01*
X695721Y808531D01*
X695703Y808574D01*
X695695Y808621D01*
X695661Y808678D01*
X695636Y808738D01*
X695605Y808773D01*
X695580Y808814D01*
X695529Y808856D01*
X695485Y808904D01*
X695443Y808926D01*
X695406Y808955D01*
X695344Y808976D01*
X695285Y809007D01*
X695231Y809015D01*
X695194Y809027D01*
X695154Y809026D01*
X695100Y809034D01*
X651100Y809034D01*
X651035Y809023D01*
X650969Y809021D01*
X650926Y809003D01*
X650879Y808995D01*
X650822Y808961D01*
X650762Y808936D01*
X650727Y808905D01*
X650686Y808880D01*
X650645Y808829D01*
X650596Y808785D01*
X650574Y808743D01*
X650545Y808706D01*
X650524Y808644D01*
X650493Y808585D01*
X650485Y808531D01*
X650473Y808494D01*
X650474Y808454D01*
X650466Y808400D01*
X650466Y766400D01*
X650477Y766335D01*
X650479Y766269D01*
X650497Y766226D01*
X650505Y766179D01*
X650539Y766122D01*
X650564Y766062D01*
X650595Y766027D01*
X650620Y765986D01*
X650671Y765945D01*
X650715Y765896D01*
X650757Y765874D01*
X650794Y765845D01*
X650856Y765824D01*
X650915Y765793D01*
X650969Y765785D01*
X651006Y765773D01*
X651046Y765774D01*
X651100Y765766D01*
X695100Y765766D01*
X695165Y765777D01*
G37*
G36*
X999401Y543846D02*
X999401Y543846D01*
X999743Y543940D01*
X999744Y543940D01*
X1000040Y544135D01*
X1000040Y544136D01*
X1000041Y544136D01*
X1000262Y544412D01*
X1000262Y544413D01*
X1000263Y544413D01*
X1000388Y544745D01*
X1000387Y544746D01*
X1000388Y544746D01*
X1000394Y544869D01*
X1000394Y544870D01*
X1000404Y545100D01*
X1000404Y547100D01*
X1000388Y547454D01*
X1000387Y547455D01*
X1000388Y547455D01*
X1000263Y547787D01*
X1000262Y547787D01*
X1000262Y547788D01*
X1000041Y548064D01*
X1000040Y548064D01*
X1000040Y548065D01*
X999744Y548260D01*
X999743Y548260D01*
X999401Y548354D01*
X999400Y548354D01*
X994900Y548354D01*
X994899Y548354D01*
X994504Y548300D01*
X994504Y548299D01*
X994503Y548299D01*
X994144Y548125D01*
X994144Y548124D01*
X994143Y548124D01*
X993855Y547848D01*
X993855Y547847D01*
X993854Y547847D01*
X993666Y547495D01*
X993667Y547494D01*
X993666Y547494D01*
X993666Y547493D01*
X993663Y547476D01*
X993657Y547446D01*
X993654Y547429D01*
X993652Y547416D01*
X993649Y547399D01*
X993647Y547387D01*
X993644Y547370D01*
X993642Y547357D01*
X993639Y547340D01*
X993638Y547340D01*
X993639Y547340D01*
X993633Y547310D01*
X993630Y547293D01*
X993628Y547280D01*
X993625Y547263D01*
X993623Y547251D01*
X993620Y547234D01*
X993614Y547204D01*
X993611Y547187D01*
X993609Y547174D01*
X993606Y547157D01*
X993604Y547144D01*
X993601Y547127D01*
X993598Y547115D01*
X993596Y547101D01*
X993596Y547100D01*
X993596Y545100D01*
X993596Y545099D01*
X993666Y544706D01*
X993667Y544706D01*
X993666Y544705D01*
X993854Y544353D01*
X993855Y544353D01*
X993855Y544352D01*
X994143Y544076D01*
X994144Y544076D01*
X994144Y544075D01*
X994503Y543901D01*
X994504Y543901D01*
X994504Y543900D01*
X994899Y543846D01*
X994900Y543846D01*
X999400Y543846D01*
X999401Y543846D01*
G37*
G36*
X961201Y543846D02*
X961201Y543846D01*
X961543Y543940D01*
X961544Y543940D01*
X961840Y544135D01*
X961840Y544136D01*
X961841Y544136D01*
X962062Y544412D01*
X962062Y544413D01*
X962063Y544413D01*
X962188Y544745D01*
X962187Y544746D01*
X962188Y544746D01*
X962194Y544869D01*
X962194Y544870D01*
X962204Y545100D01*
X962204Y547100D01*
X962188Y547454D01*
X962187Y547455D01*
X962188Y547455D01*
X962063Y547787D01*
X962062Y547787D01*
X962062Y547788D01*
X961841Y548064D01*
X961840Y548064D01*
X961840Y548065D01*
X961544Y548260D01*
X961543Y548260D01*
X961201Y548354D01*
X961200Y548354D01*
X956700Y548354D01*
X956699Y548354D01*
X956304Y548300D01*
X956304Y548299D01*
X956303Y548299D01*
X955944Y548125D01*
X955944Y548124D01*
X955943Y548124D01*
X955655Y547848D01*
X955655Y547847D01*
X955654Y547847D01*
X955466Y547495D01*
X955467Y547494D01*
X955466Y547494D01*
X955466Y547493D01*
X955463Y547476D01*
X955457Y547446D01*
X955454Y547429D01*
X955452Y547416D01*
X955449Y547399D01*
X955447Y547387D01*
X955444Y547370D01*
X955442Y547357D01*
X955439Y547340D01*
X955438Y547340D01*
X955439Y547340D01*
X955433Y547310D01*
X955430Y547293D01*
X955428Y547280D01*
X955425Y547263D01*
X955423Y547251D01*
X955420Y547234D01*
X955414Y547204D01*
X955411Y547187D01*
X955409Y547174D01*
X955406Y547157D01*
X955404Y547144D01*
X955401Y547127D01*
X955398Y547115D01*
X955396Y547101D01*
X955396Y547100D01*
X955396Y545100D01*
X955396Y545099D01*
X955466Y544706D01*
X955467Y544706D01*
X955466Y544705D01*
X955654Y544353D01*
X955655Y544353D01*
X955655Y544352D01*
X955943Y544076D01*
X955944Y544076D01*
X955944Y544075D01*
X956303Y543901D01*
X956304Y543901D01*
X956304Y543900D01*
X956699Y543846D01*
X956700Y543846D01*
X961200Y543846D01*
X961201Y543846D01*
G37*
G36*
X993900Y531096D02*
X993900Y531096D01*
X994254Y531112D01*
X994255Y531113D01*
X994255Y531112D01*
X994587Y531237D01*
X994587Y531238D01*
X994588Y531238D01*
X994864Y531459D01*
X994864Y531460D01*
X994865Y531460D01*
X995060Y531756D01*
X995060Y531757D01*
X995154Y532099D01*
X995154Y532100D01*
X995154Y536600D01*
X995154Y536601D01*
X995100Y536996D01*
X995099Y536996D01*
X995099Y536997D01*
X994925Y537356D01*
X994924Y537356D01*
X994924Y537357D01*
X994648Y537645D01*
X994647Y537645D01*
X994647Y537646D01*
X994295Y537834D01*
X994294Y537833D01*
X994294Y537834D01*
X993901Y537904D01*
X993900Y537904D01*
X991900Y537904D01*
X991899Y537904D01*
X991506Y537834D01*
X991506Y537833D01*
X991505Y537834D01*
X991153Y537646D01*
X991153Y537645D01*
X991152Y537645D01*
X990876Y537357D01*
X990876Y537356D01*
X990875Y537356D01*
X990701Y536997D01*
X990701Y536996D01*
X990700Y536996D01*
X990700Y536995D01*
X990697Y536974D01*
X990694Y536949D01*
X990691Y536927D01*
X990687Y536902D01*
X990685Y536881D01*
X990681Y536855D01*
X990678Y536834D01*
X990677Y536830D01*
X990675Y536808D01*
X990672Y536787D01*
X990671Y536783D01*
X990668Y536762D01*
X990665Y536740D01*
X990665Y536736D01*
X990662Y536715D01*
X990659Y536694D01*
X990658Y536689D01*
X990655Y536668D01*
X990652Y536647D01*
X990652Y536643D01*
X990649Y536621D01*
X990646Y536601D01*
X990646Y536600D01*
X990646Y532100D01*
X990646Y532099D01*
X990740Y531757D01*
X990740Y531756D01*
X990935Y531460D01*
X990936Y531460D01*
X990936Y531459D01*
X991212Y531238D01*
X991213Y531238D01*
X991213Y531237D01*
X991545Y531112D01*
X991546Y531113D01*
X991546Y531112D01*
X991900Y531096D01*
X993900Y531096D01*
X993900Y531096D01*
G37*
G36*
X983900Y531096D02*
X983900Y531096D01*
X984254Y531112D01*
X984255Y531113D01*
X984255Y531112D01*
X984587Y531237D01*
X984587Y531238D01*
X984588Y531238D01*
X984864Y531459D01*
X984864Y531460D01*
X984865Y531460D01*
X985060Y531756D01*
X985060Y531757D01*
X985154Y532099D01*
X985154Y532100D01*
X985154Y536600D01*
X985154Y536601D01*
X985100Y536996D01*
X985099Y536996D01*
X985099Y536997D01*
X984925Y537356D01*
X984924Y537356D01*
X984924Y537357D01*
X984648Y537645D01*
X984647Y537645D01*
X984647Y537646D01*
X984295Y537834D01*
X984294Y537833D01*
X984294Y537834D01*
X983901Y537904D01*
X983900Y537904D01*
X981900Y537904D01*
X981899Y537904D01*
X981506Y537834D01*
X981506Y537833D01*
X981505Y537834D01*
X981153Y537646D01*
X981153Y537645D01*
X981152Y537645D01*
X980876Y537357D01*
X980876Y537356D01*
X980875Y537356D01*
X980701Y536997D01*
X980701Y536996D01*
X980700Y536996D01*
X980700Y536995D01*
X980697Y536974D01*
X980694Y536949D01*
X980691Y536927D01*
X980687Y536902D01*
X980685Y536881D01*
X980681Y536855D01*
X980678Y536834D01*
X980677Y536830D01*
X980675Y536808D01*
X980672Y536787D01*
X980671Y536783D01*
X980668Y536762D01*
X980665Y536740D01*
X980665Y536736D01*
X980662Y536715D01*
X980659Y536694D01*
X980658Y536689D01*
X980655Y536668D01*
X980652Y536647D01*
X980652Y536643D01*
X980649Y536621D01*
X980646Y536601D01*
X980646Y536600D01*
X980646Y532100D01*
X980646Y532099D01*
X980740Y531757D01*
X980740Y531756D01*
X980935Y531460D01*
X980936Y531460D01*
X980936Y531459D01*
X981212Y531238D01*
X981213Y531238D01*
X981213Y531237D01*
X981545Y531112D01*
X981546Y531113D01*
X981546Y531112D01*
X981900Y531096D01*
X983900Y531096D01*
X983900Y531096D01*
G37*
G36*
X988900Y531096D02*
X988900Y531096D01*
X989254Y531112D01*
X989255Y531113D01*
X989255Y531112D01*
X989587Y531237D01*
X989587Y531238D01*
X989588Y531238D01*
X989864Y531459D01*
X989864Y531460D01*
X989865Y531460D01*
X990060Y531756D01*
X990060Y531757D01*
X990154Y532099D01*
X990154Y532100D01*
X990154Y536600D01*
X990154Y536601D01*
X990100Y536996D01*
X990099Y536996D01*
X990099Y536997D01*
X989925Y537356D01*
X989924Y537356D01*
X989924Y537357D01*
X989648Y537645D01*
X989647Y537645D01*
X989647Y537646D01*
X989295Y537834D01*
X989294Y537833D01*
X989294Y537834D01*
X988901Y537904D01*
X988900Y537904D01*
X986900Y537904D01*
X986899Y537904D01*
X986506Y537834D01*
X986506Y537833D01*
X986505Y537834D01*
X986153Y537646D01*
X986153Y537645D01*
X986152Y537645D01*
X985876Y537357D01*
X985876Y537356D01*
X985875Y537356D01*
X985701Y536997D01*
X985701Y536996D01*
X985700Y536996D01*
X985700Y536995D01*
X985697Y536974D01*
X985694Y536949D01*
X985691Y536927D01*
X985687Y536902D01*
X985685Y536881D01*
X985681Y536855D01*
X985678Y536834D01*
X985677Y536830D01*
X985675Y536808D01*
X985672Y536787D01*
X985671Y536783D01*
X985668Y536762D01*
X985665Y536740D01*
X985665Y536736D01*
X985662Y536715D01*
X985659Y536694D01*
X985658Y536689D01*
X985655Y536668D01*
X985652Y536647D01*
X985652Y536643D01*
X985649Y536621D01*
X985646Y536601D01*
X985646Y536600D01*
X985646Y532100D01*
X985646Y532099D01*
X985740Y531757D01*
X985740Y531756D01*
X985935Y531460D01*
X985936Y531460D01*
X985936Y531459D01*
X986212Y531238D01*
X986213Y531238D01*
X986213Y531237D01*
X986545Y531112D01*
X986546Y531113D01*
X986546Y531112D01*
X986900Y531096D01*
X988900Y531096D01*
X988900Y531096D01*
G37*
G36*
X973900Y531096D02*
X973900Y531096D01*
X974254Y531112D01*
X974255Y531113D01*
X974255Y531112D01*
X974587Y531237D01*
X974587Y531238D01*
X974588Y531238D01*
X974864Y531459D01*
X974864Y531460D01*
X974865Y531460D01*
X975060Y531756D01*
X975060Y531757D01*
X975154Y532099D01*
X975154Y532100D01*
X975154Y536600D01*
X975154Y536601D01*
X975100Y536996D01*
X975099Y536996D01*
X975099Y536997D01*
X974925Y537356D01*
X974924Y537356D01*
X974924Y537357D01*
X974648Y537645D01*
X974647Y537645D01*
X974647Y537646D01*
X974295Y537834D01*
X974294Y537833D01*
X974294Y537834D01*
X973901Y537904D01*
X973900Y537904D01*
X971900Y537904D01*
X971899Y537904D01*
X971506Y537834D01*
X971506Y537833D01*
X971505Y537834D01*
X971153Y537646D01*
X971153Y537645D01*
X971152Y537645D01*
X970876Y537357D01*
X970876Y537356D01*
X970875Y537356D01*
X970701Y536997D01*
X970701Y536996D01*
X970700Y536996D01*
X970700Y536995D01*
X970697Y536974D01*
X970694Y536949D01*
X970691Y536927D01*
X970687Y536902D01*
X970685Y536881D01*
X970681Y536855D01*
X970678Y536834D01*
X970677Y536830D01*
X970675Y536808D01*
X970672Y536787D01*
X970671Y536783D01*
X970668Y536762D01*
X970665Y536740D01*
X970665Y536736D01*
X970662Y536715D01*
X970659Y536694D01*
X970658Y536689D01*
X970655Y536668D01*
X970652Y536647D01*
X970652Y536643D01*
X970649Y536621D01*
X970646Y536601D01*
X970646Y536600D01*
X970646Y532100D01*
X970646Y532099D01*
X970740Y531757D01*
X970740Y531756D01*
X970935Y531460D01*
X970936Y531460D01*
X970936Y531459D01*
X971212Y531238D01*
X971213Y531238D01*
X971213Y531237D01*
X971545Y531112D01*
X971546Y531113D01*
X971546Y531112D01*
X971900Y531096D01*
X973900Y531096D01*
X973900Y531096D01*
G37*
G36*
X963900Y531096D02*
X963900Y531096D01*
X964254Y531112D01*
X964255Y531113D01*
X964255Y531112D01*
X964587Y531237D01*
X964587Y531238D01*
X964588Y531238D01*
X964864Y531459D01*
X964864Y531460D01*
X964865Y531460D01*
X965060Y531756D01*
X965060Y531757D01*
X965154Y532099D01*
X965154Y532100D01*
X965154Y536600D01*
X965154Y536601D01*
X965100Y536996D01*
X965099Y536996D01*
X965099Y536997D01*
X964925Y537356D01*
X964924Y537356D01*
X964924Y537357D01*
X964648Y537645D01*
X964647Y537645D01*
X964647Y537646D01*
X964295Y537834D01*
X964294Y537833D01*
X964294Y537834D01*
X963901Y537904D01*
X963900Y537904D01*
X961900Y537904D01*
X961899Y537904D01*
X961506Y537834D01*
X961506Y537833D01*
X961505Y537834D01*
X961153Y537646D01*
X961153Y537645D01*
X961152Y537645D01*
X960876Y537357D01*
X960876Y537356D01*
X960875Y537356D01*
X960701Y536997D01*
X960701Y536996D01*
X960700Y536996D01*
X960700Y536995D01*
X960697Y536974D01*
X960694Y536949D01*
X960691Y536927D01*
X960687Y536902D01*
X960685Y536881D01*
X960681Y536855D01*
X960678Y536834D01*
X960677Y536830D01*
X960675Y536808D01*
X960672Y536787D01*
X960671Y536783D01*
X960668Y536762D01*
X960665Y536740D01*
X960665Y536736D01*
X960662Y536715D01*
X960659Y536694D01*
X960658Y536689D01*
X960655Y536668D01*
X960652Y536647D01*
X960652Y536643D01*
X960649Y536621D01*
X960646Y536601D01*
X960646Y536600D01*
X960646Y532100D01*
X960646Y532099D01*
X960740Y531757D01*
X960740Y531756D01*
X960935Y531460D01*
X960936Y531460D01*
X960936Y531459D01*
X961212Y531238D01*
X961213Y531238D01*
X961213Y531237D01*
X961545Y531112D01*
X961546Y531113D01*
X961546Y531112D01*
X961900Y531096D01*
X963900Y531096D01*
X963900Y531096D01*
G37*
G36*
X978900Y531096D02*
X978900Y531096D01*
X979254Y531112D01*
X979255Y531113D01*
X979255Y531112D01*
X979587Y531237D01*
X979587Y531238D01*
X979588Y531238D01*
X979864Y531459D01*
X979864Y531460D01*
X979865Y531460D01*
X980060Y531756D01*
X980060Y531757D01*
X980154Y532099D01*
X980154Y532100D01*
X980154Y536600D01*
X980154Y536601D01*
X980100Y536996D01*
X980099Y536996D01*
X980099Y536997D01*
X979925Y537356D01*
X979924Y537356D01*
X979924Y537357D01*
X979648Y537645D01*
X979647Y537645D01*
X979647Y537646D01*
X979295Y537834D01*
X979294Y537833D01*
X979294Y537834D01*
X978901Y537904D01*
X978900Y537904D01*
X976900Y537904D01*
X976899Y537904D01*
X976506Y537834D01*
X976506Y537833D01*
X976505Y537834D01*
X976153Y537646D01*
X976153Y537645D01*
X976152Y537645D01*
X975876Y537357D01*
X975876Y537356D01*
X975875Y537356D01*
X975701Y536997D01*
X975701Y536996D01*
X975700Y536996D01*
X975700Y536995D01*
X975697Y536974D01*
X975694Y536949D01*
X975691Y536927D01*
X975687Y536902D01*
X975685Y536881D01*
X975681Y536855D01*
X975678Y536834D01*
X975677Y536830D01*
X975675Y536808D01*
X975672Y536787D01*
X975671Y536783D01*
X975668Y536762D01*
X975665Y536740D01*
X975665Y536736D01*
X975662Y536715D01*
X975659Y536694D01*
X975658Y536689D01*
X975655Y536668D01*
X975652Y536647D01*
X975652Y536643D01*
X975649Y536621D01*
X975646Y536601D01*
X975646Y536600D01*
X975646Y532100D01*
X975646Y532099D01*
X975740Y531757D01*
X975740Y531756D01*
X975935Y531460D01*
X975936Y531460D01*
X975936Y531459D01*
X976212Y531238D01*
X976213Y531238D01*
X976213Y531237D01*
X976545Y531112D01*
X976546Y531113D01*
X976546Y531112D01*
X976900Y531096D01*
X978900Y531096D01*
X978900Y531096D01*
G37*
G36*
X968900Y531096D02*
X968900Y531096D01*
X969254Y531112D01*
X969255Y531113D01*
X969255Y531112D01*
X969587Y531237D01*
X969587Y531238D01*
X969588Y531238D01*
X969864Y531459D01*
X969864Y531460D01*
X969865Y531460D01*
X970060Y531756D01*
X970060Y531757D01*
X970154Y532099D01*
X970154Y532100D01*
X970154Y536600D01*
X970154Y536601D01*
X970100Y536996D01*
X970099Y536996D01*
X970099Y536997D01*
X969925Y537356D01*
X969924Y537356D01*
X969924Y537357D01*
X969648Y537645D01*
X969647Y537645D01*
X969647Y537646D01*
X969295Y537834D01*
X969294Y537833D01*
X969294Y537834D01*
X968901Y537904D01*
X968900Y537904D01*
X966900Y537904D01*
X966899Y537904D01*
X966506Y537834D01*
X966506Y537833D01*
X966505Y537834D01*
X966153Y537646D01*
X966153Y537645D01*
X966152Y537645D01*
X965876Y537357D01*
X965876Y537356D01*
X965875Y537356D01*
X965701Y536997D01*
X965701Y536996D01*
X965700Y536996D01*
X965700Y536995D01*
X965697Y536974D01*
X965694Y536949D01*
X965691Y536927D01*
X965687Y536902D01*
X965685Y536881D01*
X965681Y536855D01*
X965678Y536834D01*
X965677Y536830D01*
X965675Y536808D01*
X965672Y536787D01*
X965671Y536783D01*
X965668Y536762D01*
X965665Y536740D01*
X965665Y536736D01*
X965662Y536715D01*
X965659Y536694D01*
X965658Y536689D01*
X965655Y536668D01*
X965652Y536647D01*
X965652Y536643D01*
X965649Y536621D01*
X965646Y536601D01*
X965646Y536600D01*
X965646Y532100D01*
X965646Y532099D01*
X965740Y531757D01*
X965740Y531756D01*
X965935Y531460D01*
X965936Y531460D01*
X965936Y531459D01*
X966212Y531238D01*
X966213Y531238D01*
X966213Y531237D01*
X966545Y531112D01*
X966546Y531113D01*
X966546Y531112D01*
X966900Y531096D01*
X968900Y531096D01*
X968900Y531096D01*
G37*
G36*
X968900Y554296D02*
X968900Y554296D01*
X968901Y554296D01*
X969294Y554366D01*
X969294Y554367D01*
X969295Y554366D01*
X969647Y554554D01*
X969647Y554555D01*
X969648Y554555D01*
X969924Y554843D01*
X969924Y554844D01*
X969925Y554844D01*
X970099Y555203D01*
X970099Y555204D01*
X970100Y555204D01*
X970100Y555205D01*
X970103Y555226D01*
X970106Y555251D01*
X970106Y555252D01*
X970109Y555273D01*
X970113Y555298D01*
X970115Y555319D01*
X970116Y555319D01*
X970116Y555320D01*
X970119Y555345D01*
X970122Y555366D01*
X970123Y555370D01*
X970123Y555371D01*
X970125Y555392D01*
X970126Y555392D01*
X970125Y555392D01*
X970128Y555413D01*
X970129Y555417D01*
X970132Y555438D01*
X970132Y555439D01*
X970135Y555460D01*
X970135Y555464D01*
X970136Y555464D01*
X970135Y555464D01*
X970138Y555485D01*
X970141Y555506D01*
X970141Y555507D01*
X970142Y555511D01*
X970145Y555532D01*
X970148Y555553D01*
X970148Y555557D01*
X970148Y555558D01*
X970151Y555579D01*
X970154Y555599D01*
X970154Y555600D01*
X970154Y560100D01*
X970154Y560101D01*
X970060Y560443D01*
X970060Y560444D01*
X969865Y560740D01*
X969864Y560740D01*
X969864Y560741D01*
X969588Y560962D01*
X969587Y560962D01*
X969587Y560963D01*
X969255Y561088D01*
X969255Y561087D01*
X969254Y561087D01*
X969254Y561088D01*
X968900Y561104D01*
X966900Y561104D01*
X966546Y561088D01*
X966545Y561087D01*
X966545Y561088D01*
X966213Y560963D01*
X966213Y560962D01*
X966212Y560962D01*
X965936Y560741D01*
X965936Y560740D01*
X965935Y560740D01*
X965740Y560444D01*
X965740Y560443D01*
X965646Y560101D01*
X965646Y560100D01*
X965646Y555600D01*
X965646Y555599D01*
X965700Y555204D01*
X965701Y555204D01*
X965701Y555203D01*
X965875Y554844D01*
X965876Y554844D01*
X965876Y554843D01*
X966152Y554555D01*
X966153Y554555D01*
X966153Y554554D01*
X966505Y554366D01*
X966506Y554367D01*
X966506Y554366D01*
X966899Y554296D01*
X966900Y554296D01*
X968900Y554296D01*
X968900Y554296D01*
G37*
G36*
X983900Y554296D02*
X983900Y554296D01*
X983901Y554296D01*
X984294Y554366D01*
X984294Y554367D01*
X984295Y554366D01*
X984647Y554554D01*
X984647Y554555D01*
X984648Y554555D01*
X984924Y554843D01*
X984924Y554844D01*
X984925Y554844D01*
X985099Y555203D01*
X985099Y555204D01*
X985100Y555204D01*
X985100Y555205D01*
X985103Y555226D01*
X985106Y555251D01*
X985106Y555252D01*
X985109Y555273D01*
X985113Y555298D01*
X985115Y555319D01*
X985116Y555319D01*
X985116Y555320D01*
X985119Y555345D01*
X985122Y555366D01*
X985123Y555370D01*
X985123Y555371D01*
X985125Y555392D01*
X985126Y555392D01*
X985125Y555392D01*
X985128Y555413D01*
X985129Y555417D01*
X985132Y555438D01*
X985132Y555439D01*
X985135Y555460D01*
X985135Y555464D01*
X985136Y555464D01*
X985135Y555464D01*
X985138Y555485D01*
X985141Y555506D01*
X985141Y555507D01*
X985142Y555511D01*
X985145Y555532D01*
X985148Y555553D01*
X985148Y555557D01*
X985148Y555558D01*
X985151Y555579D01*
X985154Y555599D01*
X985154Y555600D01*
X985154Y560100D01*
X985154Y560101D01*
X985060Y560443D01*
X985060Y560444D01*
X984865Y560740D01*
X984864Y560740D01*
X984864Y560741D01*
X984588Y560962D01*
X984587Y560962D01*
X984587Y560963D01*
X984255Y561088D01*
X984255Y561087D01*
X984254Y561087D01*
X984254Y561088D01*
X983900Y561104D01*
X981900Y561104D01*
X981546Y561088D01*
X981545Y561087D01*
X981545Y561088D01*
X981213Y560963D01*
X981213Y560962D01*
X981212Y560962D01*
X980936Y560741D01*
X980936Y560740D01*
X980935Y560740D01*
X980740Y560444D01*
X980740Y560443D01*
X980646Y560101D01*
X980646Y560100D01*
X980646Y555600D01*
X980646Y555599D01*
X980700Y555204D01*
X980701Y555204D01*
X980701Y555203D01*
X980875Y554844D01*
X980876Y554844D01*
X980876Y554843D01*
X981152Y554555D01*
X981153Y554555D01*
X981153Y554554D01*
X981505Y554366D01*
X981506Y554367D01*
X981506Y554366D01*
X981899Y554296D01*
X981900Y554296D01*
X983900Y554296D01*
X983900Y554296D01*
G37*
G36*
X988900Y554296D02*
X988900Y554296D01*
X988901Y554296D01*
X989294Y554366D01*
X989294Y554367D01*
X989295Y554366D01*
X989647Y554554D01*
X989647Y554555D01*
X989648Y554555D01*
X989924Y554843D01*
X989924Y554844D01*
X989925Y554844D01*
X990099Y555203D01*
X990099Y555204D01*
X990100Y555204D01*
X990100Y555205D01*
X990103Y555226D01*
X990106Y555251D01*
X990106Y555252D01*
X990109Y555273D01*
X990113Y555298D01*
X990115Y555319D01*
X990116Y555319D01*
X990116Y555320D01*
X990119Y555345D01*
X990122Y555366D01*
X990123Y555370D01*
X990123Y555371D01*
X990125Y555392D01*
X990126Y555392D01*
X990125Y555392D01*
X990128Y555413D01*
X990129Y555417D01*
X990132Y555438D01*
X990132Y555439D01*
X990135Y555460D01*
X990135Y555464D01*
X990136Y555464D01*
X990135Y555464D01*
X990138Y555485D01*
X990141Y555506D01*
X990141Y555507D01*
X990142Y555511D01*
X990145Y555532D01*
X990148Y555553D01*
X990148Y555557D01*
X990148Y555558D01*
X990151Y555579D01*
X990154Y555599D01*
X990154Y555600D01*
X990154Y560100D01*
X990154Y560101D01*
X990060Y560443D01*
X990060Y560444D01*
X989865Y560740D01*
X989864Y560740D01*
X989864Y560741D01*
X989588Y560962D01*
X989587Y560962D01*
X989587Y560963D01*
X989255Y561088D01*
X989255Y561087D01*
X989254Y561087D01*
X989254Y561088D01*
X988900Y561104D01*
X986900Y561104D01*
X986546Y561088D01*
X986545Y561087D01*
X986545Y561088D01*
X986213Y560963D01*
X986213Y560962D01*
X986212Y560962D01*
X985936Y560741D01*
X985936Y560740D01*
X985935Y560740D01*
X985740Y560444D01*
X985740Y560443D01*
X985646Y560101D01*
X985646Y560100D01*
X985646Y555600D01*
X985646Y555599D01*
X985700Y555204D01*
X985701Y555204D01*
X985701Y555203D01*
X985875Y554844D01*
X985876Y554844D01*
X985876Y554843D01*
X986152Y554555D01*
X986153Y554555D01*
X986153Y554554D01*
X986505Y554366D01*
X986506Y554367D01*
X986506Y554366D01*
X986899Y554296D01*
X986900Y554296D01*
X988900Y554296D01*
X988900Y554296D01*
G37*
G36*
X973900Y554296D02*
X973900Y554296D01*
X973901Y554296D01*
X974294Y554366D01*
X974294Y554367D01*
X974295Y554366D01*
X974647Y554554D01*
X974647Y554555D01*
X974648Y554555D01*
X974924Y554843D01*
X974924Y554844D01*
X974925Y554844D01*
X975099Y555203D01*
X975099Y555204D01*
X975100Y555204D01*
X975100Y555205D01*
X975103Y555226D01*
X975106Y555251D01*
X975106Y555252D01*
X975109Y555273D01*
X975113Y555298D01*
X975115Y555319D01*
X975116Y555319D01*
X975116Y555320D01*
X975119Y555345D01*
X975122Y555366D01*
X975123Y555370D01*
X975123Y555371D01*
X975125Y555392D01*
X975126Y555392D01*
X975125Y555392D01*
X975128Y555413D01*
X975129Y555417D01*
X975132Y555438D01*
X975132Y555439D01*
X975135Y555460D01*
X975135Y555464D01*
X975136Y555464D01*
X975135Y555464D01*
X975138Y555485D01*
X975141Y555506D01*
X975141Y555507D01*
X975142Y555511D01*
X975145Y555532D01*
X975148Y555553D01*
X975148Y555557D01*
X975148Y555558D01*
X975151Y555579D01*
X975154Y555599D01*
X975154Y555600D01*
X975154Y560100D01*
X975154Y560101D01*
X975060Y560443D01*
X975060Y560444D01*
X974865Y560740D01*
X974864Y560740D01*
X974864Y560741D01*
X974588Y560962D01*
X974587Y560962D01*
X974587Y560963D01*
X974255Y561088D01*
X974255Y561087D01*
X974254Y561087D01*
X974254Y561088D01*
X973900Y561104D01*
X971900Y561104D01*
X971546Y561088D01*
X971545Y561087D01*
X971545Y561088D01*
X971213Y560963D01*
X971213Y560962D01*
X971212Y560962D01*
X970936Y560741D01*
X970936Y560740D01*
X970935Y560740D01*
X970740Y560444D01*
X970740Y560443D01*
X970646Y560101D01*
X970646Y560100D01*
X970646Y555600D01*
X970646Y555599D01*
X970700Y555204D01*
X970701Y555204D01*
X970701Y555203D01*
X970875Y554844D01*
X970876Y554844D01*
X970876Y554843D01*
X971152Y554555D01*
X971153Y554555D01*
X971153Y554554D01*
X971505Y554366D01*
X971506Y554367D01*
X971506Y554366D01*
X971899Y554296D01*
X971900Y554296D01*
X973900Y554296D01*
X973900Y554296D01*
G37*
G36*
X993900Y554296D02*
X993900Y554296D01*
X993901Y554296D01*
X994294Y554366D01*
X994294Y554367D01*
X994295Y554366D01*
X994647Y554554D01*
X994647Y554555D01*
X994648Y554555D01*
X994924Y554843D01*
X994924Y554844D01*
X994925Y554844D01*
X995099Y555203D01*
X995099Y555204D01*
X995100Y555204D01*
X995100Y555205D01*
X995103Y555226D01*
X995106Y555251D01*
X995106Y555252D01*
X995109Y555273D01*
X995113Y555298D01*
X995115Y555319D01*
X995116Y555319D01*
X995116Y555320D01*
X995119Y555345D01*
X995122Y555366D01*
X995123Y555370D01*
X995123Y555371D01*
X995125Y555392D01*
X995126Y555392D01*
X995125Y555392D01*
X995128Y555413D01*
X995129Y555417D01*
X995132Y555438D01*
X995132Y555439D01*
X995135Y555460D01*
X995135Y555464D01*
X995136Y555464D01*
X995135Y555464D01*
X995138Y555485D01*
X995141Y555506D01*
X995141Y555507D01*
X995142Y555511D01*
X995145Y555532D01*
X995148Y555553D01*
X995148Y555557D01*
X995148Y555558D01*
X995151Y555579D01*
X995154Y555599D01*
X995154Y555600D01*
X995154Y560100D01*
X995154Y560101D01*
X995060Y560443D01*
X995060Y560444D01*
X994865Y560740D01*
X994864Y560740D01*
X994864Y560741D01*
X994588Y560962D01*
X994587Y560962D01*
X994587Y560963D01*
X994255Y561088D01*
X994255Y561087D01*
X994254Y561087D01*
X994254Y561088D01*
X993900Y561104D01*
X991900Y561104D01*
X991546Y561088D01*
X991545Y561087D01*
X991545Y561088D01*
X991213Y560963D01*
X991213Y560962D01*
X991212Y560962D01*
X990936Y560741D01*
X990936Y560740D01*
X990935Y560740D01*
X990740Y560444D01*
X990740Y560443D01*
X990646Y560101D01*
X990646Y560100D01*
X990646Y555600D01*
X990646Y555599D01*
X990700Y555204D01*
X990701Y555204D01*
X990701Y555203D01*
X990875Y554844D01*
X990876Y554844D01*
X990876Y554843D01*
X991152Y554555D01*
X991153Y554555D01*
X991153Y554554D01*
X991505Y554366D01*
X991506Y554367D01*
X991506Y554366D01*
X991899Y554296D01*
X991900Y554296D01*
X993900Y554296D01*
X993900Y554296D01*
G37*
G36*
X978900Y554296D02*
X978900Y554296D01*
X978901Y554296D01*
X979294Y554366D01*
X979294Y554367D01*
X979295Y554366D01*
X979647Y554554D01*
X979647Y554555D01*
X979648Y554555D01*
X979924Y554843D01*
X979924Y554844D01*
X979925Y554844D01*
X980099Y555203D01*
X980099Y555204D01*
X980100Y555204D01*
X980100Y555205D01*
X980103Y555226D01*
X980106Y555251D01*
X980106Y555252D01*
X980109Y555273D01*
X980113Y555298D01*
X980115Y555319D01*
X980116Y555319D01*
X980116Y555320D01*
X980119Y555345D01*
X980122Y555366D01*
X980123Y555370D01*
X980123Y555371D01*
X980125Y555392D01*
X980126Y555392D01*
X980125Y555392D01*
X980128Y555413D01*
X980129Y555417D01*
X980132Y555438D01*
X980132Y555439D01*
X980135Y555460D01*
X980135Y555464D01*
X980136Y555464D01*
X980135Y555464D01*
X980138Y555485D01*
X980141Y555506D01*
X980141Y555507D01*
X980142Y555511D01*
X980145Y555532D01*
X980148Y555553D01*
X980148Y555557D01*
X980148Y555558D01*
X980151Y555579D01*
X980154Y555599D01*
X980154Y555600D01*
X980154Y560100D01*
X980154Y560101D01*
X980060Y560443D01*
X980060Y560444D01*
X979865Y560740D01*
X979864Y560740D01*
X979864Y560741D01*
X979588Y560962D01*
X979587Y560962D01*
X979587Y560963D01*
X979255Y561088D01*
X979255Y561087D01*
X979254Y561087D01*
X979254Y561088D01*
X978900Y561104D01*
X976900Y561104D01*
X976546Y561088D01*
X976545Y561087D01*
X976545Y561088D01*
X976213Y560963D01*
X976213Y560962D01*
X976212Y560962D01*
X975936Y560741D01*
X975936Y560740D01*
X975935Y560740D01*
X975740Y560444D01*
X975740Y560443D01*
X975646Y560101D01*
X975646Y560100D01*
X975646Y555600D01*
X975646Y555599D01*
X975700Y555204D01*
X975701Y555204D01*
X975701Y555203D01*
X975875Y554844D01*
X975876Y554844D01*
X975876Y554843D01*
X976152Y554555D01*
X976153Y554555D01*
X976153Y554554D01*
X976505Y554366D01*
X976506Y554367D01*
X976506Y554366D01*
X976899Y554296D01*
X976900Y554296D01*
X978900Y554296D01*
X978900Y554296D01*
G37*
G36*
X963900Y554296D02*
X963900Y554296D01*
X963901Y554296D01*
X964294Y554366D01*
X964294Y554367D01*
X964295Y554366D01*
X964647Y554554D01*
X964647Y554555D01*
X964648Y554555D01*
X964924Y554843D01*
X964924Y554844D01*
X964925Y554844D01*
X965099Y555203D01*
X965099Y555204D01*
X965100Y555204D01*
X965100Y555205D01*
X965103Y555226D01*
X965106Y555251D01*
X965106Y555252D01*
X965109Y555273D01*
X965113Y555298D01*
X965115Y555319D01*
X965116Y555319D01*
X965116Y555320D01*
X965119Y555345D01*
X965122Y555366D01*
X965123Y555370D01*
X965123Y555371D01*
X965125Y555392D01*
X965126Y555392D01*
X965125Y555392D01*
X965128Y555413D01*
X965129Y555417D01*
X965132Y555438D01*
X965132Y555439D01*
X965135Y555460D01*
X965135Y555464D01*
X965136Y555464D01*
X965135Y555464D01*
X965138Y555485D01*
X965141Y555506D01*
X965141Y555507D01*
X965142Y555511D01*
X965145Y555532D01*
X965148Y555553D01*
X965148Y555557D01*
X965148Y555558D01*
X965151Y555579D01*
X965154Y555599D01*
X965154Y555600D01*
X965154Y560100D01*
X965154Y560101D01*
X965060Y560443D01*
X965060Y560444D01*
X964865Y560740D01*
X964864Y560740D01*
X964864Y560741D01*
X964588Y560962D01*
X964587Y560962D01*
X964587Y560963D01*
X964255Y561088D01*
X964255Y561087D01*
X964254Y561087D01*
X964254Y561088D01*
X963900Y561104D01*
X961900Y561104D01*
X961546Y561088D01*
X961545Y561087D01*
X961545Y561088D01*
X961213Y560963D01*
X961213Y560962D01*
X961212Y560962D01*
X960936Y560741D01*
X960936Y560740D01*
X960935Y560740D01*
X960740Y560444D01*
X960740Y560443D01*
X960646Y560101D01*
X960646Y560100D01*
X960646Y555600D01*
X960646Y555599D01*
X960700Y555204D01*
X960701Y555204D01*
X960701Y555203D01*
X960875Y554844D01*
X960876Y554844D01*
X960876Y554843D01*
X961152Y554555D01*
X961153Y554555D01*
X961153Y554554D01*
X961505Y554366D01*
X961506Y554367D01*
X961506Y554366D01*
X961899Y554296D01*
X961900Y554296D01*
X963900Y554296D01*
X963900Y554296D01*
G37*
D10*
X25400Y952500D03*
X25400Y444500D03*
X1168400Y444500D03*
X1168400Y952500D03*
D11*
X668900Y609600D03*
X651900Y609600D03*
X194700Y622300D03*
X211700Y622300D03*
X220100Y533400D03*
X237100Y533400D03*
X436000Y469900D03*
X453000Y469900D03*
D12*
X92600Y825500D03*
X110600Y825500D03*
D13*
X736600Y465700D03*
X736600Y448700D03*
D12*
X54500Y495300D03*
X72500Y495300D03*
D14*
X169950Y825500D03*
X134850Y825500D03*
X236450Y749300D03*
X271550Y749300D03*
X414250Y774700D03*
X449350Y774700D03*
D12*
X41800Y825500D03*
X59800Y825500D03*
D13*
X584200Y465700D03*
X584200Y448700D03*
D12*
X435500Y508000D03*
X453500Y508000D03*
D11*
X220100Y444500D03*
X237100Y444500D03*
D15*
X142900Y736600D03*
X161900Y736600D03*
D13*
X660400Y465700D03*
X660400Y448700D03*
D15*
X123800Y469900D03*
X104800Y469900D03*
D14*
X236450Y698500D03*
X271550Y698500D03*
X122150Y673100D03*
X157250Y673100D03*
X414250Y825500D03*
X449350Y825500D03*
D15*
X117500Y495300D03*
X136500Y495300D03*
D16*
X127000Y721700D03*
X127000Y700700D03*
D17*
X158200Y901700D03*
X121200Y901700D03*
D18*
X334100Y774700D03*
X377100Y774700D03*
D17*
X158200Y863600D03*
X121200Y863600D03*
D19*
X624350Y749900D03*
X630850Y749900D03*
X637350Y749900D03*
X643850Y749900D03*
X650350Y749900D03*
X656850Y749900D03*
X663350Y749900D03*
X669850Y749900D03*
X676350Y749900D03*
X682850Y749900D03*
X689350Y749900D03*
X695850Y749900D03*
X702350Y749900D03*
X708850Y749900D03*
X715350Y749900D03*
X721850Y749900D03*
X721850Y824900D03*
X715350Y824900D03*
X708850Y824900D03*
X702350Y824900D03*
X695850Y824900D03*
X689350Y824900D03*
X682850Y824900D03*
X676350Y824900D03*
X669850Y824900D03*
X663350Y824900D03*
X656850Y824900D03*
X650350Y824900D03*
X643850Y824900D03*
X637350Y824900D03*
X630850Y824900D03*
X624350Y824900D03*
D20*
X635000Y635000D03*
X660400Y635000D03*
X673100Y977900D03*
X698500Y977900D03*
X723900Y977900D03*
X749300Y977900D03*
X520700Y977900D03*
X546100Y977900D03*
X571500Y977900D03*
X596900Y977900D03*
X812800Y977900D03*
X838200Y977900D03*
X863600Y977900D03*
X889000Y977900D03*
X368300Y977900D03*
X393700Y977900D03*
X419100Y977900D03*
X444500Y977900D03*
X952500Y977900D03*
X977900Y977900D03*
X1003300Y977900D03*
X1028700Y977900D03*
X63500Y977900D03*
X38100Y977900D03*
D21*
X1168400Y508000D03*
D16*
X50800Y785200D03*
X50800Y764200D03*
D12*
X346600Y812800D03*
X364600Y812800D03*
D11*
X537600Y482600D03*
X554600Y482600D03*
X550300Y660400D03*
X567300Y660400D03*
X372500Y838200D03*
X389500Y838200D03*
X321700Y838200D03*
X338700Y838200D03*
X550300Y546100D03*
X567300Y546100D03*
X80400Y723900D03*
X97400Y723900D03*
X893200Y508000D03*
X910200Y508000D03*
X524900Y685800D03*
X541900Y685800D03*
X575700Y622300D03*
X592700Y622300D03*
X859400Y457200D03*
X842400Y457200D03*
X29600Y723900D03*
X46600Y723900D03*
X67700Y787400D03*
X84700Y787400D03*
X461400Y546100D03*
X478400Y546100D03*
D22*
X609600Y571500D03*
X635000Y558800D03*
D23*
X696400Y574850D03*
X701400Y574850D03*
X706400Y574850D03*
X711400Y574850D03*
X716400Y574850D03*
X721400Y574850D03*
X726400Y574850D03*
X731400Y574850D03*
X736400Y574850D03*
X741400Y574850D03*
X746400Y574850D03*
D24*
X758650Y582100D03*
X758650Y587100D03*
X758650Y592100D03*
X758650Y597100D03*
X758650Y602100D03*
X758650Y607100D03*
X758650Y612100D03*
X758650Y617100D03*
X758650Y622100D03*
X758650Y627100D03*
X758650Y632100D03*
D23*
X751400Y644350D03*
X746400Y644350D03*
X741400Y644350D03*
X736400Y644350D03*
X731400Y644350D03*
X726400Y644350D03*
X721400Y644350D03*
X716400Y644350D03*
X711400Y644350D03*
X706400Y644350D03*
X701400Y644350D03*
D24*
X689150Y637100D03*
X689150Y632100D03*
X689150Y627100D03*
X689150Y622100D03*
X689150Y617100D03*
X689150Y612100D03*
X689150Y607100D03*
X689150Y602100D03*
X689150Y597100D03*
X689150Y592100D03*
X689150Y587100D03*
D25*
X723900Y609600D03*
D23*
X751400Y574850D03*
D24*
X758650Y637100D03*
D23*
X696400Y644350D03*
D24*
X689150Y582100D03*
D26*
X821399Y867851D02*
X821399Y886049D01*
X821399Y867851D02*
X816901Y867851D01*
X816901Y886049D01*
X821399Y886049D01*
X821399Y871208D02*
X816901Y871208D01*
X816901Y874565D02*
X821399Y874565D01*
X821399Y877922D02*
X816901Y877922D01*
X816901Y881279D02*
X821399Y881279D01*
X821399Y884636D02*
X816901Y884636D01*
X834099Y886049D02*
X834099Y867851D01*
X829601Y867851D01*
X829601Y886049D01*
X834099Y886049D01*
X834099Y871208D02*
X829601Y871208D01*
X829601Y874565D02*
X834099Y874565D01*
X834099Y877922D02*
X829601Y877922D01*
X829601Y881279D02*
X834099Y881279D01*
X834099Y884636D02*
X829601Y884636D01*
X846799Y886049D02*
X846799Y867851D01*
X842301Y867851D01*
X842301Y886049D01*
X846799Y886049D01*
X846799Y871208D02*
X842301Y871208D01*
X842301Y874565D02*
X846799Y874565D01*
X846799Y877922D02*
X842301Y877922D01*
X842301Y881279D02*
X846799Y881279D01*
X846799Y884636D02*
X842301Y884636D01*
X859499Y886049D02*
X859499Y867851D01*
X855001Y867851D01*
X855001Y886049D01*
X859499Y886049D01*
X859499Y871208D02*
X855001Y871208D01*
X855001Y874565D02*
X859499Y874565D01*
X859499Y877922D02*
X855001Y877922D01*
X855001Y881279D02*
X859499Y881279D01*
X859499Y884636D02*
X855001Y884636D01*
X872199Y886049D02*
X872199Y867851D01*
X867701Y867851D01*
X867701Y886049D01*
X872199Y886049D01*
X872199Y871208D02*
X867701Y871208D01*
X867701Y874565D02*
X872199Y874565D01*
X872199Y877922D02*
X867701Y877922D01*
X867701Y881279D02*
X872199Y881279D01*
X872199Y884636D02*
X867701Y884636D01*
X884899Y886049D02*
X884899Y867851D01*
X880401Y867851D01*
X880401Y886049D01*
X884899Y886049D01*
X884899Y871208D02*
X880401Y871208D01*
X880401Y874565D02*
X884899Y874565D01*
X884899Y877922D02*
X880401Y877922D01*
X880401Y881279D02*
X884899Y881279D01*
X884899Y884636D02*
X880401Y884636D01*
X897599Y886049D02*
X897599Y867851D01*
X893101Y867851D01*
X893101Y886049D01*
X897599Y886049D01*
X897599Y871208D02*
X893101Y871208D01*
X893101Y874565D02*
X897599Y874565D01*
X897599Y877922D02*
X893101Y877922D01*
X893101Y881279D02*
X897599Y881279D01*
X897599Y884636D02*
X893101Y884636D01*
X910299Y886049D02*
X910299Y867851D01*
X905801Y867851D01*
X905801Y886049D01*
X910299Y886049D01*
X910299Y871208D02*
X905801Y871208D01*
X905801Y874565D02*
X910299Y874565D01*
X910299Y877922D02*
X905801Y877922D01*
X905801Y881279D02*
X910299Y881279D01*
X910299Y884636D02*
X905801Y884636D01*
X910299Y917351D02*
X910299Y935549D01*
X910299Y917351D02*
X905801Y917351D01*
X905801Y935549D01*
X910299Y935549D01*
X910299Y920708D02*
X905801Y920708D01*
X905801Y924065D02*
X910299Y924065D01*
X910299Y927422D02*
X905801Y927422D01*
X905801Y930779D02*
X910299Y930779D01*
X910299Y934136D02*
X905801Y934136D01*
X897599Y935549D02*
X897599Y917351D01*
X893101Y917351D01*
X893101Y935549D01*
X897599Y935549D01*
X897599Y920708D02*
X893101Y920708D01*
X893101Y924065D02*
X897599Y924065D01*
X897599Y927422D02*
X893101Y927422D01*
X893101Y930779D02*
X897599Y930779D01*
X897599Y934136D02*
X893101Y934136D01*
X884899Y935549D02*
X884899Y917351D01*
X880401Y917351D01*
X880401Y935549D01*
X884899Y935549D01*
X884899Y920708D02*
X880401Y920708D01*
X880401Y924065D02*
X884899Y924065D01*
X884899Y927422D02*
X880401Y927422D01*
X880401Y930779D02*
X884899Y930779D01*
X884899Y934136D02*
X880401Y934136D01*
X872199Y935549D02*
X872199Y917351D01*
X867701Y917351D01*
X867701Y935549D01*
X872199Y935549D01*
X872199Y920708D02*
X867701Y920708D01*
X867701Y924065D02*
X872199Y924065D01*
X872199Y927422D02*
X867701Y927422D01*
X867701Y930779D02*
X872199Y930779D01*
X872199Y934136D02*
X867701Y934136D01*
X859499Y935549D02*
X859499Y917351D01*
X855001Y917351D01*
X855001Y935549D01*
X859499Y935549D01*
X859499Y920708D02*
X855001Y920708D01*
X855001Y924065D02*
X859499Y924065D01*
X859499Y927422D02*
X855001Y927422D01*
X855001Y930779D02*
X859499Y930779D01*
X859499Y934136D02*
X855001Y934136D01*
X846799Y935549D02*
X846799Y917351D01*
X842301Y917351D01*
X842301Y935549D01*
X846799Y935549D01*
X846799Y920708D02*
X842301Y920708D01*
X842301Y924065D02*
X846799Y924065D01*
X846799Y927422D02*
X842301Y927422D01*
X842301Y930779D02*
X846799Y930779D01*
X846799Y934136D02*
X842301Y934136D01*
X834099Y935549D02*
X834099Y917351D01*
X829601Y917351D01*
X829601Y935549D01*
X834099Y935549D01*
X834099Y920708D02*
X829601Y920708D01*
X829601Y924065D02*
X834099Y924065D01*
X834099Y927422D02*
X829601Y927422D01*
X829601Y930779D02*
X834099Y930779D01*
X834099Y934136D02*
X829601Y934136D01*
X821399Y935549D02*
X821399Y917351D01*
X816901Y917351D01*
X816901Y935549D01*
X821399Y935549D01*
X821399Y920708D02*
X816901Y920708D01*
X816901Y924065D02*
X821399Y924065D01*
X821399Y927422D02*
X816901Y927422D01*
X816901Y930779D02*
X821399Y930779D01*
X821399Y934136D02*
X816901Y934136D01*
X364199Y886049D02*
X364199Y867851D01*
X359701Y867851D01*
X359701Y886049D01*
X364199Y886049D01*
X364199Y871208D02*
X359701Y871208D01*
X359701Y874565D02*
X364199Y874565D01*
X364199Y877922D02*
X359701Y877922D01*
X359701Y881279D02*
X364199Y881279D01*
X364199Y884636D02*
X359701Y884636D01*
X376899Y886049D02*
X376899Y867851D01*
X372401Y867851D01*
X372401Y886049D01*
X376899Y886049D01*
X376899Y871208D02*
X372401Y871208D01*
X372401Y874565D02*
X376899Y874565D01*
X376899Y877922D02*
X372401Y877922D01*
X372401Y881279D02*
X376899Y881279D01*
X376899Y884636D02*
X372401Y884636D01*
X389599Y886049D02*
X389599Y867851D01*
X385101Y867851D01*
X385101Y886049D01*
X389599Y886049D01*
X389599Y871208D02*
X385101Y871208D01*
X385101Y874565D02*
X389599Y874565D01*
X389599Y877922D02*
X385101Y877922D01*
X385101Y881279D02*
X389599Y881279D01*
X389599Y884636D02*
X385101Y884636D01*
X402299Y886049D02*
X402299Y867851D01*
X397801Y867851D01*
X397801Y886049D01*
X402299Y886049D01*
X402299Y871208D02*
X397801Y871208D01*
X397801Y874565D02*
X402299Y874565D01*
X402299Y877922D02*
X397801Y877922D01*
X397801Y881279D02*
X402299Y881279D01*
X402299Y884636D02*
X397801Y884636D01*
X414999Y886049D02*
X414999Y867851D01*
X410501Y867851D01*
X410501Y886049D01*
X414999Y886049D01*
X414999Y871208D02*
X410501Y871208D01*
X410501Y874565D02*
X414999Y874565D01*
X414999Y877922D02*
X410501Y877922D01*
X410501Y881279D02*
X414999Y881279D01*
X414999Y884636D02*
X410501Y884636D01*
X427699Y886049D02*
X427699Y867851D01*
X423201Y867851D01*
X423201Y886049D01*
X427699Y886049D01*
X427699Y871208D02*
X423201Y871208D01*
X423201Y874565D02*
X427699Y874565D01*
X427699Y877922D02*
X423201Y877922D01*
X423201Y881279D02*
X427699Y881279D01*
X427699Y884636D02*
X423201Y884636D01*
X440399Y886049D02*
X440399Y867851D01*
X435901Y867851D01*
X435901Y886049D01*
X440399Y886049D01*
X440399Y871208D02*
X435901Y871208D01*
X435901Y874565D02*
X440399Y874565D01*
X440399Y877922D02*
X435901Y877922D01*
X435901Y881279D02*
X440399Y881279D01*
X440399Y884636D02*
X435901Y884636D01*
X453099Y886049D02*
X453099Y867851D01*
X448601Y867851D01*
X448601Y886049D01*
X453099Y886049D01*
X453099Y871208D02*
X448601Y871208D01*
X448601Y874565D02*
X453099Y874565D01*
X453099Y877922D02*
X448601Y877922D01*
X448601Y881279D02*
X453099Y881279D01*
X453099Y884636D02*
X448601Y884636D01*
X453099Y917351D02*
X453099Y935549D01*
X453099Y917351D02*
X448601Y917351D01*
X448601Y935549D01*
X453099Y935549D01*
X453099Y920708D02*
X448601Y920708D01*
X448601Y924065D02*
X453099Y924065D01*
X453099Y927422D02*
X448601Y927422D01*
X448601Y930779D02*
X453099Y930779D01*
X453099Y934136D02*
X448601Y934136D01*
X440399Y935549D02*
X440399Y917351D01*
X435901Y917351D01*
X435901Y935549D01*
X440399Y935549D01*
X440399Y920708D02*
X435901Y920708D01*
X435901Y924065D02*
X440399Y924065D01*
X440399Y927422D02*
X435901Y927422D01*
X435901Y930779D02*
X440399Y930779D01*
X440399Y934136D02*
X435901Y934136D01*
X427699Y935549D02*
X427699Y917351D01*
X423201Y917351D01*
X423201Y935549D01*
X427699Y935549D01*
X427699Y920708D02*
X423201Y920708D01*
X423201Y924065D02*
X427699Y924065D01*
X427699Y927422D02*
X423201Y927422D01*
X423201Y930779D02*
X427699Y930779D01*
X427699Y934136D02*
X423201Y934136D01*
X414999Y935549D02*
X414999Y917351D01*
X410501Y917351D01*
X410501Y935549D01*
X414999Y935549D01*
X414999Y920708D02*
X410501Y920708D01*
X410501Y924065D02*
X414999Y924065D01*
X414999Y927422D02*
X410501Y927422D01*
X410501Y930779D02*
X414999Y930779D01*
X414999Y934136D02*
X410501Y934136D01*
X402299Y935549D02*
X402299Y917351D01*
X397801Y917351D01*
X397801Y935549D01*
X402299Y935549D01*
X402299Y920708D02*
X397801Y920708D01*
X397801Y924065D02*
X402299Y924065D01*
X402299Y927422D02*
X397801Y927422D01*
X397801Y930779D02*
X402299Y930779D01*
X402299Y934136D02*
X397801Y934136D01*
X389599Y935549D02*
X389599Y917351D01*
X385101Y917351D01*
X385101Y935549D01*
X389599Y935549D01*
X389599Y920708D02*
X385101Y920708D01*
X385101Y924065D02*
X389599Y924065D01*
X389599Y927422D02*
X385101Y927422D01*
X385101Y930779D02*
X389599Y930779D01*
X389599Y934136D02*
X385101Y934136D01*
X376899Y935549D02*
X376899Y917351D01*
X372401Y917351D01*
X372401Y935549D01*
X376899Y935549D01*
X376899Y920708D02*
X372401Y920708D01*
X372401Y924065D02*
X376899Y924065D01*
X376899Y927422D02*
X372401Y927422D01*
X372401Y930779D02*
X376899Y930779D01*
X376899Y934136D02*
X372401Y934136D01*
X364199Y935549D02*
X364199Y917351D01*
X359701Y917351D01*
X359701Y935549D01*
X364199Y935549D01*
X364199Y920708D02*
X359701Y920708D01*
X359701Y924065D02*
X364199Y924065D01*
X364199Y927422D02*
X359701Y927422D01*
X359701Y930779D02*
X364199Y930779D01*
X364199Y934136D02*
X359701Y934136D01*
X961099Y886049D02*
X961099Y867851D01*
X956601Y867851D01*
X956601Y886049D01*
X961099Y886049D01*
X961099Y871208D02*
X956601Y871208D01*
X956601Y874565D02*
X961099Y874565D01*
X961099Y877922D02*
X956601Y877922D01*
X956601Y881279D02*
X961099Y881279D01*
X961099Y884636D02*
X956601Y884636D01*
X973799Y886049D02*
X973799Y867851D01*
X969301Y867851D01*
X969301Y886049D01*
X973799Y886049D01*
X973799Y871208D02*
X969301Y871208D01*
X969301Y874565D02*
X973799Y874565D01*
X973799Y877922D02*
X969301Y877922D01*
X969301Y881279D02*
X973799Y881279D01*
X973799Y884636D02*
X969301Y884636D01*
X986499Y886049D02*
X986499Y867851D01*
X982001Y867851D01*
X982001Y886049D01*
X986499Y886049D01*
X986499Y871208D02*
X982001Y871208D01*
X982001Y874565D02*
X986499Y874565D01*
X986499Y877922D02*
X982001Y877922D01*
X982001Y881279D02*
X986499Y881279D01*
X986499Y884636D02*
X982001Y884636D01*
X999199Y886049D02*
X999199Y867851D01*
X994701Y867851D01*
X994701Y886049D01*
X999199Y886049D01*
X999199Y871208D02*
X994701Y871208D01*
X994701Y874565D02*
X999199Y874565D01*
X999199Y877922D02*
X994701Y877922D01*
X994701Y881279D02*
X999199Y881279D01*
X999199Y884636D02*
X994701Y884636D01*
X1011899Y886049D02*
X1011899Y867851D01*
X1007401Y867851D01*
X1007401Y886049D01*
X1011899Y886049D01*
X1011899Y871208D02*
X1007401Y871208D01*
X1007401Y874565D02*
X1011899Y874565D01*
X1011899Y877922D02*
X1007401Y877922D01*
X1007401Y881279D02*
X1011899Y881279D01*
X1011899Y884636D02*
X1007401Y884636D01*
X1024599Y886049D02*
X1024599Y867851D01*
X1020101Y867851D01*
X1020101Y886049D01*
X1024599Y886049D01*
X1024599Y871208D02*
X1020101Y871208D01*
X1020101Y874565D02*
X1024599Y874565D01*
X1024599Y877922D02*
X1020101Y877922D01*
X1020101Y881279D02*
X1024599Y881279D01*
X1024599Y884636D02*
X1020101Y884636D01*
X1037299Y886049D02*
X1037299Y867851D01*
X1032801Y867851D01*
X1032801Y886049D01*
X1037299Y886049D01*
X1037299Y871208D02*
X1032801Y871208D01*
X1032801Y874565D02*
X1037299Y874565D01*
X1037299Y877922D02*
X1032801Y877922D01*
X1032801Y881279D02*
X1037299Y881279D01*
X1037299Y884636D02*
X1032801Y884636D01*
X1049999Y886049D02*
X1049999Y867851D01*
X1045501Y867851D01*
X1045501Y886049D01*
X1049999Y886049D01*
X1049999Y871208D02*
X1045501Y871208D01*
X1045501Y874565D02*
X1049999Y874565D01*
X1049999Y877922D02*
X1045501Y877922D01*
X1045501Y881279D02*
X1049999Y881279D01*
X1049999Y884636D02*
X1045501Y884636D01*
X1049999Y917351D02*
X1049999Y935549D01*
X1049999Y917351D02*
X1045501Y917351D01*
X1045501Y935549D01*
X1049999Y935549D01*
X1049999Y920708D02*
X1045501Y920708D01*
X1045501Y924065D02*
X1049999Y924065D01*
X1049999Y927422D02*
X1045501Y927422D01*
X1045501Y930779D02*
X1049999Y930779D01*
X1049999Y934136D02*
X1045501Y934136D01*
X1037299Y935549D02*
X1037299Y917351D01*
X1032801Y917351D01*
X1032801Y935549D01*
X1037299Y935549D01*
X1037299Y920708D02*
X1032801Y920708D01*
X1032801Y924065D02*
X1037299Y924065D01*
X1037299Y927422D02*
X1032801Y927422D01*
X1032801Y930779D02*
X1037299Y930779D01*
X1037299Y934136D02*
X1032801Y934136D01*
X1024599Y935549D02*
X1024599Y917351D01*
X1020101Y917351D01*
X1020101Y935549D01*
X1024599Y935549D01*
X1024599Y920708D02*
X1020101Y920708D01*
X1020101Y924065D02*
X1024599Y924065D01*
X1024599Y927422D02*
X1020101Y927422D01*
X1020101Y930779D02*
X1024599Y930779D01*
X1024599Y934136D02*
X1020101Y934136D01*
X1011899Y935549D02*
X1011899Y917351D01*
X1007401Y917351D01*
X1007401Y935549D01*
X1011899Y935549D01*
X1011899Y920708D02*
X1007401Y920708D01*
X1007401Y924065D02*
X1011899Y924065D01*
X1011899Y927422D02*
X1007401Y927422D01*
X1007401Y930779D02*
X1011899Y930779D01*
X1011899Y934136D02*
X1007401Y934136D01*
X999199Y935549D02*
X999199Y917351D01*
X994701Y917351D01*
X994701Y935549D01*
X999199Y935549D01*
X999199Y920708D02*
X994701Y920708D01*
X994701Y924065D02*
X999199Y924065D01*
X999199Y927422D02*
X994701Y927422D01*
X994701Y930779D02*
X999199Y930779D01*
X999199Y934136D02*
X994701Y934136D01*
X986499Y935549D02*
X986499Y917351D01*
X982001Y917351D01*
X982001Y935549D01*
X986499Y935549D01*
X986499Y920708D02*
X982001Y920708D01*
X982001Y924065D02*
X986499Y924065D01*
X986499Y927422D02*
X982001Y927422D01*
X982001Y930779D02*
X986499Y930779D01*
X986499Y934136D02*
X982001Y934136D01*
X973799Y935549D02*
X973799Y917351D01*
X969301Y917351D01*
X969301Y935549D01*
X973799Y935549D01*
X973799Y920708D02*
X969301Y920708D01*
X969301Y924065D02*
X973799Y924065D01*
X973799Y927422D02*
X969301Y927422D01*
X969301Y930779D02*
X973799Y930779D01*
X973799Y934136D02*
X969301Y934136D01*
X961099Y935549D02*
X961099Y917351D01*
X956601Y917351D01*
X956601Y935549D01*
X961099Y935549D01*
X961099Y920708D02*
X956601Y920708D01*
X956601Y924065D02*
X961099Y924065D01*
X961099Y927422D02*
X956601Y927422D01*
X956601Y930779D02*
X961099Y930779D01*
X961099Y934136D02*
X956601Y934136D01*
D27*
X834898Y793750D03*
X834898Y781050D03*
X834898Y768350D03*
X834898Y755650D03*
X892302Y755650D03*
X892302Y768350D03*
X892302Y781050D03*
X892302Y793750D03*
D28*
X863600Y774700D03*
D29*
X104800Y748999D03*
X114300Y748999D03*
X123800Y748999D03*
X123800Y775001D03*
X104800Y775001D03*
D30*
X1160500Y641200D03*
X1160500Y661200D03*
X1160500Y681200D03*
X1160500Y701200D03*
X1160500Y721200D03*
X1160500Y741200D03*
X1160500Y761200D03*
X1160500Y781200D03*
X998500Y781200D03*
X998500Y761200D03*
X998500Y741200D03*
X998500Y721200D03*
X998500Y701200D03*
X998500Y681200D03*
X998500Y661200D03*
X998500Y641200D03*
D31*
X53700Y519557D03*
X98700Y519557D03*
D32*
X76200Y598551D03*
D26*
X516599Y867851D02*
X516599Y886049D01*
X516599Y867851D02*
X512101Y867851D01*
X512101Y886049D01*
X516599Y886049D01*
X516599Y871208D02*
X512101Y871208D01*
X512101Y874565D02*
X516599Y874565D01*
X516599Y877922D02*
X512101Y877922D01*
X512101Y881279D02*
X516599Y881279D01*
X516599Y884636D02*
X512101Y884636D01*
X529299Y886049D02*
X529299Y867851D01*
X524801Y867851D01*
X524801Y886049D01*
X529299Y886049D01*
X529299Y871208D02*
X524801Y871208D01*
X524801Y874565D02*
X529299Y874565D01*
X529299Y877922D02*
X524801Y877922D01*
X524801Y881279D02*
X529299Y881279D01*
X529299Y884636D02*
X524801Y884636D01*
X541999Y886049D02*
X541999Y867851D01*
X537501Y867851D01*
X537501Y886049D01*
X541999Y886049D01*
X541999Y871208D02*
X537501Y871208D01*
X537501Y874565D02*
X541999Y874565D01*
X541999Y877922D02*
X537501Y877922D01*
X537501Y881279D02*
X541999Y881279D01*
X541999Y884636D02*
X537501Y884636D01*
X554699Y886049D02*
X554699Y867851D01*
X550201Y867851D01*
X550201Y886049D01*
X554699Y886049D01*
X554699Y871208D02*
X550201Y871208D01*
X550201Y874565D02*
X554699Y874565D01*
X554699Y877922D02*
X550201Y877922D01*
X550201Y881279D02*
X554699Y881279D01*
X554699Y884636D02*
X550201Y884636D01*
X567399Y886049D02*
X567399Y867851D01*
X562901Y867851D01*
X562901Y886049D01*
X567399Y886049D01*
X567399Y871208D02*
X562901Y871208D01*
X562901Y874565D02*
X567399Y874565D01*
X567399Y877922D02*
X562901Y877922D01*
X562901Y881279D02*
X567399Y881279D01*
X567399Y884636D02*
X562901Y884636D01*
X580099Y886049D02*
X580099Y867851D01*
X575601Y867851D01*
X575601Y886049D01*
X580099Y886049D01*
X580099Y871208D02*
X575601Y871208D01*
X575601Y874565D02*
X580099Y874565D01*
X580099Y877922D02*
X575601Y877922D01*
X575601Y881279D02*
X580099Y881279D01*
X580099Y884636D02*
X575601Y884636D01*
X592799Y886049D02*
X592799Y867851D01*
X588301Y867851D01*
X588301Y886049D01*
X592799Y886049D01*
X592799Y871208D02*
X588301Y871208D01*
X588301Y874565D02*
X592799Y874565D01*
X592799Y877922D02*
X588301Y877922D01*
X588301Y881279D02*
X592799Y881279D01*
X592799Y884636D02*
X588301Y884636D01*
X605499Y886049D02*
X605499Y867851D01*
X601001Y867851D01*
X601001Y886049D01*
X605499Y886049D01*
X605499Y871208D02*
X601001Y871208D01*
X601001Y874565D02*
X605499Y874565D01*
X605499Y877922D02*
X601001Y877922D01*
X601001Y881279D02*
X605499Y881279D01*
X605499Y884636D02*
X601001Y884636D01*
X605499Y917351D02*
X605499Y935549D01*
X605499Y917351D02*
X601001Y917351D01*
X601001Y935549D01*
X605499Y935549D01*
X605499Y920708D02*
X601001Y920708D01*
X601001Y924065D02*
X605499Y924065D01*
X605499Y927422D02*
X601001Y927422D01*
X601001Y930779D02*
X605499Y930779D01*
X605499Y934136D02*
X601001Y934136D01*
X592799Y935549D02*
X592799Y917351D01*
X588301Y917351D01*
X588301Y935549D01*
X592799Y935549D01*
X592799Y920708D02*
X588301Y920708D01*
X588301Y924065D02*
X592799Y924065D01*
X592799Y927422D02*
X588301Y927422D01*
X588301Y930779D02*
X592799Y930779D01*
X592799Y934136D02*
X588301Y934136D01*
X580099Y935549D02*
X580099Y917351D01*
X575601Y917351D01*
X575601Y935549D01*
X580099Y935549D01*
X580099Y920708D02*
X575601Y920708D01*
X575601Y924065D02*
X580099Y924065D01*
X580099Y927422D02*
X575601Y927422D01*
X575601Y930779D02*
X580099Y930779D01*
X580099Y934136D02*
X575601Y934136D01*
X567399Y935549D02*
X567399Y917351D01*
X562901Y917351D01*
X562901Y935549D01*
X567399Y935549D01*
X567399Y920708D02*
X562901Y920708D01*
X562901Y924065D02*
X567399Y924065D01*
X567399Y927422D02*
X562901Y927422D01*
X562901Y930779D02*
X567399Y930779D01*
X567399Y934136D02*
X562901Y934136D01*
X554699Y935549D02*
X554699Y917351D01*
X550201Y917351D01*
X550201Y935549D01*
X554699Y935549D01*
X554699Y920708D02*
X550201Y920708D01*
X550201Y924065D02*
X554699Y924065D01*
X554699Y927422D02*
X550201Y927422D01*
X550201Y930779D02*
X554699Y930779D01*
X554699Y934136D02*
X550201Y934136D01*
X541999Y935549D02*
X541999Y917351D01*
X537501Y917351D01*
X537501Y935549D01*
X541999Y935549D01*
X541999Y920708D02*
X537501Y920708D01*
X537501Y924065D02*
X541999Y924065D01*
X541999Y927422D02*
X537501Y927422D01*
X537501Y930779D02*
X541999Y930779D01*
X541999Y934136D02*
X537501Y934136D01*
X529299Y935549D02*
X529299Y917351D01*
X524801Y917351D01*
X524801Y935549D01*
X529299Y935549D01*
X529299Y920708D02*
X524801Y920708D01*
X524801Y924065D02*
X529299Y924065D01*
X529299Y927422D02*
X524801Y927422D01*
X524801Y930779D02*
X529299Y930779D01*
X529299Y934136D02*
X524801Y934136D01*
X516599Y935549D02*
X516599Y917351D01*
X512101Y917351D01*
X512101Y935549D01*
X516599Y935549D01*
X516599Y920708D02*
X512101Y920708D01*
X512101Y924065D02*
X516599Y924065D01*
X516599Y927422D02*
X512101Y927422D01*
X512101Y930779D02*
X516599Y930779D01*
X516599Y934136D02*
X512101Y934136D01*
X668999Y886049D02*
X668999Y867851D01*
X664501Y867851D01*
X664501Y886049D01*
X668999Y886049D01*
X668999Y871208D02*
X664501Y871208D01*
X664501Y874565D02*
X668999Y874565D01*
X668999Y877922D02*
X664501Y877922D01*
X664501Y881279D02*
X668999Y881279D01*
X668999Y884636D02*
X664501Y884636D01*
X681699Y886049D02*
X681699Y867851D01*
X677201Y867851D01*
X677201Y886049D01*
X681699Y886049D01*
X681699Y871208D02*
X677201Y871208D01*
X677201Y874565D02*
X681699Y874565D01*
X681699Y877922D02*
X677201Y877922D01*
X677201Y881279D02*
X681699Y881279D01*
X681699Y884636D02*
X677201Y884636D01*
X694399Y886049D02*
X694399Y867851D01*
X689901Y867851D01*
X689901Y886049D01*
X694399Y886049D01*
X694399Y871208D02*
X689901Y871208D01*
X689901Y874565D02*
X694399Y874565D01*
X694399Y877922D02*
X689901Y877922D01*
X689901Y881279D02*
X694399Y881279D01*
X694399Y884636D02*
X689901Y884636D01*
X707099Y886049D02*
X707099Y867851D01*
X702601Y867851D01*
X702601Y886049D01*
X707099Y886049D01*
X707099Y871208D02*
X702601Y871208D01*
X702601Y874565D02*
X707099Y874565D01*
X707099Y877922D02*
X702601Y877922D01*
X702601Y881279D02*
X707099Y881279D01*
X707099Y884636D02*
X702601Y884636D01*
X719799Y886049D02*
X719799Y867851D01*
X715301Y867851D01*
X715301Y886049D01*
X719799Y886049D01*
X719799Y871208D02*
X715301Y871208D01*
X715301Y874565D02*
X719799Y874565D01*
X719799Y877922D02*
X715301Y877922D01*
X715301Y881279D02*
X719799Y881279D01*
X719799Y884636D02*
X715301Y884636D01*
X732499Y886049D02*
X732499Y867851D01*
X728001Y867851D01*
X728001Y886049D01*
X732499Y886049D01*
X732499Y871208D02*
X728001Y871208D01*
X728001Y874565D02*
X732499Y874565D01*
X732499Y877922D02*
X728001Y877922D01*
X728001Y881279D02*
X732499Y881279D01*
X732499Y884636D02*
X728001Y884636D01*
X745199Y886049D02*
X745199Y867851D01*
X740701Y867851D01*
X740701Y886049D01*
X745199Y886049D01*
X745199Y871208D02*
X740701Y871208D01*
X740701Y874565D02*
X745199Y874565D01*
X745199Y877922D02*
X740701Y877922D01*
X740701Y881279D02*
X745199Y881279D01*
X745199Y884636D02*
X740701Y884636D01*
X757899Y886049D02*
X757899Y867851D01*
X753401Y867851D01*
X753401Y886049D01*
X757899Y886049D01*
X757899Y871208D02*
X753401Y871208D01*
X753401Y874565D02*
X757899Y874565D01*
X757899Y877922D02*
X753401Y877922D01*
X753401Y881279D02*
X757899Y881279D01*
X757899Y884636D02*
X753401Y884636D01*
X757899Y917351D02*
X757899Y935549D01*
X757899Y917351D02*
X753401Y917351D01*
X753401Y935549D01*
X757899Y935549D01*
X757899Y920708D02*
X753401Y920708D01*
X753401Y924065D02*
X757899Y924065D01*
X757899Y927422D02*
X753401Y927422D01*
X753401Y930779D02*
X757899Y930779D01*
X757899Y934136D02*
X753401Y934136D01*
X745199Y935549D02*
X745199Y917351D01*
X740701Y917351D01*
X740701Y935549D01*
X745199Y935549D01*
X745199Y920708D02*
X740701Y920708D01*
X740701Y924065D02*
X745199Y924065D01*
X745199Y927422D02*
X740701Y927422D01*
X740701Y930779D02*
X745199Y930779D01*
X745199Y934136D02*
X740701Y934136D01*
X732499Y935549D02*
X732499Y917351D01*
X728001Y917351D01*
X728001Y935549D01*
X732499Y935549D01*
X732499Y920708D02*
X728001Y920708D01*
X728001Y924065D02*
X732499Y924065D01*
X732499Y927422D02*
X728001Y927422D01*
X728001Y930779D02*
X732499Y930779D01*
X732499Y934136D02*
X728001Y934136D01*
X719799Y935549D02*
X719799Y917351D01*
X715301Y917351D01*
X715301Y935549D01*
X719799Y935549D01*
X719799Y920708D02*
X715301Y920708D01*
X715301Y924065D02*
X719799Y924065D01*
X719799Y927422D02*
X715301Y927422D01*
X715301Y930779D02*
X719799Y930779D01*
X719799Y934136D02*
X715301Y934136D01*
X707099Y935549D02*
X707099Y917351D01*
X702601Y917351D01*
X702601Y935549D01*
X707099Y935549D01*
X707099Y920708D02*
X702601Y920708D01*
X702601Y924065D02*
X707099Y924065D01*
X707099Y927422D02*
X702601Y927422D01*
X702601Y930779D02*
X707099Y930779D01*
X707099Y934136D02*
X702601Y934136D01*
X694399Y935549D02*
X694399Y917351D01*
X689901Y917351D01*
X689901Y935549D01*
X694399Y935549D01*
X694399Y920708D02*
X689901Y920708D01*
X689901Y924065D02*
X694399Y924065D01*
X694399Y927422D02*
X689901Y927422D01*
X689901Y930779D02*
X694399Y930779D01*
X694399Y934136D02*
X689901Y934136D01*
X681699Y935549D02*
X681699Y917351D01*
X677201Y917351D01*
X677201Y935549D01*
X681699Y935549D01*
X681699Y920708D02*
X677201Y920708D01*
X677201Y924065D02*
X681699Y924065D01*
X681699Y927422D02*
X677201Y927422D01*
X677201Y930779D02*
X681699Y930779D01*
X681699Y934136D02*
X677201Y934136D01*
X668999Y935549D02*
X668999Y917351D01*
X664501Y917351D01*
X664501Y935549D01*
X668999Y935549D01*
X668999Y920708D02*
X664501Y920708D01*
X664501Y924065D02*
X668999Y924065D01*
X668999Y927422D02*
X664501Y927422D01*
X664501Y930779D02*
X668999Y930779D01*
X668999Y934136D02*
X664501Y934136D01*
D33*
X244000Y915500D03*
X264000Y915500D03*
D34*
X220000Y967500D03*
X288000Y967500D03*
D35*
X648400Y520700D03*
X672400Y520700D03*
D36*
X159200Y952500D03*
X120200Y952500D03*
D37*
X103700Y971500D03*
X175700Y971500D03*
D38*
X172700Y943500D02*
X185780Y943500D01*
X106700Y943500D02*
X93620Y943500D01*
D39*
X147200Y972500D03*
X132200Y972500D03*
D40*
X152700Y944750D03*
X146200Y944750D03*
X139700Y944750D03*
X133200Y944750D03*
X126700Y944750D03*
D41*
X1066800Y559850D03*
X1066800Y532350D03*
D42*
X1082050Y546100D03*
D11*
X423300Y546100D03*
X440300Y546100D03*
X448700Y622300D03*
X465700Y622300D03*
D20*
X1079500Y977900D03*
X1104900Y977900D03*
X1130300Y977900D03*
X1155700Y977900D03*
D43*
X189350Y822320D03*
X189350Y815970D03*
X189350Y809620D03*
X189350Y803280D03*
X189350Y796920D03*
X189350Y790580D03*
X189350Y784230D03*
X189350Y777880D03*
X242450Y777880D03*
X242450Y784230D03*
X242450Y790580D03*
X242450Y796920D03*
X242450Y803280D03*
X242450Y809620D03*
X242450Y815970D03*
X242450Y822320D03*
D44*
X295300Y717700D03*
X295300Y711200D03*
X295300Y704700D03*
X314300Y704700D03*
X314300Y717700D03*
D45*
X1000125Y558800D03*
X1009650Y523875D03*
X844550Y468313D03*
X412750Y790575D03*
X623888Y735013D03*
X649288Y452438D03*
X352425Y796925D03*
X977900Y647700D03*
X977900Y685800D03*
X952500Y698500D03*
X63500Y647700D03*
X88900Y495300D03*
X330200Y609600D03*
X355600Y609600D03*
X1003300Y539750D03*
X1009650Y730250D03*
X1006475Y612775D03*
X984250Y762000D03*
X644525Y720725D03*
X787400Y622300D03*
X768350Y622300D03*
X825500Y774700D03*
X923925Y536575D03*
X644525Y841375D03*
X1012825Y552450D03*
X1012825Y708025D03*
X863600Y622300D03*
X863600Y698500D03*
X711200Y552450D03*
X733425Y492125D03*
X336550Y803275D03*
X231775Y901700D03*
X279400Y784225D03*
X165100Y927100D03*
X152400Y914400D03*
X295275Y742950D03*
X101600Y673100D03*
X101600Y647700D03*
X136525Y841375D03*
X133350Y755650D03*
X720725Y485775D03*
X711200Y660400D03*
X698500Y685800D03*
X939800Y673100D03*
X1003300Y958850D03*
X720725Y673100D03*
X127000Y889000D03*
X165100Y876300D03*
X571500Y711200D03*
X609600Y660400D03*
X581025Y654050D03*
X174625Y908050D03*
X695325Y565150D03*
X666750Y536575D03*
X669925Y457200D03*
X701675Y552450D03*
X685800Y533400D03*
X673100Y473075D03*
X1022350Y619125D03*
X1123950Y727075D03*
X898525Y581025D03*
X962025Y666750D03*
X911225Y568325D03*
X968375Y688975D03*
X768350Y603250D03*
X730250Y565150D03*
X615950Y819150D03*
X927100Y520700D03*
X901700Y533400D03*
X955675Y523875D03*
X946150Y593725D03*
X990600Y571500D03*
X990600Y596900D03*
X787400Y571500D03*
X800100Y596900D03*
X923925Y546100D03*
X838200Y631825D03*
X977900Y546100D03*
X974725Y635000D03*
X977900Y508000D03*
X965200Y508000D03*
X319088Y598488D03*
X358775Y598488D03*
X311150Y584200D03*
X509588Y522288D03*
X358775Y508000D03*
X358775Y660400D03*
X307975Y800100D03*
X228600Y815975D03*
X269875Y784225D03*
X273050Y838200D03*
X238125Y720725D03*
X263525Y796925D03*
X250825Y762000D03*
X654050Y733425D03*
X654050Y863600D03*
X660400Y723900D03*
X660400Y854075D03*
X666750Y733425D03*
X669925Y854075D03*
X669925Y723900D03*
X676275Y841375D03*
X596900Y711200D03*
X527050Y860425D03*
X746125Y717550D03*
X803275Y879475D03*
X809625Y790575D03*
X809625Y866775D03*
X539750Y777875D03*
X609600Y708025D03*
X692150Y733425D03*
X688975Y850900D03*
X831850Y892175D03*
X701675Y730250D03*
X698500Y701675D03*
X555625Y698500D03*
X371475Y892175D03*
X692150Y723900D03*
X384175Y892175D03*
X714375Y733425D03*
X396875Y892175D03*
X622300Y723900D03*
X647700Y685800D03*
X787400Y673100D03*
X774700Y660400D03*
X676275Y679450D03*
X635000Y841375D03*
X927100Y844550D03*
X974725Y892175D03*
X949325Y854075D03*
X987425Y892175D03*
X612775Y876300D03*
X460375Y876300D03*
X514350Y958850D03*
X730250Y663575D03*
X815975Y777875D03*
M02*
